<svg xmlns="http://www.w3.org/2000/svg" width="24.551" height="24.551" viewBox="0 0 24.551 24.551">
  <g id="real-estate-property-svgrepo-com" transform="translate(1 1)">
    <g id="Group_18933" data-name="Group 18933" transform="translate(8.82 -0.591)">
      <path id="Path_22135" data-name="Path 22135" d="M208.71,469.971H203.8v-1.228a.41.41,0,0,1,.409-.409H208.3a.41.41,0,0,1,.409.409v1.228Z" transform="translate(-203.8 -446.238)" fill="#006aff"/>
      <path id="Path_22136" data-name="Path 22136" d="M216.426,403.34h-4.092l.082-.164a6.822,6.822,0,0,0,.737-3.11h2.455a6.947,6.947,0,0,0,.737,3.11Z" transform="translate(-211.925 -381.245)" fill="#006aff"/>
      <path id="Path_22137" data-name="Path 22137" d="M229.4,9.17h2.455V7.533H229.4Z" transform="translate(-228.172 -7.533)" fill="#006aff"/>
      <path id="Path_22138" data-name="Path 22138" d="M229.4,286.329h2.455V280.6H229.4Z" transform="translate(-228.172 -267.506)" fill="#006aff"/>
    </g>
    <path id="Path_22139" data-name="Path 22139" d="M192.521,53.124H179.428A1.206,1.206,0,0,1,178.2,51.9v-9a1.206,1.206,0,0,1,1.228-1.228h13.094a1.206,1.206,0,0,1,1.228,1.228v9a1.206,1.206,0,0,1-1.228,1.228" transform="translate(-170.607 -40.621)" fill="#006aff"/>
    <path id="Path_22140" data-name="Path 22140" d="M21.854,53.124H8.761A1.206,1.206,0,0,1,7.533,51.9v-9a1.206,1.206,0,0,1,1.228-1.228H21.854a1.206,1.206,0,0,1,1.228,1.228v9a1.206,1.206,0,0,1-1.228,1.228" transform="translate(-8.124 -40.621)" fill="#006aff"/>
    <path id="Path_22141" data-name="Path 22141" d="M53.183,53.124H34.361A1.206,1.206,0,0,1,33.133,51.9v-9a1.206,1.206,0,0,1,1.228-1.228H53.183a1.206,1.206,0,0,1,1.228,1.228v9a1.206,1.206,0,0,1-1.227,1.228" transform="translate(-33.496 -40.621)" fill="#006aff"/>
    <g id="Group_18934" data-name="Group 18934" transform="translate(1.046 2.683)">
      <path id="Path_22142" data-name="Path 22142" d="M46.168,75.8l-4.5,4.5,1.228,1.228,3.273-3.273h0l3.273,3.273L50.669,80.3Z" transform="translate(-41.667 -75.8)" fill="#fff"/>
      <path id="Path_22143" data-name="Path 22143" d="M86.788,127l-2.455,2.455v3.273h4.91v-3.273Z" transform="translate(-82.287 -124.545)" fill="#fff"/>
    </g>
    <path id="Path_22144" data-name="Path 22144" d="M200.586,462.255h-4.91a.387.387,0,0,1-.409-.409v-1.228a.821.821,0,0,1,.818-.818h4.092a.821.821,0,0,1,.818.818v1.228A.387.387,0,0,1,200.586,462.255Zm-4.5-.818h4.092v-.818h-4.092Z" transform="translate(-186.856 -438.704)" fill="#006aff"/>
    <path id="Path_22145" data-name="Path 22145" d="M207.9,395.626H203.8a.488.488,0,0,1-.368-.2.372.372,0,0,1,0-.409l.082-.164a6.6,6.6,0,0,0,.7-2.905.387.387,0,0,1,.409-.409h2.455a.387.387,0,0,1,.409.409,6.467,6.467,0,0,0,.7,2.905l.082.164a.478.478,0,0,1,0,.409A.43.43,0,0,1,207.9,395.626Zm-3.437-.818h2.782a7.177,7.177,0,0,1-.573-2.455h-1.637A7.178,7.178,0,0,1,204.458,394.807Z" transform="translate(-194.574 -373.712)" fill="#006aff"/>
    <path id="Path_22146" data-name="Path 22146" d="M21.914,45.409H.637A1.642,1.642,0,0,1-1,43.773v-9A1.642,1.642,0,0,1,.637,33.134H21.914a1.642,1.642,0,0,1,1.637,1.637v9A1.641,1.641,0,0,1,21.914,45.409ZM.637,33.952a.821.821,0,0,0-.818.818v9a.821.821,0,0,0,.818.818H21.914a.821.821,0,0,0,.818-.818v-9a.821.821,0,0,0-.818-.818Z" transform="translate(0 -32.497)" fill="#006aff"/>
    <path id="Path_22147" data-name="Path 22147" d="M223.731,1.455h-2.455a.387.387,0,0,1-.409-.409V-.591A.387.387,0,0,1,221.276-1h2.455a.387.387,0,0,1,.409.409V1.046A.387.387,0,0,1,223.731,1.455ZM221.685.637h1.637V-.182h-1.637Z" transform="translate(-211.228)" fill="#006aff"/>
    <path id="Path_22148" data-name="Path 22148" d="M223.731,278.614h-2.455a.387.387,0,0,1-.409-.409v-5.729a.387.387,0,0,1,.409-.409h2.455a.387.387,0,0,1,.409.409V278.2A.387.387,0,0,1,223.731,278.614Zm-2.046-.818h1.637v-4.91h-1.637Z" transform="translate(-211.228 -259.973)" fill="#006aff"/>
    <path id="Path_22149" data-name="Path 22149" d="M41.318,73.813h0a.371.371,0,0,1-.286-.123L38.044,70.7,35.057,73.69a.371.371,0,0,1-.286.123h0a.371.371,0,0,1-.286-.123l-1.228-1.228a.4.4,0,0,1,0-.573l4.5-4.5a.371.371,0,0,1,.286-.123h0a.371.371,0,0,1,.286.123l4.5,4.5a.4.4,0,0,1,0,.573L41.6,73.69A.371.371,0,0,1,41.318,73.813Zm-3.192-4.092a.225.225,0,0,1,.2.123l2.987,2.987.655-.655-3.928-3.928-3.928,3.928.655.655,2.987-2.987a.371.371,0,0,1,.286-.123h.082Z" transform="translate(-32.497 -64.993)" fill="#006aff"/>
    <path id="Path_22150" data-name="Path 22150" d="M81.119,125.014h-4.91a.387.387,0,0,1-.409-.409v-3.273a.371.371,0,0,1,.123-.286l2.455-2.455a.371.371,0,0,1,.286-.123h0a.371.371,0,0,1,.286.123l2.455,2.455a.371.371,0,0,1,.123.286V124.6A.387.387,0,0,1,81.119,125.014Zm-4.5-.818H80.71v-2.7l-2.046-2.046-2.046,2.046v2.7Z" transform="translate(-73.117 -113.738)" fill="#006aff"/>
    <path id="Path_22151" data-name="Path 22151" d="M299.678,99.264a.372.372,0,0,1-.327-.164L297.3,96.645a.406.406,0,1,1,.614-.532l1.678,2.046,3.805-5.688a.414.414,0,1,1,.7.45l-4.092,6.138a.324.324,0,0,1-.327.2Z" transform="translate(-283.901 -88.807)" fill="#f1f9ff"/>
  </g>
</svg>
