<svg xmlns="http://www.w3.org/2000/svg" width="25.5" height="17.983" viewBox="0 0 25.5 17.983">
  <g id="real-estate-symbol-of-bigger-house-proposal-svgrepo-com" transform="translate(0 -99.347)">
    <g id="Group_18932" data-name="Group 18932" transform="translate(0 99.347)">
      <path id="Path_22132" data-name="Path 22132" d="M226.677,270.142v4.353h8.348v-4.34l-4.174-3.457Zm4.073,2.693H229.2v-1.446h1.546Zm0-1.634H229.2v-1.446h1.546Zm.2-1.446H232.5V271.2h-1.546Zm0,1.634H232.5v1.446h-1.546Z" transform="translate(-218.101 -260.366)" fill="#006aff"/>
      <path id="Path_22133" data-name="Path 22133" d="M21.962,446.143H19.238v2.179H6.265v-2.179H3.541L0,451.005H25.5Z" transform="translate(0 -433.023)" fill="#006aff"/>
      <path id="Path_22134" data-name="Path 22134" d="M107.794,106.668v3.674h1.179v-1.754l5.31-4.383,5.308,4.4v1.765h1.179v-3.7l1.3,1.064.974-1.182-8.758-7.2-4.083,3.361v-1.542h-1.532v2.8l-3.143,2.584.974,1.182Z" transform="translate(-101.533 -99.347)" fill="#006aff"/>
    </g>
  </g>
</svg>
