<svg xmlns="http://www.w3.org/2000/svg" width="14.584" height="6.685" viewBox="0 0 14.584 6.685">
  <path id="bakery-svgrepo-com" d="M12.191,14.247a4.583,4.583,0,0,1-.666,2.69,9.924,9.924,0,0,0-.394-2.9,4.336,4.336,0,0,0-1.1.006,3.732,3.732,0,0,1-1.064,2.883,5.618,5.618,0,0,0-.144-2.559A5.661,5.661,0,0,0,7.2,14.3a3.958,3.958,0,0,1-.647,2.69,5.842,5.842,0,0,0-.436-2.466,6.211,6.211,0,0,0-1.271.128A4.6,4.6,0,0,1,4.932,17a4.261,4.261,0,0,0-.979-2.1C-.376,16.746.764,19.285,2.881,20.041c2,.712,8.43,1.063,11.308-.186s.852-4.76-2-5.609Z" transform="translate(-1 -14)" fill="#2699fb"/>
</svg>
