<svg xmlns="http://www.w3.org/2000/svg" width="17.454" height="8" viewBox="0 0 17.454 8">
  <path id="bakery-svgrepo-com" d="M14.393,14.3a5.485,5.485,0,0,1-.8,3.219,11.876,11.876,0,0,0-.472-3.473,5.189,5.189,0,0,0-1.311.007A4.467,4.467,0,0,1,10.539,17.5a6.723,6.723,0,0,0-.173-3.063,6.775,6.775,0,0,0-1.944-.078,4.736,4.736,0,0,1-.775,3.219,6.991,6.991,0,0,0-.521-2.951,7.434,7.434,0,0,0-1.521.153,5.5,5.5,0,0,1,.1,2.815A5.1,5.1,0,0,0,4.533,15.08C-.646,17.286.718,20.324,3.251,21.229c2.389.852,10.088,1.272,13.533-.222s1.019-5.7-2.39-6.712Z" transform="translate(-1 -14)" fill="#818181"/>
</svg>
