<svg xmlns="http://www.w3.org/2000/svg" width="18.116" height="10.49" viewBox="0 0 18.116 10.49">
  <path id="balcony-svgrepo-com" d="M18.032,88a.8.8,0,0,0-.8-.8h-.408a.915.915,0,0,0-.35-.7.282.282,0,0,0,.1-.542c.648-.321.666-1.177.363-2.106l-.594-1.937h.12a.282.282,0,0,0,.063-.558.972.972,0,0,0-.118-1.585h.824a.8.8,0,0,0,0-1.593H.88a.8.8,0,0,0,0,1.593H1.7a.972.972,0,0,0-.118,1.585.282.282,0,0,0,.063.558h.12l-.594,1.937c-.3.929-.284,1.785.363,2.106a.282.282,0,0,0,.1.542.915.915,0,0,0-.35.7H.88a.8.8,0,0,0-.8.8L0,88.671H18.116ZM4.953,85.959a.282.282,0,0,0,.1.542.915.915,0,0,0-.35.7H3.122a.915.915,0,0,0-.35-.7.282.282,0,0,0,.1-.542c.648-.321.666-1.177.363-2.106l-.594-1.937h.12a.282.282,0,0,0,.063-.558.972.972,0,0,0-.118-1.585H5.119A.972.972,0,0,0,5,81.359a.282.282,0,0,0,.063.558h.12L4.59,83.853C4.287,84.783,4.306,85.638,4.953,85.959Zm3.414,0a.282.282,0,0,0,.1.542.915.915,0,0,0-.35.7H6.536a.915.915,0,0,0-.35-.7.282.282,0,0,0,.1-.542c.648-.321.666-1.177.363-2.106l-.594-1.937h.12a.282.282,0,0,0,.063-.558.972.972,0,0,0-.118-1.585H8.533a.972.972,0,0,0-.118,1.585.282.282,0,0,0,.063.558H8.6L8,83.853C7.7,84.783,7.72,85.638,8.367,85.959Zm3.414,0a.282.282,0,0,0,.1.542.915.915,0,0,0-.35.7H9.95a.915.915,0,0,0-.35-.7.282.282,0,0,0,.1-.542c.648-.321.666-1.177.363-2.106L9.47,81.916h.12a.282.282,0,0,0,.063-.558.972.972,0,0,0-.118-1.585h2.412a.972.972,0,0,0-.118,1.585.282.282,0,0,0,.063.558h.12l-.594,1.937C11.115,84.783,11.134,85.638,11.782,85.959Zm3.463,0a.282.282,0,0,0,.1.542.915.915,0,0,0-.35.7h-1.63a.915.915,0,0,0-.35-.7.282.282,0,0,0,.1-.542c.648-.321.666-1.177.363-2.106l-.594-1.937H13a.282.282,0,0,0,.063-.558.972.972,0,0,0-.118-1.585H15.41a.972.972,0,0,0-.118,1.585.282.282,0,0,0,.063.558h.12l-.594,1.937C14.578,84.783,14.6,85.638,15.244,85.959Z" transform="translate(0 -78.181)" fill="#2699fb"/>
</svg>
