<svg xmlns="http://www.w3.org/2000/svg" width="19.187" height="18.301" viewBox="0 0 19.187 18.301">
  <g id="beach-svgrepo-com" transform="translate(0 -10.982)">
    <path id="Path_22154" data-name="Path 22154" d="M14.6,164.6a4.184,4.184,0,0,0-2.634.877,3,3,0,0,1-1.958.67,3,3,0,0,1-1.958-.67,4.184,4.184,0,0,0-2.634-.877c-.1,0-.189,0-.278.007v-6.449a2.288,2.288,0,0,1,1.679,2.2H8.023a3.493,3.493,0,0,0-1.407-2.8,2.277,2.277,0,0,1,1.458.907l.98-.712a3.493,3.493,0,0,0-2.785-1.439,2.276,2.276,0,0,1,1.713-.124l.374-1.152a3.5,3.5,0,0,0-3.83,1.163A3.5,3.5,0,0,0,.7,155.044l.374,1.152a2.277,2.277,0,0,1,1.713.124A3.493,3.493,0,0,0,0,157.759l.98.712a2.276,2.276,0,0,1,1.458-.907,3.493,3.493,0,0,0-1.407,2.8H2.242a2.288,2.288,0,0,1,1.679-2.2v6.688a5.253,5.253,0,0,0-1.145.631,3,3,0,0,1-1.958.67v1.211a4.184,4.184,0,0,0,2.634-.877,3,3,0,0,1,1.958-.67,3,3,0,0,1,1.958.67,4.184,4.184,0,0,0,2.634.877,4.184,4.184,0,0,0,2.634-.877,3.195,3.195,0,0,1,3.916,0,4.184,4.184,0,0,0,2.634.877v-1.211a3,3,0,0,1-1.958-.67A4.184,4.184,0,0,0,14.6,164.6Z" transform="translate(0 -138.08)" fill="#2699fb"/>
    <path id="Path_22155" data-name="Path 22155" d="M262.687,14.817a3.01,3.01,0,0,0-.441-1.064l1.043-1.043-.856-.856L261.389,12.9a3.01,3.01,0,0,0-1.064-.441V10.982h-1.211v1.474a3.01,3.01,0,0,0-1.064.441l-1.043-1.043-.856.856,1.043,1.043a3.01,3.01,0,0,0-.441,1.064h-1.474v1.211h1.474a3.01,3.01,0,0,0,.441,1.064l-1.043,1.043.856.856,1.043-1.043a3.01,3.01,0,0,0,1.064.441v1.474h1.211V18.39a3.01,3.01,0,0,0,1.064-.441l1.043,1.043.856-.856-1.043-1.043a3.011,3.011,0,0,0,.441-1.064h1.474V14.817h-1.474Z" transform="translate(-244.973)" fill="#2699fb"/>
  </g>
</svg>
