<svg xmlns="http://www.w3.org/2000/svg" width="12.05" height="12.05" viewBox="0 0 12.05 12.05">
  <g id="calendar-2" transform="translate(-2 -2)" opacity="0.501">
    <path id="Path_152" data-name="Path 152" d="M2,22.846a1.369,1.369,0,0,0,1.369,1.369h9.311a1.369,1.369,0,0,0,1.369-1.369V16H2Z" transform="translate(0 -10.166)" fill="#e3e3e3"/>
    <path id="Path_153" data-name="Path 153" d="M12.681,6H3.369A1.369,1.369,0,0,0,2,7.369V8.739H14.05V7.369A1.369,1.369,0,0,0,12.681,6Z" transform="translate(0 -2.905)" fill="#2699fb"/>
    <path id="Path_154" data-name="Path 154" d="M15.308,27.425h-2.98V26.8c.792-.8,1.468-1.469,1.691-1.757.378-.489.311-.9.133-1.063-.352-.313-.941-.023-1.345.312l-.49-.58a2.087,2.087,0,0,1,1.522-.609,1.2,1.2,0,0,1,1.35,1.155,1.656,1.656,0,0,1-.424,1.081c-.226.283-1.315,1.33-1.315,1.33h1.857Z" transform="translate(-7.492 -15.321)" fill="#aeaeae"/>
    <path id="Path_155" data-name="Path 155" d="M24.7,25.508a2.819,2.819,0,0,1,.535-1.883,2,2,0,0,1,1.6-.618,2.918,2.918,0,0,1,.572.044v.72a2.334,2.334,0,0,0-.513-.058,1.239,1.239,0,0,0-1.2.554,1.9,1.9,0,0,0-.172.778,1.153,1.153,0,0,1,.962-.5,1.186,1.186,0,0,1,1.218,1.35,1.352,1.352,0,0,1-1.451,1.479C25.22,27.377,24.7,26.594,24.7,25.508Zm1.539,1.149c.423,0,.6-.318.6-.746,0-.4-.178-.67-.58-.67a.635.635,0,0,0-.662.592c0,.416.233.825.644.825Z" transform="translate(-16.483 -15.25)" fill="#aeaeae"/>
    <path id="Path_156" data-name="Path 156" d="M10.411,4.739A.411.411,0,0,1,10,4.328V2.411a.411.411,0,1,1,.822,0V4.328A.411.411,0,0,1,10.411,4.739Z" transform="translate(-5.809)" fill="#006bc6"/>
    <path id="Path_157" data-name="Path 157" d="M35.411,4.739A.411.411,0,0,1,35,4.328V2.411a.411.411,0,1,1,.822,0V4.328A.411.411,0,0,1,35.411,4.739Z" transform="translate(-23.963)" fill="#0067bf"/>
  </g>
</svg>
