<svg xmlns="http://www.w3.org/2000/svg" width="19.323" height="12.412" viewBox="0 0 19.323 12.412">
  <g id="XMLID_21_" transform="translate(0 -59.129)">
    <g id="Group_18937" data-name="Group 18937" transform="translate(0 59.129)">
      <path id="Path_22152" data-name="Path 22152" d="M14.914,67.45h.9a3.506,3.506,0,1,0,0-7.013h-.011c0-.71,0-1.252,0-1.281v-.028H1.145v.028c0,.083,0,4.595,0,4.787a7.327,7.327,0,0,0,2.908,5.844H0v1.753H16.947V69.788H12.9A7.386,7.386,0,0,0,14.914,67.45Zm.894-3.506c0-.077,0-.85,0-1.753h.01a1.753,1.753,0,0,1,0,3.506H15.6A7.324,7.324,0,0,0,15.807,63.944Z" transform="translate(0 -59.129)" fill="#2699fb"/>
    </g>
  </g>
</svg>
