<svg xmlns="http://www.w3.org/2000/svg" width="196.999" height="180.883" viewBox="0 0 196.999 180.883">
  <g id="OBJECTS" transform="translate(-31.577 -71.043)">
    <g id="Group_1" data-name="Group 1" transform="translate(31.577 91.75)">
      <path id="Path_1" data-name="Path 1" d="M214.855,272.644c-10.34-8.181-28.025-28.483-4.736-60.351,28.8-39.409-5.691-55.578-38.749-53.891-26.6,1.358-56.528-33.463-86.386-27.239-39.631,8.26-13.9,43.8-40.77,62.95C21.3,210.443,31.136,260.2,60.961,272.644Z" transform="translate(-31.577 -123.134)" fill="#dcedf9"/>
      <path id="Path_3" data-name="Path 3" d="M229.209,114.975c-5.687.151-7.9,5.444-3.792,8.988a17.746,17.746,0,0,0,10.272,4.343c10.138.828,7.216-8.047,1.793-11.372A15.5,15.5,0,0,0,229.209,114.975Z" transform="translate(-134.162 -114.968)" fill="#dcedf9"/>
      <path id="Path_4" data-name="Path 4" d="M52.418,223.405c2.236-5.231-1.649-9.454-6.585-7.2a17.748,17.748,0,0,0-8.235,7.521c-4.985,8.866,4.3,9.917,9.585,6.377A15.508,15.508,0,0,0,52.418,223.405Z" transform="translate(-34.007 -166.75)" fill="#dcedf9"/>
    </g>
    <ellipse id="Ellipse_1" data-name="Ellipse 1" cx="94.544" cy="7.712" rx="94.544" ry="7.712" transform="translate(39.488 236.502)" fill="#dcedf9"/>
    <g id="Group_16" data-name="Group 16" transform="translate(124.059 210.349)">
      <rect id="Rectangle_2" data-name="Rectangle 2" width="37.424" height="54.177" transform="matrix(0.001, -1, 1, 0.001, 0, 37.424)" fill="#006aff"/>
      <path id="Path_15" data-name="Path 15" d="M285.4,358.518l0,2.4-27.121,23.969-27.054-24.047,0-2.4,27.052,24.129Z" transform="translate(-231.17 -358.438)" fill="#fff"/>
      <g id="Group_13" data-name="Group 13" transform="translate(0 18.086)">
        <path id="Path_16" data-name="Path 16" d="M253.009,398.115l-20.326,18.027-1.569,0v-.954L251.844,396.8Z" transform="translate(-231.114 -396.802)" fill="#fff"/>
      </g>
      <g id="Group_15" data-name="Group 15" transform="translate(32.192 18.104)">
        <g id="Group_14" data-name="Group 14">
          <path id="Path_17" data-name="Path 17" d="M321.389,415.411v.827l-1.711,0L299.4,398.151l1.169-1.31Z" transform="translate(-299.402 -396.841)" fill="#fff"/>
        </g>
      </g>
      <path id="Path_18" data-name="Path 18" d="M231.225,358.436l27.054,24.131L285.4,358.514Z" transform="translate(-231.172 -358.436)" fill="#006aff"/>
    </g>
    <g id="Group_22" data-name="Group 22" transform="translate(129.702 71.043)">
      <g id="Group_19" data-name="Group 19" transform="translate(14.566 6.411)">
        <g id="Group_17" data-name="Group 17">
          <path id="Path_19" data-name="Path 19" d="M275.029,85.632a.319.319,0,0,1-.158-.024c-.549-.231-.871-.339-.874-.341a.321.321,0,0,1,.2-.609c.014,0,.345.116.92.358a.321.321,0,0,1-.092.615Z" transform="translate(-273.778 -84.642)" fill="#dcedf9"/>
        </g>
        <g id="Group_18" data-name="Group 18" transform="translate(2.624 1.157)">
          <path id="Path_20" data-name="Path 20" d="M311.119,122.786c.218.582.422,1.183.608,1.786a.322.322,0,0,0,.34.225.308.308,0,0,0,.061-.012.321.321,0,0,0,.213-.4c-.189-.615-.4-1.228-.62-1.822a.321.321,0,1,0-.6.225Z" transform="translate(-296.129 -105.732)" fill="#dcedf9"/>
          <path id="Path_21" data-name="Path 21" d="M313.482,130.473c.147.6.28,1.224.4,1.846a.321.321,0,0,0,.349.261l.025,0a.321.321,0,0,0,.257-.374c-.117-.634-.253-1.266-.4-1.881a.321.321,0,0,0-.624.152Z" transform="translate(-297.384 -109.816)" fill="#dcedf9"/>
          <path id="Path_22" data-name="Path 22" d="M315.951,148.63a.322.322,0,0,0,.287-.314c.009-.644.005-1.291-.014-1.921a.321.321,0,0,0-.642.019c.019.621.023,1.258.014,1.892a.32.32,0,0,0,.316.326Z" transform="translate(-298.499 -118.276)" fill="#dcedf9"/>
          <path id="Path_23" data-name="Path 23" d="M315.227,138.024a.321.321,0,0,0-.277.36c.037.29.072.584.1.872.035.333.066.672.093,1.008a.321.321,0,0,0,.345.3h.008a.32.32,0,0,0,.286-.344c-.027-.342-.058-.687-.094-1.025-.031-.294-.066-.592-.1-.887a.321.321,0,0,0-.352-.278Z" transform="translate(-298.163 -114.015)" fill="#dcedf9"/>
          <path id="Path_24" data-name="Path 24" d="M308.657,117.142a.322.322,0,0,0,.327.188.33.33,0,0,0,.1-.026.322.322,0,0,0,.162-.424c-.262-.585-.545-1.168-.842-1.732a.321.321,0,1,0-.569.3C308.123,116,308.4,116.57,308.657,117.142Z" transform="translate(-294.383 -101.833)" fill="#dcedf9"/>
          <path id="Path_25" data-name="Path 25" d="M279.518,87.7c.552.282,1.108.589,1.654.912a.321.321,0,0,0,.327-.553c-.557-.33-1.125-.643-1.689-.931a.321.321,0,0,0-.292.572Z" transform="translate(-279.343 -87.097)" fill="#dcedf9"/>
          <path id="Path_26" data-name="Path 26" d="M287.985,92.9a.321.321,0,1,0,.389-.51c-.508-.388-1.035-.766-1.565-1.124a.321.321,0,0,0-.359.532C286.97,92.152,287.486,92.523,287.985,92.9Z" transform="translate(-283.025 -89.274)" fill="#dcedf9"/>
          <path id="Path_27" data-name="Path 27" d="M294.241,97.964a.321.321,0,0,0,.448-.46c-.457-.444-.935-.882-1.421-1.3a.321.321,0,0,0-.419.486C293.326,97.1,293.794,97.529,294.241,97.964Z" transform="translate(-286.423 -91.869)" fill="#dcedf9"/>
          <path id="Path_28" data-name="Path 28" d="M299.841,103.737a.321.321,0,0,0,.5-.4c-.4-.5-.82-.991-1.251-1.466a.321.321,0,0,0-.475.432C299.038,102.766,299.45,103.249,299.841,103.737Z" transform="translate(-289.487 -94.85)" fill="#dcedf9"/>
          <path id="Path_29" data-name="Path 29" d="M304.677,110.16a.322.322,0,0,0,.308.152.328.328,0,0,0,.133-.045.321.321,0,0,0,.107-.442c-.333-.546-.688-1.088-1.055-1.611a.321.321,0,1,0-.526.369C304,109.095,304.351,109.625,304.677,110.16Z" transform="translate(-292.157 -98.187)" fill="#dcedf9"/>
        </g>
      </g>
      <g id="Group_21" data-name="Group 21">
        <g id="Group_20" data-name="Group 20">
          <path id="Path_30" data-name="Path 30" d="M258.69,76.247l1.405-5.2-17.216.148Z" transform="translate(-242.879 -71.043)" fill="#ec1818"/>
          <path id="Path_31" data-name="Path 31" d="M242.879,71.356l14.975,6.313.04.017.644,1.067.152-2.341Z" transform="translate(-242.879 -71.209)" fill="#ec1818"/>
          <path id="Path_32" data-name="Path 32" d="M274.532,85.851l-1.4-.22.751-.847Z" transform="translate(-258.873 -78.306)" fill="#ec1818"/>
          <path id="Path_33" data-name="Path 33" d="M256.01,76.892l1.885.794-3.881,4.373-11.134-10.7Z" transform="translate(-242.879 -71.209)" fill="#ec1818"/>
        </g>
      </g>
    </g>
    <g id="Group_89" data-name="Group 89" transform="translate(89.855 103.685)">
      <g id="Group_84" data-name="Group 84" transform="translate(0 0)">
        <path id="Path_56" data-name="Path 56" d="M328.318,156.193v35.739a6.045,6.045,0,0,1-6.045,6.045h-85.62V136.871H309a19.32,19.32,0,0,1,19.322,19.322Z" transform="translate(-200.792 -136.825)" fill="#006aff"/>
        <path id="Path_57" data-name="Path 57" d="M344.07,237.617v7.568a6.045,6.045,0,0,1-6.045,6.045H266.452V237.617Z" transform="translate(-216.543 -190.078)" fill="#1059bf"/>
        <path id="Path_58" data-name="Path 58" d="M236.067,154.035v43.89H197.355v-43.89a17.261,17.261,0,0,1,17.262-17.262h4.3A17.261,17.261,0,0,1,236.067,154.035Z" transform="translate(-180.019 -136.773)" fill="#6b6b6b"/>
        <path id="Path_59" data-name="Path 59" d="M240.884,154.035v43.89H206.467v-43.89a17.262,17.262,0,0,1,17.155-17.262h.107A17.261,17.261,0,0,1,240.884,154.035Z" transform="translate(-184.836 -136.773)" fill="#818181"/>
        <g id="Group_83" data-name="Group 83" transform="translate(0 58.643)">
          <path id="Path_60" data-name="Path 60" d="M177.915,266.492l-14.741,25.956c-5.415,9.534-2.075,17.262,7.458,17.262h4.3c9.518-.058,21.564-7.763,26.959-17.262l14.742-25.956Z" transform="translate(-160.581 -263.984)" fill="#818181"/>
          <rect id="Rectangle_5" data-name="Rectangle 5" width="38.712" height="2.508" transform="translate(17.336)" fill="#818181"/>
        </g>
      </g>
    </g>
    <g id="Group_137" data-name="Group 137" transform="translate(63.094 88.737)">
      <g id="Group_136" data-name="Group 136">
        <path id="Path_66" data-name="Path 66" d="M171.792,188.874a21.307,21.307,0,0,0,13.186,14.287,30.387,30.387,0,0,0,9.076-3.446,27.371,27.371,0,0,1-1.486-5.972c-3.726,1.037-6.943,1.591-6.943,1.591-7.865-3.645-12.634-21.093-12.634-21.093C168.316,178.678,171.792,188.874,171.792,188.874Z" transform="translate(-137.162 -142.349)" fill="#007fe9"/>
        <g id="Group_96" data-name="Group 96" transform="translate(0 139.161)">
          <path id="Path_67" data-name="Path 67" d="M113.338,395.663l-3.327,4.451a7.108,7.108,0,0,0,3.072,3.523l3.98-5.121Z" transform="translate(-105.162 -395.663)" fill="#fba691"/>
          <g id="Group_95" data-name="Group 95" transform="translate(0 3.72)">
            <g id="Group_90" data-name="Group 90">
              <path id="Path_68" data-name="Path 68" d="M107.093,406.43s1.557-.336,2.089.2,1.869,7.86,3.12,9.462-.008,2.453-.778,2.778-11.8-10.694-11.8-10.694,2.727-3.767,4.041-4.5S105.7,405.654,107.093,406.43Z" transform="translate(-99.725 -403.555)" fill="#818181"/>
            </g>
            <g id="Group_94" data-name="Group 94" transform="translate(7.21 5.053)">
              <g id="Group_91" data-name="Group 91" transform="translate(0.182 1.171)">
                <path id="Path_69" data-name="Path 69" d="M115.587,417.683a.281.281,0,0,1-.16-.157.3.3,0,0,1,.151-.381,4.271,4.271,0,0,1,2.1-.351A1.937,1.937,0,0,1,119.2,418.1a.294.294,0,0,1-.195.36.278.278,0,0,1-.348-.2,1.379,1.379,0,0,0-1.088-.9,3.773,3.773,0,0,0-1.774.313A.276.276,0,0,1,115.587,417.683Z" transform="translate(-115.406 -416.759)" fill="#fff"/>
              </g>
              <g id="Group_92" data-name="Group 92">
                <path id="Path_70" data-name="Path 70" d="M115.2,415.2a.281.281,0,0,1-.159-.157.3.3,0,0,1,.151-.381,4.265,4.265,0,0,1,2.1-.351,1.936,1.936,0,0,1,1.525,1.308.3.3,0,0,1-.195.36.278.278,0,0,1-.348-.2,1.381,1.381,0,0,0-1.088-.9,3.757,3.757,0,0,0-1.774.313A.275.275,0,0,1,115.2,415.2Z" transform="translate(-115.02 -414.274)" fill="#fff"/>
              </g>
              <g id="Group_93" data-name="Group 93" transform="translate(0.692 2.404)">
                <path id="Path_71" data-name="Path 71" d="M116.669,420.3a.281.281,0,0,1-.159-.156.3.3,0,0,1,.151-.381,4.27,4.27,0,0,1,2.1-.351,1.934,1.934,0,0,1,1.525,1.308.294.294,0,0,1-.194.36.277.277,0,0,1-.348-.2,1.382,1.382,0,0,0-1.089-.9,3.758,3.758,0,0,0-1.773.313A.274.274,0,0,1,116.669,420.3Z" transform="translate(-116.487 -419.374)" fill="#fff"/>
              </g>
            </g>
          </g>
        </g>
        <g id="Group_103" data-name="Group 103" transform="translate(28.014 146.432)">
          <path id="Path_72" data-name="Path 72" d="M160.364,411.458l.5,5.534a7.11,7.11,0,0,0,4.64.563l-.468-6.469Z" transform="translate(-159.792 -411.087)" fill="#fba691"/>
          <g id="Group_102" data-name="Group 102" transform="translate(0 4.388)">
            <g id="Group_97" data-name="Group 97">
              <path id="Path_73" data-name="Path 73" d="M163.859,421.7s.973-1.347,1.762-1.3,6.94,4.793,9.028,5.162,1.707,1.909,1.336,2.7-16.542.337-16.542.337-.6-5.22-.087-6.706S162.234,422.072,163.859,421.7Z" transform="translate(-159.15 -420.396)" fill="#6b6b6b"/>
            </g>
            <g id="Group_101" data-name="Group 101" transform="translate(7.444 1.76)">
              <g id="Group_98" data-name="Group 98" transform="translate(0.887 0.786)">
                <path id="Path_74" data-name="Path 74" d="M177.2,428.078a.28.28,0,0,1-.223-.019.3.3,0,0,1-.127-.389,4.271,4.271,0,0,1,1.392-1.609,1.939,1.939,0,0,1,2.009.034.294.294,0,0,1,.08.4.277.277,0,0,1-.393.071,1.381,1.381,0,0,0-1.414,0,3.781,3.781,0,0,0-1.167,1.372A.272.272,0,0,1,177.2,428.078Z" transform="translate(-176.823 -425.797)" fill="#fff"/>
              </g>
              <g id="Group_99" data-name="Group 99">
                <path id="Path_75" data-name="Path 75" d="M175.32,426.411a.279.279,0,0,1-.223-.019.3.3,0,0,1-.127-.39,4.274,4.274,0,0,1,1.392-1.609,1.937,1.937,0,0,1,2.01.034.294.294,0,0,1,.08.4.277.277,0,0,1-.393.071,1.381,1.381,0,0,0-1.414,0,3.755,3.755,0,0,0-1.166,1.372A.276.276,0,0,1,175.32,426.411Z" transform="translate(-174.941 -424.129)" fill="#fff"/>
              </g>
              <g id="Group_100" data-name="Group 100" transform="translate(2.066 1.41)">
                <path id="Path_76" data-name="Path 76" d="M179.7,429.4a.279.279,0,0,1-.223-.019.3.3,0,0,1-.126-.39,4.27,4.27,0,0,1,1.392-1.609,1.936,1.936,0,0,1,2.009.034.294.294,0,0,1,.08.4.277.277,0,0,1-.393.072,1.381,1.381,0,0,0-1.414,0,3.759,3.759,0,0,0-1.166,1.372A.274.274,0,0,1,179.7,429.4Z" transform="translate(-179.324 -427.119)" fill="#fff"/>
              </g>
            </g>
          </g>
        </g>
        <g id="Group_104" data-name="Group 104" transform="translate(5.961 86.464)">
          <path id="Path_77" data-name="Path 77" d="M133.5,284.147l-3.361,27.814a92.979,92.979,0,0,0-5.889,9.326c-2.412,4.394-8.84,15.795-8.84,15.795l3.888,2.964,21.293-22.066,5.669-34.1Z" transform="translate(-113.977 -283.876)" fill="#001030"/>
          <path id="Path_78" data-name="Path 78" d="M118.65,398.476a4.293,4.293,0,0,1-1.764,1.975l-4.515-3.813a6.809,6.809,0,0,1,1.539-2.088Z" transform="translate(-112.37 -342.377)" fill="#2e3052"/>
        </g>
        <g id="Group_105" data-name="Group 105" transform="translate(8.288 86.725)">
          <path id="Path_79" data-name="Path 79" d="M117.306,285.59s6,14.743,13.79,26.239c0,0,1.163,11.188,3.154,17.145.871,2.608,2.559,14.964,2.559,14.964l5.912-.269L141.2,309.314l-6.254-24.883Z" transform="translate(-117.306 -284.431)" fill="#2e3052"/>
          <path id="Path_80" data-name="Path 80" d="M164.356,409.662a4.973,4.973,0,0,1,0,3.068l-6.842.191a7.878,7.878,0,0,1-.283-2.991Z" transform="translate(-138.391 -350.627)" fill="#524e84"/>
        </g>
        <g id="Group_114" data-name="Group 114" transform="translate(8.084 26.649)">
          <g id="Group_109" data-name="Group 109">
            <g id="Group_108" data-name="Group 108">
              <g id="Group_107" data-name="Group 107">
                <g id="Group_106" data-name="Group 106">
                  <path id="Path_81" data-name="Path 81" d="M144.619,168.243c.891,1.112,2.679,12.444,2.959,23.947.007.265.013.53.02.794q.043,1.826.079,3.664.037,1.811.066,3.608c.032,1.957.061,3.883.084,5.739,0,.211,0,.42.007.63.022,1.809.039,3.544.052,5.164q0,.318,0,.63c.019,2.432.031,4.585.032,6.314h0c0,.242,0,.472,0,.7,0,1.209,0,2.168-.012,2.814a60.723,60.723,0,0,1-8.589,1.673l-.228.027-.381.045-.1.009c-.5.055-.991.1-1.489.143a57.509,57.509,0,0,1-7.383.133c-.216-.01-.43-.022-.647-.035-.192-.01-.387-.022-.582-.036-.087,0-.175-.01-.263-.017l-.491-.036a59.916,59.916,0,0,1-10.848-1.905c-.019-1.424-.036-4.325-.042-8.067,0-.205,0-.413,0-.624,0-4.128.012-9.194.061-14.41,0-.413.008-.825.014-1.239q.007-.718.015-1.442c0-.081,0-.163,0-.244,0-.113,0-.225.006-.339,0-.227,0-.455.009-.68,0-.33.008-.66.015-.988,0-.25.007-.5.01-.75.007-.5.016-.994.023-1.488.175-10.356.524-19.874,1.19-22.3a1.777,1.777,0,0,1,.192-.484,3.071,3.071,0,0,1,.257-.329,5.627,5.627,0,0,1,.43-.435,31.216,31.216,0,0,1,4.984-3.332l.682-.391c.034-.019,5.3-1.8,5.335-1.815l5.509.386S143.309,166.609,144.619,168.243Z" transform="translate(-116.875 -162.894)" fill="#dedede"/>
                </g>
              </g>
            </g>
          </g>
          <g id="Group_110" data-name="Group 110" transform="translate(0.09 19.982)">
            <path id="Path_82" data-name="Path 82" d="M122.49,205.569a.287.287,0,0,0-.514-.175,28.472,28.472,0,0,0-4.34,8.61c-.2.645-.377,1.271-.528,1.866,0,.25-.007.5-.01.75-.006.328-.01.657-.015.988,0,.225-.007.453-.009.68,0,.114,0,.227-.006.339,0,.081,0,.163,0,.244a34.794,34.794,0,0,1,1.121-4.711,27.878,27.878,0,0,1,4.246-8.418.287.287,0,0,0,.058-.172Z" transform="translate(-117.066 -205.281)" fill="#827f7f"/>
          </g>
          <g id="Group_111" data-name="Group 111" transform="translate(6.35 39.898)">
            <path id="Path_83" data-name="Path 83" d="M130.63,257.96h0c5.95-.026,11.028-2.734,14.24-5a32.6,32.6,0,0,0,5.6-4.96.286.286,0,1,0-.438-.369,32,32,0,0,1-5.506,4.87c-3.143,2.215-8.1,4.861-13.9,4.886a.286.286,0,0,0,0,.573Z" transform="translate(-130.344 -247.53)" fill="#827f7f"/>
          </g>
          <g id="Group_112" data-name="Group 112" transform="translate(11.289 48.739)">
            <path id="Path_84" data-name="Path 84" d="M142.37,269.895c5.163,0,10.311-2.942,10.545-3.077a.286.286,0,1,0-.287-.5c-.061.035-6.118,3.495-11.49,2.939a.283.283,0,0,0-.314.255.286.286,0,0,0,.255.314A12.519,12.519,0,0,0,142.37,269.895Z" transform="translate(-140.823 -266.284)" fill="#827f7f"/>
          </g>
          <g id="Group_113" data-name="Group 113" transform="translate(9.763 3.167)">
            <path id="Path_85" data-name="Path 85" d="M139.179,175.882c4.975-1.379,9.15-5.59,9.34-5.783a.286.286,0,0,0-.409-.4c-.049.049-4.963,5-10.287,5.9a.286.286,0,0,0,.1.564A12.536,12.536,0,0,0,139.179,175.882Z" transform="translate(-137.584 -169.613)" fill="#464646"/>
          </g>
        </g>
        <g id="Group_126" data-name="Group 126" transform="translate(13.634)">
          <g id="Group_125" data-name="Group 125">
            <path id="Path_86" data-name="Path 86" d="M132.134,123.443c0,5.03,3.1,8.5,8.127,8.5s8.536-3.727,8.536-8.757-2.978-8.841-8.009-8.841C134.756,114.342,132.134,118.414,132.134,123.443Z" transform="translate(-130.49 -111.624)" fill="#2e3052"/>
            <path id="Path_87" data-name="Path 87" d="M131.144,121.73s-1.758-2.658-.828-4.707c.962-2.121.474-1.657.713-3.249a2.937,2.937,0,0,1,2.789-2.479c1.39-.23.437-1.829,2.364-2.4s3.469,1.436,4.708.535,4.28-1.344,5.135,0a2.323,2.323,0,0,0,2.525,1.292,2.164,2.164,0,0,1,1.574,3.269c-.992,1.592-2.663.96-2.432,2.056s1.643,3.028-.251,5.483C146.869,122.269,131.144,121.73,131.144,121.73Z" transform="translate(-129.386 -108.576)" fill="#2e3052"/>
            <g id="Group_117" data-name="Group 117" transform="translate(0 13.053)">
              <path id="Path_88" data-name="Path 88" d="M131.422,137.2s-1.4-1.863-2.437-.322.43,6.092,2.975,4.981Z" transform="translate(-128.648 -136.265)" fill="#fb876b"/>
              <g id="Group_115" data-name="Group 115" transform="translate(0.546 1.631)">
                <path id="Path_89" data-name="Path 89" d="M132.015,142.279a.215.215,0,0,1-.207-.157,3.322,3.322,0,0,0-1.864-1.98.215.215,0,0,1,.152-.4,3.7,3.7,0,0,1,2.127,2.266.215.215,0,0,1-.149.265A.21.21,0,0,1,132.015,142.279Z" transform="translate(-129.805 -139.726)" fill="#d45c48"/>
              </g>
              <g id="Group_116" data-name="Group 116" transform="translate(1.072 2.476)">
                <path id="Path_90" data-name="Path 90" d="M131.135,142.519a.21.21,0,0,1-.116-.034.215.215,0,0,1-.065-.3,1.962,1.962,0,0,1,.807-.651.215.215,0,1,1,.176.393,1.548,1.548,0,0,0-.621.491A.216.216,0,0,1,131.135,142.519Z" transform="translate(-130.921 -141.518)" fill="#d45c48"/>
              </g>
            </g>
            <g id="Group_123" data-name="Group 123" transform="translate(16.639 13.053)">
              <path id="Path_91" data-name="Path 91" d="M164.481,137.2s1.4-1.863,2.437-.322-.43,6.092-2.974,4.981Z" transform="translate(-163.944 -136.265)" fill="#fb876b"/>
              <g id="Group_120" data-name="Group 120" transform="translate(0.34 1.631)">
                <g id="Group_119" data-name="Group 119">
                  <g id="Group_118" data-name="Group 118">
                    <path id="Path_92" data-name="Path 92" d="M164.881,142.279a.214.214,0,0,0,.207-.157,3.324,3.324,0,0,1,1.865-1.98.215.215,0,0,0-.152-.4,3.7,3.7,0,0,0-2.127,2.266.215.215,0,0,0,.149.265A.2.2,0,0,0,164.881,142.279Z" transform="translate(-164.666 -139.726)" fill="#d45c48"/>
                  </g>
                </g>
              </g>
              <g id="Group_122" data-name="Group 122" transform="translate(1.096 2.476)">
                <g id="Group_121" data-name="Group 121">
                  <path id="Path_93" data-name="Path 93" d="M167.2,142.519a.211.211,0,0,0,.116-.034.215.215,0,0,0,.064-.3,1.961,1.961,0,0,0-.807-.651.215.215,0,0,0-.175.393,1.552,1.552,0,0,1,.621.491A.215.215,0,0,0,167.2,142.519Z" transform="translate(-166.268 -141.518)" fill="#d45c48"/>
                </g>
              </g>
            </g>
            <path id="Path_94" data-name="Path 94" d="M149.684,156.314V161.1a3.315,3.315,0,0,1-2.247,1.294c-2.1.248-4.372-1.969-4.372-1.969v-3.795Z" transform="translate(-136.269 -133.81)" fill="#fba691"/>
            <path id="Path_95" data-name="Path 95" d="M149.684,156.314v2.008c-1.225,1.359-3.4,1.7-6.619,1.223v-2.913Z" transform="translate(-136.269 -133.81)" fill="#fb876b"/>
            <path id="Path_96" data-name="Path 96" d="M132.856,128.3q.028.393.066.8c.068.674.159,1.367.282,2.056,0,.025.008.048.012.069.608,3.338,1.974,6.618,4.919,7.67,6.67,2.381,9.052-3.338,10.005-6.672.1-.37.2-.782.284-1.221,0-.017.006-.035.011-.056.092-.494.173-1.019.24-1.561.051-.4.094-.808.133-1.219.1-1,.16-2,.2-2.882a4.706,4.706,0,0,0-3.015-4.619c-2.736-1.052-6.89-1.885-10.826.347a4.725,4.725,0,0,0-2.4,4.021C132.754,125.954,132.768,127.086,132.856,128.3Z" transform="translate(-130.824 -114.403)" fill="#fba691"/>
            <path id="Path_97" data-name="Path 97" d="M132.958,137.909q.028.393.066.8c.068.674.159,1.367.282,2.056,0,.025.008.048.012.069.608,3.338,1.974,6.618,4.919,7.67,6.67,2.381,9.052-3.338,10.005-6.672.1-.37.2-.782.284-1.221,0-.017.006-.035.011-.056.092-.494.173-1.019.24-1.561.051-.4.094-.808.133-1.219l-1,.261a20.563,20.563,0,0,1-1.272,4.735c-.874-2.135-5.737-.372-5.737-.372s-4.336-1.541-5.8-.009a40.3,40.3,0,0,1-1.319-4.354Zm7.8,5.276c3.5-.479,4.369.415,4.533,1.451a6.016,6.016,0,0,1-2.981,1.792,6.916,6.916,0,0,1-5.409-1.151C136.726,144.471,136.524,142.117,140.762,143.185Z" transform="translate(-130.926 -124.008)" fill="#2e3052"/>
            <path id="Path_98" data-name="Path 98" d="M143.751,137.827c0,.483-.249.874-.556.874s-.556-.391-.556-.874.249-.875.556-.875S143.751,137.344,143.751,137.827Z" transform="translate(-136.043 -123.575)" fill="#2e3052"/>
            <path id="Path_99" data-name="Path 99" d="M157.438,137.827c0,.483-.249.874-.556.874s-.556-.391-.556-.874.249-.875.556-.875S157.438,137.344,157.438,137.827Z" transform="translate(-143.278 -123.575)" fill="#2e3052"/>
            <path id="Path_100" data-name="Path 100" d="M157.362,132.055a4.722,4.722,0,0,0-3.106-.11l.135.751a8.651,8.651,0,0,1,2.982.237A1.3,1.3,0,0,0,157.362,132.055Z" transform="translate(-142.184 -120.805)" fill="#2e3052"/>
            <path id="Path_101" data-name="Path 101" d="M139.065,132.055a4.722,4.722,0,0,1,3.106-.11l-.135.751a8.652,8.652,0,0,0-2.982.237A1.3,1.3,0,0,1,139.065,132.055Z" transform="translate(-134.111 -120.805)" fill="#2e3052"/>
            <g id="Group_124" data-name="Group 124" transform="translate(9.243 13.814)">
              <path id="Path_102" data-name="Path 102" d="M149.2,142.11a2.278,2.278,0,0,1-.792-.068.215.215,0,0,1,.113-.415,1.288,1.288,0,0,0,.866-.024.234.234,0,0,0,.081-.212,32.546,32.546,0,0,0-.529-3.253.215.215,0,1,1,.421-.087,31.824,31.824,0,0,1,.538,3.332.657.657,0,0,1-.247.559A.9.9,0,0,1,149.2,142.11Z" transform="translate(-148.254 -137.88)" fill="#fb876b"/>
            </g>
            <path id="Path_103" data-name="Path 103" d="M144.035,149.589a2.768,2.768,0,0,0,2.727,2.511,2.666,2.666,0,0,0,2.716-2.511Z" transform="translate(-136.781 -130.255)" fill="#fff"/>
            <path id="Path_104" data-name="Path 104" d="M148.783,128.427h-.974a7.055,7.055,0,0,0-.541-2.948c-.666-1.786.751-2.574-.4-3.469s-4-.512-5.982-.577a42.549,42.549,0,0,0-5.982.144c-.78.178-.353,1.474-.066,2.478s-.957,2.111-1.165,3.15a4.57,4.57,0,0,0,0,1.221h-.812c-.1-1.264-.111-2.44-.093-3.395a4.724,4.724,0,0,1,2.4-4.021c3.937-2.232,8.091-1.4,10.826-.348a4.71,4.71,0,0,1,3.017,4.621C148.965,126.248,148.894,127.344,148.783,128.427Z" transform="translate(-130.824 -114.403)" fill="#2e3052"/>
          </g>
        </g>
        <g id="Group_130" data-name="Group 130" transform="translate(7.172 18.165)">
          <rect id="Rectangle_8" data-name="Rectangle 8" width="54.663" height="37.759" transform="translate(0.001 42.143) rotate(-50.441)" fill="#006aff"/>
          <path id="Path_105" data-name="Path 105" d="M149.755,147.115l1.866,1.542,1.27,36.5L116.809,190.8l-1.866-1.542,36.145-5.59Z" transform="translate(-114.941 -147.113)" fill="#fff"/>
          <g id="Group_127" data-name="Group 127" transform="translate(27.35 37.577)">
            <path id="Path_106" data-name="Path 106" d="M174.725,226.822l1,27.394-1.008,1.221-.742-.613-1.02-27.936Z" transform="translate(-172.955 -226.822)" fill="#fff"/>
          </g>
          <g id="Group_129" data-name="Group 129" transform="translate(35.466 23.516)">
            <g id="Group_128" data-name="Group 128">
              <path id="Path_107" data-name="Path 107" d="M217.988,197l.644.532-1.1,1.331-27.09,4.188-.27-1.75Z" transform="translate(-190.172 -196.996)" fill="#fff"/>
            </g>
          </g>
          <path id="Path_108" data-name="Path 108" d="M114.938,189.256l36.147-5.59-1.334-36.553Z" transform="translate(-114.938 -147.112)" fill="#006aff"/>
        </g>
        <g id="Group_135" data-name="Group 135" transform="translate(7.27 32.719)">
          <path id="Path_109" data-name="Path 109" d="M174.44,254.267h1a2.194,2.194,0,0,0,1.982-1.33,13.058,13.058,0,0,1,.587-1.226A5.539,5.539,0,0,1,180.245,250c.48-.032.391.861.052,1.252a8.034,8.034,0,0,0-1.161,1.442c-.287.553,2.348,1.675,3.418,1.936s2.948-.313,3.131.574-1.226,1.018-1.226,1.018.412.8-.757,1.461a1.08,1.08,0,0,1-.548,1.2,1.207,1.207,0,0,1-.792,1.252c-.878.261-3.617,1.055-8.992-2.206Z" transform="translate(-145.924 -214.951)" fill="#fba691"/>
          <g id="Group_134" data-name="Group 134">
            <g id="Group_133" data-name="Group 133">
              <g id="Group_132" data-name="Group 132">
                <g id="Group_131" data-name="Group 131">
                  <path id="Path_110" data-name="Path 110" d="M125.222,192.149c2.029,7.668,4.019,11.058,4.019,11.058a28.352,28.352,0,0,0,6.955,6.77,91.239,91.239,0,0,0,8.472,4.988c-.9,1.171-1.537,3.486-1.189,4.179-10.856,0-20.35-10.285-20.35-10.285-7.6-13.219-8.091-23.984-7.967-27.906a7.486,7.486,0,0,1,1.206-3.887,3.887,3.887,0,0,1,1.46-1.418,7.911,7.911,0,0,1,4.388,5.034C123.348,184.5,125.222,192.149,125.222,192.149Z" transform="translate(-115.148 -175.648)" fill="#818181"/>
                </g>
              </g>
            </g>
          </g>
        </g>
        <path id="Path_111" data-name="Path 111" d="M231.132,211.5s-2.415-.854-3.525-.392,1.966,2.127,1.966,2.127-3.728-1.984-4.372-1.185,2.923,2.831,2.923,2.831-2.731-.96-3.285-.4,1.991,2.155,1.991,2.155-2.241-.541-2.709-.161,1.519,1.977,2.78,2.4,1.465-1.353,1.465-1.353,1.186-1.045,1.028-1.77c0,0,1.231-.83,1.318-1.678C230.711,214.074,232.448,212.545,231.132,211.5Z" transform="translate(-165.443 -161.445)" fill="#fba691"/>
      </g>
    </g>
  </g>
</svg>
