<svg id="XMLID_2_" xmlns="http://www.w3.org/2000/svg" width="24" height="26.965" viewBox="0 0 24 26.965">
  <g id="Group_42430" data-name="Group 42430">
    <g id="Group_42429" data-name="Group 42429">
      <path id="Path_27616" data-name="Path 27616" d="M44.885,281.3a5.864,5.864,0,0,1-4.747,2.422H37.4a2.185,2.185,0,0,1-2.054-1.439,6.934,6.934,0,0,1-1.1-.437,7.439,7.439,0,0,1-2.063-1.527,8.809,8.809,0,0,0-6.908,8.6v.551a1.37,1.37,0,0,0,1.37,1.37H47.9a1.37,1.37,0,0,0,1.37-1.37v-.551A8.8,8.8,0,0,0,44.885,281.3Z" transform="translate(-25.274 -263.879)" fill="#1c6dd0"/>
      <path id="Path_27617" data-name="Path 27617" d="M93.168,13.62a1.56,1.56,0,0,0,1.367-.808l.021.057.006.017A6.09,6.09,0,0,0,98,16.5a2.182,2.182,0,0,1,1.85-1.023h2.735a1.531,1.531,0,0,0,.749-.2,3.091,3.091,0,0,0,.884-1.02,7.886,7.886,0,0,0,.684-1.446,1.568,1.568,0,0,0,.431.5v.671a2.751,2.751,0,0,1-2.748,2.748H99.846a.936.936,0,1,0,0,1.872h2.735a4.626,4.626,0,0,0,4.62-4.62v-.671a1.558,1.558,0,0,0,.624-1.248V8.155a1.558,1.558,0,0,0-.648-1.265,7.485,7.485,0,0,0-14.922,0,1.558,1.558,0,0,0-.648,1.265V12.06A1.561,1.561,0,0,0,93.168,13.62ZM99.717,1.872A5.62,5.62,0,0,1,105.3,6.928a1.566,1.566,0,0,0-.438.542,5.341,5.341,0,0,0-10.289-.009l0,.009a1.566,1.566,0,0,0-.438-.542A5.62,5.62,0,0,1,99.717,1.872Z" transform="translate(-87.717)" fill="#1c6dd0"/>
    </g>
  </g>
</svg>
