<svg xmlns="http://www.w3.org/2000/svg" width="23.127" height="25.741" viewBox="0 0 23.127 25.741">
  <path id="Path_27488" data-name="Path 27488" d="M44.332,18.283l-2.39-.8-.858-1.716a5.506,5.506,0,0,0,1.49-2.913l.107-.641H43.6A1.51,1.51,0,0,0,45.1,10.709V7.541a7.541,7.541,0,1,0-15.083,0v3.167a1.511,1.511,0,0,0,1.006,1.422v.589a1.51,1.51,0,0,0,1.508,1.508h.442a5.454,5.454,0,0,0,.843,1.306c.071.082.145.161.222.238l-.857,1.715-2.39.8A7.41,7.41,0,0,0,26,25.238a.5.5,0,0,0,.5.5H48.624a.5.5,0,0,0,.5-.5A7.41,7.41,0,0,0,44.332,18.283ZM44.1,10.709a.5.5,0,0,1-.5.5h-.767c.128-.99.213-2.043.247-3.081,0-.029,0-.058,0-.086H44.1Zm-12.569.5a.5.5,0,0,1-.5-.5V8.044h1.021q0,.079.005.158v.005h0c.035,1.009.119,2.035.244,3H31.53Zm1.006,2.011a.5.5,0,0,1-.5-.5v-.5h.412l.107.641c.02.122.045.243.075.364Zm-.5-6.184h-.987a6.536,6.536,0,0,1,13.033,0h-.987a5.092,5.092,0,0,0-5.08-5.028h-.9A5.092,5.092,0,0,0,32.034,7.039Zm5.08-4.022h.9A4.088,4.088,0,0,1,42.088,7.11c0,.158,0,.3,0,.421,0,0,0,0,0,0l-.629-.09a8.079,8.079,0,0,1-4.542-2.271.5.5,0,0,0-.355-.147,4.548,4.548,0,0,0-3.5,1.654A4.087,4.087,0,0,1,37.113,3.017ZM33.669,13.223a28.737,28.737,0,0,1-.6-4.879l.677-.9a3.539,3.539,0,0,1,2.617-1.4,9.094,9.094,0,0,0,4.954,2.4l.74.106c-.049,1.05-.151,2.1-.3,3.073h0c-.046.312-.082.512-.175,1.072a4.27,4.27,0,0,1-3.031,3.434,3.956,3.956,0,0,1-4.441-1.9h1.025a1.511,1.511,0,0,0,1.422,1.006h1.006a1.508,1.508,0,1,0,0-3.017H36.558a1.509,1.509,0,0,0-1.423,1.006Zm2.847,3.922a5.043,5.043,0,0,0,1.87.042l-.888.94Zm.29,1.713-1.595,1.686a19.156,19.156,0,0,1-1.126-2.61l.6-1.2Zm3.551-2.292.684,1.368a19.151,19.151,0,0,1-1.126,2.611l-1.707-1.707Zm-4.3-2.84a.5.5,0,0,1,.5-.5h1.006a.5.5,0,0,1,0,1.006H36.558A.5.5,0,0,1,36.055,13.725Zm-9.03,11.01a6.354,6.354,0,0,1,4.088-5.5l2.116-.705a20.154,20.154,0,0,0,1.431,3.1l0,.005h0a20.16,20.16,0,0,0,1.376,2.1l.618.993Zm10.538-.448-.682-1.095q-.011-.018-.024-.036a19.169,19.169,0,0,1-1.133-1.692l1.793-1.9,1.889,1.889a19.148,19.148,0,0,1-1.137,1.7C38.245,23.19,38.28,23.138,37.563,24.288Zm.905.448.618-.993a20.152,20.152,0,0,0,1.386-2.118l.007-.013v0A20.138,20.138,0,0,0,41.9,18.532l2.116.705a6.354,6.354,0,0,1,4.088,5.5Z" transform="translate(-26)" fill="#fff"/>
</svg>
