<?xml version="1.0" encoding="utf-8"?>
<!-- Generator: Adobe Illustrator 25.2.1, SVG Export Plug-In . SVG Version: 6.00 Build 0)  -->
<svg version="1.1" id="Layer_1" xmlns="http://www.w3.org/2000/svg" xmlns:xlink="http://www.w3.org/1999/xlink" x="0px" y="0px"
	 viewBox="0 0 1000 1000" style="enable-background:new 0 0 1000 1000;" xml:space="preserve">
<style type="text/css">
	.st0{fill:#4286F5;}
	.st1{fill:#FFFFFF;}
	.st2{fill:#EFEFEF;}
</style>
<g>
	<rect class="st0" width="1000" height="1000"/>
	<path class="st1" d="M574.48,126.79c-81.67-30.32-177.1-12.67-242.73,52.95s-83.27,161.06-52.95,242.73L574.48,126.79z"/>
	<g>
		<path class="st1" d="M735.52,342.39c-0.12,4.11-0.14,8.23,0.05,12.34c-0.02,8.22-1.29,16.29-3.13,24.28
			c-3.45,14.97-9.28,29.07-15.81,42.73c-32.68-32.68-65.37-65.37-98.18-98.18c-12.81,12.93-25.83,25.85-38.38,38.52
			c-26.34-26.46-52.02-53.19-78.21-79.5c42.91-42.91,85.73-85.73,128.69-128.69c1.46,0.98,3.05,2.01,4.61,3.09
			c31.66,21.81,55.92,50.16,73.93,83.96c11.46,21.51,19.16,44.34,23.23,68.37C734.17,320.25,735.35,331.28,735.52,342.39z"/>
		<path class="st1" d="M308.67,473.76l1.11-1.05l109.4-109.56c0,0,53.18,53.37,79.63,79.92c-12.17,12.38-24.65,25.07-37.15,37.78
			c40.39,40.39,80.69,80.69,121.14,121.14c-26.62,27.91-54.7,53.86-83.35,79.34c-2.13-1.09-4.02-2.42-5.89-3.79
			c-8.86-6.46-17-13.77-25.04-21.2c-9.92-9.16-19.57-18.6-29.02-28.23c-25.27-25.74-49.71-52.25-73.27-79.56
			c-14.75-17.09-29.21-34.42-42.68-52.55c-5.07-6.83-9.98-13.77-14.27-21.13C309.11,474.61,308.67,473.76,308.67,473.76z"/>
		<path class="st1" d="M419.18,363.15l82.67-80.57c2.44,2.46,9.53,9.62,11.97,12.08c58.51,59.09,116.81,118.38,174.92,177.88
			c-10.54,15.8-22.44,32.38-35.86,49.41c-11.72,14.87-23.38,28.53-34.7,41C551.84,496.35,485.51,429.75,419.18,363.15z"/>
	</g>
</g>
<g>
	<path class="st1" d="M238.09,747.1h43.5v12.27h-30.57v15.91h27.5v12.27h-27.5v15.91h30.57v12.27h-43.5V747.1z"/>
	<path class="st1" d="M302.15,813.6c-3.67-2.43-6.24-5.59-7.71-9.49l11.21-4.89c1.02,2.3,2.48,4.04,4.36,5.22
		c1.88,1.18,4.07,1.77,6.56,1.77c2.3,0,4.22-0.37,5.75-1.1c1.53-0.73,2.3-1.93,2.3-3.59c0-1.6-0.7-2.79-2.11-3.59
		c-1.41-0.8-3.51-1.52-6.32-2.16l-5.75-1.25c-3.96-0.96-7.25-2.7-9.87-5.22c-2.62-2.52-3.93-5.67-3.93-9.44
		c0-2.81,0.85-5.33,2.54-7.57c1.69-2.24,3.99-3.96,6.9-5.17c2.91-1.21,6.12-1.82,9.63-1.82c10.09,0,16.83,3.54,20.22,10.64
		l-10.73,4.7c-1.92-3.45-4.98-5.17-9.2-5.17c-2.17,0-3.9,0.4-5.17,1.2c-1.28,0.8-1.92,1.81-1.92,3.02c0,2.3,2.17,4.02,6.52,5.17
		l7.19,1.72c4.85,1.21,8.51,3.07,10.97,5.56c2.46,2.49,3.69,5.56,3.69,9.2c0,3.13-0.91,5.89-2.73,8.29
		c-1.82,2.4-4.31,4.26-7.47,5.61c-3.16,1.34-6.66,2.01-10.49,2.01C310.63,817.24,305.82,816.03,302.15,813.6z"/>
	<path class="st1" d="M365.72,815.38c-2.05-0.73-3.71-1.74-4.98-3.02c-3-2.88-4.5-6.96-4.5-12.27v-22.52h-8.53v-10.73h8.53v-13.8
		h12.55v13.8h11.98v10.73h-11.98v20.22c0,2.49,0.54,4.28,1.63,5.37c0.89,1.02,2.43,1.53,4.6,1.53c1.21,0,2.22-0.16,3.02-0.48
		c0.8-0.32,1.84-0.86,3.11-1.63v12.27c-2.75,1.08-5.65,1.63-8.72,1.63C370,816.48,367.77,816.11,365.72,815.38z"/>
	<path class="st1" d="M398.21,812.69c-3.32-3.03-4.98-7.01-4.98-11.93c0-3.26,0.86-6.13,2.59-8.62c1.73-2.49,4.09-4.41,7.09-5.75
		c3-1.34,6.32-2.01,9.97-2.01c5.05,0,9.36,0.74,12.94,2.2v-2.11c0-2.68-1.01-4.85-3.02-6.52c-2.01-1.66-4.71-2.49-8.1-2.49
		c-2.3,0-4.52,0.53-6.66,1.58c-2.14,1.05-3.91,2.44-5.32,4.17l-8.05-6.32c2.36-3.07,5.33-5.43,8.91-7.09
		c3.58-1.66,7.47-2.49,11.69-2.49c7.47,0,13.16,1.72,17.06,5.17c3.9,3.45,5.85,8.5,5.85,15.14v30.09H425.8v-4.98h-0.77
		c-1.47,1.92-3.4,3.48-5.8,4.7c-2.4,1.21-5.16,1.82-8.29,1.82C405.78,817.24,401.53,815.72,398.21,812.69z M422.59,803.97
		c2.14-2.33,3.21-5.06,3.21-8.19c-3.26-1.53-6.68-2.3-10.25-2.3c-6.52,0-9.77,2.43-9.77,7.28c0,1.98,0.7,3.59,2.11,4.84
		c1.4,1.25,3.42,1.87,6.04,1.87C417.56,807.47,420.45,806.3,422.59,803.97z"/>
	<path class="st1" d="M469.12,815.38c-2.05-0.73-3.71-1.74-4.98-3.02c-3-2.88-4.5-6.96-4.5-12.27v-22.52h-8.53v-10.73h8.53v-13.8
		h12.55v13.8h11.98v10.73h-11.98v20.22c0,2.49,0.54,4.28,1.63,5.37c0.89,1.02,2.43,1.53,4.6,1.53c1.21,0,2.22-0.16,3.02-0.48
		c0.8-0.32,1.84-0.86,3.11-1.63v12.27c-2.75,1.08-5.65,1.63-8.72,1.63C473.39,816.48,471.16,816.11,469.12,815.38z"/>
	<path class="st1" d="M509.17,813.89c-3.9-2.24-6.95-5.32-9.15-9.25c-2.2-3.93-3.31-8.35-3.31-13.27c0-4.66,1.09-8.99,3.26-12.98
		c2.17-3.99,5.17-7.17,9.01-9.53c3.83-2.36,8.11-3.54,12.84-3.54c5.04,0,9.39,1.09,13.03,3.26c3.64,2.17,6.4,5.14,8.29,8.91
		c1.88,3.77,2.83,7.95,2.83,12.55c0,1.47-0.1,2.88-0.29,4.22h-36.7c0.64,3.9,2.19,6.85,4.65,8.86c2.46,2.01,5.41,3.02,8.86,3.02
		c2.88,0,5.35-0.62,7.43-1.87c2.08-1.25,3.72-2.92,4.93-5.03l10.16,4.98c-4.98,8.69-12.55,13.03-22.71,13.03
		C517.44,817.24,513.07,816.12,509.17,813.89z M533.89,785.33c-0.13-1.53-0.69-3.05-1.68-4.55c-0.99-1.5-2.36-2.75-4.12-3.74
		c-1.76-0.99-3.82-1.49-6.18-1.49c-3,0-5.57,0.88-7.71,2.63c-2.14,1.76-3.69,4.14-4.65,7.14H533.89z"/>
	<path class="st1" d="M582.9,812.6c-5.53-3.1-9.92-7.38-13.18-12.84s-4.89-11.58-4.89-18.35c0-6.77,1.63-12.89,4.89-18.35
		s7.65-9.74,13.18-12.84c5.52-3.1,11.58-4.65,18.16-4.65c5.37,0,10.27,0.94,14.71,2.83c4.44,1.88,8.26,4.55,11.45,8l-8.91,8.72
		c-2.3-2.43-4.84-4.25-7.62-5.46c-2.78-1.21-6.02-1.82-9.73-1.82c-4.22,0-8.08,0.97-11.59,2.92c-3.51,1.95-6.31,4.73-8.38,8.34
		c-2.08,3.61-3.11,7.71-3.11,12.31s1.05,8.71,3.16,12.31c2.11,3.61,4.94,6.39,8.48,8.34c3.55,1.95,7.43,2.92,11.64,2.92
		c6.39,0,11.63-1.88,15.71-5.65c1.28-1.15,2.4-2.62,3.35-4.41c0.96-1.79,1.66-3.74,2.11-5.84h-21.56v-11.02h33.63
		c0.45,1.79,0.67,3.8,0.67,6.04c0,4.54-0.69,8.75-2.06,12.65c-1.38,3.9-3.47,7.32-6.28,10.25c-3.07,3.32-6.77,5.86-11.12,7.62
		c-4.35,1.76-9.2,2.63-14.57,2.63C594.48,817.24,588.43,815.7,582.9,812.6z"/>
	<path class="st1" d="M652.23,747.1h24.15c4.34,0,8.3,0.91,11.88,2.73c3.58,1.82,6.39,4.38,8.43,7.67
		c2.04,3.29,3.07,7.04,3.07,11.26s-1.02,7.99-3.07,11.31c-2.04,3.32-4.86,5.89-8.43,7.71c-3.58,1.82-7.54,2.73-11.88,2.73h-11.21
		v25.2h-12.94V747.1z M676.76,778.24c3.19,0,5.7-0.92,7.52-2.78c1.82-1.85,2.73-4.09,2.73-6.71c0-2.62-0.91-4.84-2.73-6.66
		c-1.82-1.82-4.33-2.73-7.52-2.73h-11.59v18.88H676.76z"/>
	<path class="st1" d="M720.26,812.16c-4.6-3.38-7.83-8.18-9.68-14.37l12.17-4.79c0.96,3.64,2.59,6.55,4.89,8.72
		c2.3,2.17,5.17,3.26,8.62,3.26c2.87,0,5.33-0.72,7.38-2.16c2.04-1.44,3.07-3.43,3.07-5.99c0-2.55-0.97-4.65-2.92-6.28
		c-1.95-1.63-5.41-3.37-10.4-5.22l-4.22-1.53c-4.41-1.53-8.18-3.88-11.31-7.04c-3.13-3.16-4.7-7.14-4.7-11.93
		c0-3.58,0.93-6.83,2.78-9.77c1.85-2.94,4.47-5.25,7.86-6.95c3.38-1.69,7.22-2.54,11.5-2.54c6.2,0,11.08,1.45,14.66,4.36
		c3.58,2.91,6.04,6.31,7.38,10.21l-11.4,4.79c-0.7-2.11-1.93-3.88-3.69-5.32c-1.76-1.44-4.01-2.16-6.75-2.16
		c-2.81,0-5.13,0.66-6.95,1.96c-1.82,1.31-2.73,3.02-2.73,5.13c0,2.04,0.86,3.78,2.59,5.22c1.72,1.44,4.57,2.83,8.53,4.17l4.31,1.44
		c5.94,2.05,10.49,4.74,13.66,8.1c3.16,3.35,4.74,7.75,4.74,13.18c0,4.47-1.15,8.26-3.45,11.35c-2.3,3.1-5.25,5.41-8.86,6.95
		c-3.61,1.53-7.33,2.3-11.16,2.3C730.16,817.24,724.86,815.55,720.26,812.16z"/>
</g>
<g>
	<path class="st2" d="M263.64,852.81h9.66c1.57,0,3.03,0.36,4.39,1.08s2.44,1.72,3.25,3.01c0.81,1.29,1.22,2.75,1.22,4.37
		c0,1.33-0.3,2.57-0.9,3.71c-0.6,1.14-1.42,2.1-2.48,2.87c-1.05,0.77-2.22,1.29-3.49,1.56l-0.08,0.12l8.07,11.7v0.16h-3.99
		l-7.79-11.66h-4.51v11.66h-3.35V852.81z M273.1,866.58c0.98,0,1.91-0.23,2.77-0.68c0.86-0.45,1.56-1.08,2.08-1.9
		c0.52-0.81,0.78-1.72,0.78-2.74c0-0.88-0.23-1.72-0.68-2.51c-0.45-0.8-1.08-1.45-1.9-1.96c-0.81-0.5-1.75-0.76-2.81-0.76h-6.35
		v10.54H273.1z"/>
	<path class="st2" d="M294.18,880.64c-1.54-0.93-2.75-2.22-3.61-3.85c-0.87-1.64-1.3-3.48-1.3-5.53c0-1.97,0.41-3.78,1.22-5.43
		c0.81-1.65,1.96-2.97,3.45-3.95c1.49-0.99,3.22-1.48,5.19-1.48c2,0,3.73,0.45,5.19,1.34c1.46,0.89,2.59,2.12,3.37,3.69
		c0.78,1.57,1.18,3.37,1.18,5.39c0,0.4-0.04,0.75-0.12,1.04h-16.09c0.08,1.54,0.45,2.85,1.12,3.91c0.67,1.07,1.51,1.86,2.54,2.4
		c1.02,0.53,2.1,0.8,3.21,0.8c2.61,0,4.62-1.22,6.03-3.67l2.88,1.4c-0.88,1.65-2.07,2.95-3.57,3.91c-1.5,0.96-3.32,1.44-5.45,1.44
		C297.47,882.04,295.72,881.57,294.18,880.64z M305.28,869.06c-0.05-0.85-0.29-1.7-0.72-2.56c-0.43-0.85-1.1-1.57-2.02-2.16
		c-0.92-0.58-2.07-0.88-3.45-0.88c-1.6,0-2.95,0.51-4.05,1.54c-1.1,1.03-1.83,2.38-2.18,4.05H305.28z"/>
	<path class="st2" d="M318.45,880.5c-1.46-1.02-2.5-2.34-3.11-3.93l3.03-1.36c0.51,1.22,1.26,2.17,2.26,2.83c1,0.67,2.1,1,3.29,1
		c1.28,0,2.37-0.26,3.27-0.78c0.9-0.52,1.36-1.26,1.36-2.22c0-0.85-0.36-1.54-1.08-2.06c-0.72-0.52-1.85-0.96-3.39-1.34l-2.48-0.64
		c-1.62-0.4-2.95-1.08-3.99-2.04s-1.56-2.2-1.56-3.71c0-1.17,0.35-2.2,1.06-3.09c0.7-0.89,1.64-1.58,2.81-2.06
		c1.17-0.48,2.44-0.72,3.79-0.72c1.78,0,3.37,0.39,4.77,1.16c1.4,0.77,2.39,1.85,2.97,3.23l-2.95,1.36
		c-0.91-1.81-2.52-2.71-4.83-2.71c-1.12,0-2.1,0.26-2.93,0.78c-0.84,0.52-1.26,1.18-1.26,1.98c0,0.75,0.29,1.35,0.88,1.82
		c0.58,0.47,1.46,0.85,2.64,1.14l2.95,0.76c2,0.51,3.5,1.26,4.51,2.26c1.01,1,1.52,2.22,1.52,3.65c0,1.25-0.36,2.35-1.08,3.29
		c-0.72,0.95-1.69,1.67-2.91,2.18c-1.22,0.51-2.58,0.76-4.07,0.76C321.74,882.04,319.92,881.52,318.45,880.5z"/>
	<path class="st2" d="M341.47,879.88c-1.29-1.44-1.94-3.45-1.94-6.03v-12.82h3.39v12.3c0,1.94,0.44,3.37,1.32,4.27
		c0.88,0.91,2.06,1.36,3.55,1.36c1.14,0,2.16-0.31,3.05-0.92c0.89-0.61,1.58-1.41,2.08-2.4c0.49-0.98,0.74-2.02,0.74-3.11v-11.5
		h3.39v20.36h-3.23v-2.95h-0.16c-0.56,1.01-1.45,1.86-2.68,2.55c-1.22,0.69-2.53,1.04-3.91,1.04
		C344.63,882.04,342.76,881.32,341.47,879.88z"/>
	<path class="st2" d="M366.08,852.81h3.39v28.59h-3.39V852.81z"/>
	<path class="st2" d="M384.03,881.32c-0.71-0.27-1.3-0.62-1.78-1.08c-0.53-0.5-0.93-1.09-1.2-1.76c-0.27-0.67-0.4-1.48-0.4-2.44
		v-11.94h-3.55v-3.07h3.55v-5.75h3.39v5.75H389v3.07h-4.95v11.1c0,1.12,0.21,1.94,0.64,2.48c0.5,0.59,1.24,0.88,2.2,0.88
		c0.77,0,1.52-0.23,2.24-0.68v3.31c-0.4,0.19-0.81,0.32-1.22,0.4c-0.41,0.08-0.94,0.12-1.58,0.12
		C385.5,881.72,384.74,881.58,384.03,881.32z"/>
	<path class="st2" d="M398.74,880.5c-1.46-1.02-2.5-2.34-3.11-3.93l3.03-1.36c0.51,1.22,1.26,2.17,2.26,2.83c1,0.67,2.1,1,3.29,1
		c1.28,0,2.37-0.26,3.27-0.78c0.9-0.52,1.36-1.26,1.36-2.22c0-0.85-0.36-1.54-1.08-2.06c-0.72-0.52-1.85-0.96-3.39-1.34l-2.48-0.64
		c-1.62-0.4-2.95-1.08-3.99-2.04s-1.56-2.2-1.56-3.71c0-1.17,0.35-2.2,1.06-3.09c0.7-0.89,1.64-1.58,2.81-2.06
		c1.17-0.48,2.44-0.72,3.79-0.72c1.78,0,3.37,0.39,4.77,1.16c1.4,0.77,2.39,1.85,2.97,3.23l-2.95,1.36
		c-0.91-1.81-2.52-2.71-4.83-2.71c-1.12,0-2.1,0.26-2.93,0.78c-0.84,0.52-1.26,1.18-1.26,1.98c0,0.75,0.29,1.35,0.88,1.82
		c0.58,0.47,1.46,0.85,2.64,1.14l2.95,0.76c2,0.51,3.5,1.26,4.51,2.26c1.01,1,1.52,2.22,1.52,3.65c0,1.25-0.36,2.35-1.08,3.29
		c-0.72,0.95-1.69,1.67-2.91,2.18c-1.22,0.51-2.58,0.76-4.07,0.76C402.03,882.04,400.21,881.52,398.74,880.5z"/>
	<path class="st2" d="M438.77,881.32c-0.71-0.27-1.3-0.62-1.78-1.08c-0.53-0.5-0.93-1.09-1.2-1.76c-0.27-0.67-0.4-1.48-0.4-2.44
		v-11.94h-3.55v-3.07h3.55v-5.75h3.39v5.75h4.95v3.07h-4.95v11.1c0,1.12,0.21,1.94,0.64,2.48c0.5,0.59,1.24,0.88,2.2,0.88
		c0.77,0,1.52-0.23,2.24-0.68v3.31c-0.4,0.19-0.81,0.32-1.22,0.4c-0.41,0.08-0.94,0.12-1.58,0.12
		C440.24,881.72,439.47,881.58,438.77,881.32z"/>
	<path class="st2" d="M451.85,852.81h3.39v8.42l-0.16,2.79h0.16c0.56-1.04,1.44-1.9,2.65-2.59c1.21-0.69,2.54-1.04,3.97-1.04
		c2.48,0,4.37,0.73,5.67,2.18c1.3,1.45,1.96,3.37,1.96,5.77v13.06h-3.39v-12.54c0-1.84-0.47-3.19-1.4-4.07
		c-0.93-0.88-2.14-1.32-3.63-1.32c-1.06,0-2.04,0.32-2.93,0.96c-0.89,0.64-1.6,1.46-2.12,2.48s-0.78,2.06-0.78,3.15v11.34h-3.39
		V852.81z"/>
	<path class="st2" d="M480.87,881.16c-1.17-0.59-2.08-1.39-2.71-2.42c-0.64-1.02-0.96-2.19-0.96-3.49c0-2.16,0.81-3.84,2.44-5.05
		c1.62-1.21,3.67-1.82,6.15-1.82c1.22,0,2.36,0.13,3.41,0.4c1.05,0.27,1.86,0.57,2.42,0.92v-1.24c0-1.52-0.53-2.73-1.6-3.65
		c-1.06-0.92-2.41-1.38-4.03-1.38c-1.14,0-2.2,0.25-3.15,0.74c-0.96,0.49-1.72,1.18-2.28,2.06l-2.56-1.92
		c0.8-1.22,1.9-2.18,3.29-2.87c1.4-0.69,2.95-1.04,4.65-1.04c2.77,0,4.94,0.73,6.53,2.18c1.58,1.45,2.38,3.43,2.38,5.93v12.9h-3.23
		v-2.92h-0.16c-0.59,0.99-1.46,1.82-2.64,2.52c-1.17,0.69-2.49,1.04-3.95,1.04C483.37,882.04,482.04,881.74,480.87,881.16z
		 M488.38,878.16c0.98-0.58,1.77-1.37,2.36-2.36c0.58-0.98,0.88-2.06,0.88-3.23c-0.64-0.43-1.42-0.77-2.36-1.04
		c-0.93-0.27-1.92-0.4-2.95-0.4c-1.86,0-3.27,0.39-4.21,1.16c-0.95,0.77-1.42,1.77-1.42,3c0,1.12,0.43,2.02,1.28,2.71
		c0.85,0.69,1.93,1.04,3.23,1.04C486.33,879.04,487.39,878.75,488.38,878.16z"/>
	<path class="st2" d="M509.08,881.32c-0.71-0.27-1.3-0.62-1.78-1.08c-0.53-0.5-0.93-1.09-1.2-1.76c-0.27-0.67-0.4-1.48-0.4-2.44
		v-11.94h-3.55v-3.07h3.55v-5.75h3.39v5.75h4.95v3.07h-4.95v11.1c0,1.12,0.21,1.94,0.64,2.48c0.5,0.59,1.24,0.88,2.2,0.88
		c0.77,0,1.52-0.23,2.24-0.68v3.31c-0.4,0.19-0.81,0.32-1.22,0.4c-0.41,0.08-0.94,0.12-1.58,0.12
		C510.55,881.72,509.78,881.58,509.08,881.32z"/>
	<path class="st2" d="M535.41,861.03h3.23v2.99h0.16c0.58-1.04,1.46-1.9,2.63-2.59s2.41-1.04,3.71-1.04c1.49,0,2.79,0.36,3.89,1.08
		c1.1,0.72,1.9,1.68,2.38,2.87c0.72-1.2,1.67-2.16,2.86-2.87c1.18-0.72,2.56-1.08,4.13-1.08c2.34,0,4.11,0.71,5.29,2.14
		c1.18,1.42,1.78,3.36,1.78,5.81v13.06h-3.35v-12.54c0-1.89-0.39-3.26-1.16-4.11c-0.77-0.85-1.92-1.28-3.43-1.28
		c-1.01,0-1.93,0.29-2.75,0.88c-0.83,0.59-1.47,1.37-1.94,2.36c-0.47,0.98-0.7,2.05-0.7,3.19v11.5h-3.39v-12.5
		c0-1.92-0.39-3.3-1.16-4.15c-0.77-0.85-1.9-1.28-3.39-1.28c-1.01,0-1.93,0.3-2.75,0.9s-1.47,1.4-1.94,2.4s-0.7,2.07-0.7,3.21v11.42
		h-3.39V861.03z"/>
	<path class="st2" d="M578.33,880.6c-1.6-0.96-2.84-2.26-3.73-3.91s-1.34-3.47-1.34-5.47c0-2,0.45-3.82,1.34-5.47
		c0.89-1.65,2.14-2.95,3.73-3.91c1.6-0.96,3.39-1.44,5.39-1.44c2,0,3.79,0.48,5.39,1.44c1.6,0.96,2.84,2.26,3.73,3.91
		c0.89,1.65,1.34,3.47,1.34,5.47c0,2-0.45,3.82-1.34,5.47c-0.89,1.65-2.14,2.95-3.73,3.91c-1.6,0.96-3.39,1.44-5.39,1.44
		C581.72,882.04,579.93,881.56,578.33,880.6z M587.21,878.02c1.08-0.62,1.94-1.52,2.59-2.69s0.98-2.54,0.98-4.11
		c0-1.57-0.33-2.94-0.98-4.11c-0.65-1.17-1.52-2.07-2.59-2.69s-2.24-0.94-3.49-0.94c-1.25,0-2.42,0.31-3.51,0.94
		c-1.09,0.62-1.96,1.52-2.62,2.69c-0.65,1.17-0.98,2.54-0.98,4.11c0,1.57,0.33,2.94,0.98,4.11c0.65,1.17,1.52,2.07,2.62,2.69
		c1.09,0.63,2.26,0.94,3.51,0.94C584.97,878.96,586.14,878.65,587.21,878.02z"/>
	<path class="st2" d="M599.89,861.03h3.63l6.31,16.37h0.08l6.39-16.37h3.55l-8.3,20.36h-3.43L599.89,861.03z"/>
	<path class="st2" d="M630.47,880.64c-1.54-0.93-2.75-2.22-3.61-3.85c-0.87-1.64-1.3-3.48-1.3-5.53c0-1.97,0.41-3.78,1.22-5.43
		c0.81-1.65,1.96-2.97,3.45-3.95c1.49-0.99,3.22-1.48,5.19-1.48c2,0,3.73,0.45,5.19,1.34c1.46,0.89,2.59,2.12,3.37,3.69
		c0.79,1.57,1.18,3.37,1.18,5.39c0,0.4-0.04,0.75-0.12,1.04h-16.09c0.08,1.54,0.45,2.85,1.12,3.91c0.67,1.07,1.51,1.86,2.54,2.4
		c1.02,0.53,2.1,0.8,3.21,0.8c2.61,0,4.62-1.22,6.03-3.67l2.87,1.4c-0.88,1.65-2.07,2.95-3.57,3.91c-1.5,0.96-3.32,1.44-5.45,1.44
		C633.76,882.04,632.02,881.57,630.47,880.64z M641.57,869.06c-0.05-0.85-0.29-1.7-0.72-2.56c-0.43-0.85-1.1-1.57-2.02-2.16
		c-0.92-0.58-2.07-0.88-3.45-0.88c-1.6,0-2.95,0.51-4.05,1.54c-1.11,1.03-1.83,2.38-2.18,4.05H641.57z"/>
	<path class="st2" d="M672.59,880.12l-8.42-19.08h3.67l6.39,15.13h0.08l6.15-15.13h3.67l-12.58,28.99h-3.51L672.59,880.12z"/>
	<path class="st2" d="M694.95,880.6c-1.6-0.96-2.84-2.26-3.73-3.91s-1.34-3.47-1.34-5.47c0-2,0.45-3.82,1.34-5.47
		c0.89-1.65,2.14-2.95,3.73-3.91c1.6-0.96,3.39-1.44,5.39-1.44c2,0,3.79,0.48,5.39,1.44c1.6,0.96,2.84,2.26,3.73,3.91
		c0.89,1.65,1.34,3.47,1.34,5.47c0,2-0.45,3.82-1.34,5.47c-0.89,1.65-2.14,2.95-3.73,3.91c-1.6,0.96-3.39,1.44-5.39,1.44
		C698.35,882.04,696.55,881.56,694.95,880.6z M703.84,878.02c1.08-0.62,1.94-1.52,2.59-2.69s0.98-2.54,0.98-4.11
		c0-1.57-0.33-2.94-0.98-4.11c-0.65-1.17-1.52-2.07-2.59-2.69s-2.24-0.94-3.49-0.94c-1.25,0-2.42,0.31-3.51,0.94
		c-1.09,0.62-1.96,1.52-2.62,2.69c-0.65,1.17-0.98,2.54-0.98,4.11c0,1.57,0.33,2.94,0.98,4.11c0.65,1.17,1.52,2.07,2.62,2.69
		c1.09,0.63,2.26,0.94,3.51,0.94C701.59,878.96,702.76,878.65,703.84,878.02z"/>
	<path class="st2" d="M720.53,879.88c-1.29-1.44-1.94-3.45-1.94-6.03v-12.82h3.39v12.3c0,1.94,0.44,3.37,1.32,4.27
		c0.88,0.91,2.06,1.36,3.55,1.36c1.14,0,2.16-0.31,3.05-0.92c0.89-0.61,1.58-1.41,2.08-2.4c0.49-0.98,0.74-2.02,0.74-3.11v-11.5
		h3.39v20.36h-3.23v-2.95h-0.16c-0.56,1.01-1.45,1.86-2.67,2.55c-1.22,0.69-2.53,1.04-3.91,1.04
		C723.69,882.04,721.82,881.32,720.53,879.88z"/>
</g>
</svg>
