<svg xmlns="http://www.w3.org/2000/svg" width="13.253" height="9.219" viewBox="0 0 13.253 9.219">
  <g id="view-svgrepo-com" transform="translate(-0.996 -5)">
    <path id="Path_358" data-name="Path 358" d="M14.209,9.339A7.714,7.714,0,0,0,7.623,5,7.683,7.683,0,0,0,1.035,9.4a.576.576,0,0,0,0,.415,7.661,7.661,0,0,0,6.589,4.4A7.675,7.675,0,0,0,14.2,9.88a.576.576,0,0,0,.052-.213V9.552A.576.576,0,0,0,14.209,9.339Z" transform="translate(0)" fill="#e7e9e9"/>
    <circle id="Ellipse_166" data-name="Ellipse 166" cx="1.918" cy="1.918" r="1.918" transform="translate(5.879 7.866)" fill="#231f20"/>
    <path id="Path_359" data-name="Path 359" d="M18.139,18.278a3.139,3.139,0,1,1,3.139-3.139A3.139,3.139,0,0,1,18.139,18.278Zm0-4.883a1.744,1.744,0,1,0,1.744,1.744A1.744,1.744,0,0,0,18.139,13.4Z" transform="translate(-10.516 -5.377)" fill="#2699fb"/>
    <circle id="Ellipse_167" data-name="Ellipse 167" cx="0.698" cy="0.698" r="0.698" transform="translate(5.796 8.074)" fill="#fff"/>
  </g>
</svg>
