<svg xmlns="http://www.w3.org/2000/svg" width="252.828" height="186.44" viewBox="0 0 252.828 186.44">
  <g id="Online_transactions-rafiki" data-name="Online transactions-rafiki" transform="translate(0 -55)">
    <g id="freepik--background-complete--inject-13" transform="translate(0 55)">
      <rect id="Rectangle_17422" data-name="Rectangle 17422" width="16.747" height="0.126" transform="translate(210.747 173.688)" fill="#ebebeb"/>
      <rect id="Rectangle_17423" data-name="Rectangle 17423" width="4.394" height="0.126" transform="translate(163.089 175.063)" fill="#ebebeb"/>
      <rect id="Rectangle_17424" data-name="Rectangle 17424" width="9.704" height="0.126" transform="translate(200.538 168.995)" fill="#ebebeb"/>
      <rect id="Rectangle_17425" data-name="Rectangle 17425" width="21.839" height="0.126" transform="translate(26.527 169.845)" fill="#ebebeb"/>
      <rect id="Rectangle_17426" data-name="Rectangle 17426" width="3.201" height="0.126" transform="translate(52.871 169.845)" fill="#ebebeb"/>
      <rect id="Rectangle_17427" data-name="Rectangle 17427" width="47.37" height="0.126" transform="translate(66.479 171.979)" fill="#ebebeb"/>
      <path id="Path_22384" data-name="Path 22384" d="M138.729,198H41.1a2.887,2.887,0,0,1-2.887-2.887V57.862A2.887,2.887,0,0,1,41.1,55h97.632a2.887,2.887,0,0,1,2.887,2.887V195.112A2.887,2.887,0,0,1,138.729,198ZM41.1,55.1a2.766,2.766,0,0,0-2.761,2.761v137.25a2.766,2.766,0,0,0,2.761,2.761h97.632a2.766,2.766,0,0,0,2.761-2.761V57.862a2.766,2.766,0,0,0-2.761-2.761Z" transform="translate(-18.889 -55)" fill="#ebebeb"/>
      <path id="Path_22385" data-name="Path 22385" d="M355.029,198H257.387a2.892,2.892,0,0,1-2.887-2.887V57.862A2.892,2.892,0,0,1,257.387,55h97.642a2.887,2.887,0,0,1,2.877,2.862v137.25A2.887,2.887,0,0,1,355.029,198ZM257.387,55.1a2.766,2.766,0,0,0-2.761,2.761v137.25a2.766,2.766,0,0,0,2.761,2.761h97.642a2.766,2.766,0,0,0,2.761-2.761V57.862a2.766,2.766,0,0,0-2.761-2.761Z" transform="translate(-125.811 -55)" fill="#ebebeb"/>
      <rect id="Rectangle_17428" data-name="Rectangle 17428" width="252.828" height="0.126" transform="translate(0 165.552)" fill="#ebebeb"/>
      <rect id="Rectangle_17429" data-name="Rectangle 17429" width="63.101" height="130.55" transform="translate(40.174 20.985)" fill="#f0f0f0"/>
      <rect id="Rectangle_17430" data-name="Rectangle 17430" width="55.516" height="122.965" transform="translate(43.967 24.777)" fill="#fafafa"/>
      <path id="Path_22386" data-name="Path 22386" d="M130.04,226.965h16.687L162.392,104H145.705Z" transform="translate(-64.284 -79.223)" fill="#f5f5f5"/>
      <path id="Path_22387" data-name="Path 22387" d="M130.375,104,114.71,226.965h4.045L134.42,104Z" transform="translate(-56.706 -79.223)" fill="#f5f5f5"/>
      <path id="Path_22388" data-name="Path 22388" d="M141.234,99.646h-64.7L75.17,96.46H142.6Z" transform="translate(-37.16 -75.495)" fill="#f5f5f5"/>
      <path id="Path_22389" data-name="Path 22389" d="M141.234,103.3h-64.7L75.17,100.11H142.6Z" transform="translate(-37.16 -77.3)" fill="#f0f0f0"/>
      <path id="Path_22390" data-name="Path 22390" d="M141.234,106.936h-64.7L75.17,103.75H142.6Z" transform="translate(-37.16 -79.099)" fill="#e6e6e6"/>
      <path id="Path_22391" data-name="Path 22391" d="M141.234,110.586h-64.7L75.17,107.4H142.6Z" transform="translate(-37.16 -80.904)" fill="#e0e0e0"/>
      <rect id="Rectangle_17431" data-name="Rectangle 17431" width="72.132" height="4.248" transform="translate(35.659 16.975)" fill="#f0f0f0"/>
      <path id="Path_22392" data-name="Path 22392" d="M71.283,147.474h0a.733.733,0,0,1-.733-.738V121.958a.733.733,0,0,1,.733-.728h0a.733.733,0,0,1,.733.733V146.74A.733.733,0,0,1,71.283,147.474Z" transform="translate(-34.876 -87.74)" fill="#e0e0e0"/>
      <rect id="Rectangle_17432" data-name="Rectangle 17432" width="0.531" height="14.715" transform="translate(36.134 20.368)" fill="#e0e0e0"/>
      <rect id="Rectangle_17433" data-name="Rectangle 17433" width="63.101" height="130.55" transform="translate(149.553 20.985)" fill="#f0f0f0"/>
      <rect id="Rectangle_17434" data-name="Rectangle 17434" width="55.516" height="122.965" transform="translate(153.345 24.777)" fill="#fafafa"/>
      <path id="Path_22393" data-name="Path 22393" d="M346.36,226.965h16.687L378.712,104H362.025Z" transform="translate(-171.221 -79.223)" fill="#f5f5f5"/>
      <path id="Path_22394" data-name="Path 22394" d="M346.685,104,331.02,226.965h4.045L350.73,104Z" transform="translate(-163.638 -79.223)" fill="#f5f5f5"/>
      <path id="Path_22395" data-name="Path 22395" d="M357.544,99.646h-64.7L291.48,96.46h67.429Z" transform="translate(-144.091 -75.495)" fill="#f5f5f5"/>
      <path id="Path_22396" data-name="Path 22396" d="M357.544,103.3h-64.7l-1.365-3.186h67.429Z" transform="translate(-144.091 -77.3)" fill="#f0f0f0"/>
      <path id="Path_22397" data-name="Path 22397" d="M357.544,106.936h-64.7l-1.365-3.186h67.429Z" transform="translate(-144.091 -79.099)" fill="#e6e6e6"/>
      <path id="Path_22398" data-name="Path 22398" d="M357.544,110.586h-64.7L291.48,107.4h67.429Z" transform="translate(-144.091 -80.904)" fill="#e0e0e0"/>
      <rect id="Rectangle_17435" data-name="Rectangle 17435" width="72.132" height="4.248" transform="translate(145.037 16.975)" fill="#f0f0f0"/>
      <path id="Path_22399" data-name="Path 22399" d="M287.583,147.469h0a.733.733,0,0,1-.733-.738V121.953a.733.733,0,0,1,.733-.733h0a.733.733,0,0,1,.733.733V146.73a.733.733,0,0,1-.733.738Z" transform="translate(-141.802 -87.735)" fill="#e0e0e0"/>
      <rect id="Rectangle_17436" data-name="Rectangle 17436" width="0.531" height="14.715" transform="translate(145.513 20.368)" fill="#e0e0e0"/>
      <path id="Path_22400" data-name="Path 22400" d="M401.52,284.432l2.811,36.847,1.709-.152-4.182-36.847Z" transform="translate(-198.489 -168.343)" fill="#e0e0e0"/>
      <path id="Path_22401" data-name="Path 22401" d="M425.217,294.612,420.2,325.037l-1.411-.253,6.154-30.324Z" transform="translate(-207.026 -173.376)" fill="#e0e0e0"/>
      <path id="Path_22402" data-name="Path 22402" d="M415.594,270.827l-.885,44.589-1.719-.111,2.26-44.644Z" transform="translate(-204.159 -161.61)" fill="#e0e0e0"/>
      <path id="Path_22403" data-name="Path 22403" d="M393.723,283.872c-1.937-.359-7.752,0-7.752,1.35s5.815-.167,5.309,1.178-5.9.93-5.734,2.195,5.143-.678,5.057.167-4.3,2.109-3.454,3.034,3.878-2.174,3.878-.961-2.21,3.418-.844,3.742c2.144.506,1.517-3.777,2.275-3.742s.789,3.59,2.078,3.4-1.067-3.985-.647-4.647,3.373,2.372,4.3,1.7-3.454-3.373-2.862-4.212,3.165,1.77,3.732.42S395.305,284.15,393.723,283.872Z" transform="translate(-190.591 -168.077)" fill="#f0f0f0"/>
      <path id="Path_22404" data-name="Path 22404" d="M410.322,265.314c1.745-.905,6.108-4.773,5.279-5.835s-4.475,3.712-4.91,2.341,4.081-4.364,3.165-5.259-3.636,3.7-4.086,2.983,2.088-4.308.855-4.521-1.714,4.1-2.463,3.145-.369-4.045-1.643-3.469c-2.023.925,1.133,3.914.506,4.354s-2.837-2.346-3.737-1.406,3.3,2.483,3.373,3.267-4.121.207-4.435,1.3,4.8.531,4.854,1.557-3.59.556-3.2,1.967S408.891,266.058,410.322,265.314Z" transform="translate(-198.831 -153.686)" fill="#ebebeb"/>
      <path id="Path_22405" data-name="Path 22405" d="M413.655,273.082c1.937-.359,7.757,0,7.757,1.35s-5.815-.172-5.309,1.178,5.9.925,5.729,2.189-5.143-.672-5.057.172,4.3,2.1,3.454,3.034-3.873-2.179-3.873-.961,2.2,3.418.839,3.742c-2.139.506-1.517-3.777-2.275-3.742s-.789,3.59-2.073,3.4,1.062-3.985.642-4.647-3.373,2.372-4.3,1.7,3.454-3.373,2.867-4.217-3.17,1.77-3.737.425S412.072,273.376,413.655,273.082Z" transform="translate(-201.825 -162.743)" fill="#e6e6e6"/>
      <path id="Path_22406" data-name="Path 22406" d="M425.967,291.877c1.112-1.188,5.183-3.808,5.845-2.908s-3.974,2.746-2.973,3.4,4.4-2.275,4.91-1.35-3.767,2.073-3.3,2.6,3.909-.7,3.8.329-3.661.45-3.064,1.264,3.16,1.2,2.4,2.088c-1.183,1.391-2.867-1.78-3.358-1.385s1.239,2.786.283,3.3-1.244-3.191-1.851-3.423-1.087,3.241-2.023,3.246.652-3.949-.157-4.227-1.249,2.741-2.291,2.119S425.036,292.853,425.967,291.877Z" transform="translate(-209.546 -170.57)" fill="#f5f5f5"/>
      <path id="Path_22407" data-name="Path 22407" d="M397.178,306.925c-1.6-.212-6.432,0-6.432.814s4.824-.1,4.4.713-4.895.556-4.753,1.32,4.263-.41,4.192.1-3.565,1.269-2.867,1.825,3.216-1.31,3.216-.582-1.831,2.063-.7,2.255c1.78.3,1.259-2.275,1.886-2.255s.657,2.164,1.724,2.053-.885-2.4-.531-2.8,2.8,1.426,3.565,1.011-2.867-2.023-2.377-2.528,2.629,1.067,3.095.253S398.492,307.107,397.178,306.925Z" transform="translate(-192.989 -179.499)" fill="#e6e6e6"/>
      <path id="Path_22408" data-name="Path 22408" d="M422.238,314.465c1.6-.212,6.432,0,6.432.814s-4.824-.1-4.4.713,4.895.556,4.753,1.32-4.268-.41-4.2.1,3.54,1.269,2.867,1.825-3.216-1.31-3.216-.581,1.83,2.063.7,2.255c-1.775.3-1.259-2.275-1.886-2.255s-.652,2.164-1.724,2.053.885-2.4.536-2.8-2.8,1.431-3.565,1.011,2.867-2.023,2.377-2.528-2.629,1.067-3.1.253S420.918,314.647,422.238,314.465Z" transform="translate(-206.52 -183.227)" fill="#ebebeb"/>
      <path id="Path_22409" data-name="Path 22409" d="M393.61,334.33l3.034,25.116h14.927L414.6,334.33Z" transform="translate(-194.579 -193.085)" fill="#ebebeb"/>
    </g>
    <g id="freepik--Shadow--inject-13" transform="translate(25.935 229.992)">
      <ellipse id="freepik--path--inject-13" cx="98.042" cy="5.724" rx="98.042" ry="5.724" fill="#f5f5f5"/>
    </g>
    <g id="freepik--Graphics--inject-13" transform="translate(27.518 86.148)">
      <path id="Path_22410" data-name="Path 22410" d="M413.7,172.185a.632.632,0,0,0,.228.506,2.022,2.022,0,0,0,.673.329V171.29a1.285,1.285,0,0,0-.683.349.774.774,0,0,0-.217.546Z" transform="translate(-232.027 -143.636)" fill="#407bff"/>
      <path id="Path_22411" data-name="Path 22411" d="M417.89,178.84v1.679a1.335,1.335,0,0,0,.657-.319.728.728,0,0,0,.217-.506.632.632,0,0,0-.228-.506A1.875,1.875,0,0,0,417.89,178.84Z" transform="translate(-234.099 -147.368)" fill="#407bff"/>
      <path id="Path_22412" data-name="Path 22412" d="M407.617,158.77a9.077,9.077,0,1,0,9.077,9.077A9.077,9.077,0,0,0,407.617,158.77Zm2.811,12.55a3.54,3.54,0,0,1-2.1.88v1.35h-1.219v-1.325a6.772,6.772,0,0,1-1.714-.319,4.252,4.252,0,0,1-1.315-.657l.667-1.487a4.474,4.474,0,0,0,1.082.576,5.057,5.057,0,0,0,1.279.288v-2.023a8.964,8.964,0,0,1-1.461-.46,2.569,2.569,0,0,1-1.011-.748,2.022,2.022,0,0,1-.4-1.31,2.356,2.356,0,0,1,.738-1.734,3.54,3.54,0,0,1,2.124-.88v-1.35h1.219v1.315a5.324,5.324,0,0,1,2.468.743l-.607,1.517a4.819,4.819,0,0,0-1.861-.632v2.068a8.455,8.455,0,0,1,1.441.445,2.528,2.528,0,0,1,1.011.743,1.982,1.982,0,0,1,.4,1.295,2.311,2.311,0,0,1-.733,1.7Z" transform="translate(-224.534 -137.446)" fill="#407bff"/>
      <g id="Group_18994" data-name="Group 18994" transform="translate(174.006 21.324)" opacity="0.6">
        <path id="Path_22413" data-name="Path 22413" d="M413.7,172.185a.632.632,0,0,0,.228.506,2.022,2.022,0,0,0,.673.329V171.29a1.285,1.285,0,0,0-.683.349.774.774,0,0,0-.217.546Z" transform="translate(-406.034 -164.959)" fill="#fff"/>
        <path id="Path_22414" data-name="Path 22414" d="M417.89,178.84v1.679a1.335,1.335,0,0,0,.657-.319.728.728,0,0,0,.217-.506.632.632,0,0,0-.228-.506A1.875,1.875,0,0,0,417.89,178.84Z" transform="translate(-408.106 -168.691)" fill="#fff"/>
        <path id="Path_22415" data-name="Path 22415" d="M407.617,158.77a9.077,9.077,0,1,0,9.077,9.077A9.077,9.077,0,0,0,407.617,158.77Zm2.811,12.55a3.54,3.54,0,0,1-2.1.88v1.35h-1.219v-1.325a6.772,6.772,0,0,1-1.714-.319,4.252,4.252,0,0,1-1.315-.657l.667-1.487a4.474,4.474,0,0,0,1.082.576,5.057,5.057,0,0,0,1.279.288v-2.023a8.964,8.964,0,0,1-1.461-.46,2.569,2.569,0,0,1-1.011-.748,2.022,2.022,0,0,1-.4-1.31,2.356,2.356,0,0,1,.738-1.734,3.54,3.54,0,0,1,2.124-.88v-1.35h1.219v1.315a5.324,5.324,0,0,1,2.468.743l-.607,1.517a4.819,4.819,0,0,0-1.861-.632v2.068a8.455,8.455,0,0,1,1.441.445,2.528,2.528,0,0,1,1.011.743,1.982,1.982,0,0,1,.4,1.295,2.311,2.311,0,0,1-.733,1.7Z" transform="translate(-398.54 -158.77)" fill="#fff"/>
      </g>
      <path id="Path_22416" data-name="Path 22416" d="M62.27,234.78a.329.329,0,0,0,.121.258,1.011,1.011,0,0,0,.349.167v-.9a.708.708,0,0,0-.354.182.409.409,0,0,0-.116.288Z" transform="translate(-58.301 -174.789)" fill="#407bff"/>
      <path id="Path_22417" data-name="Path 22417" d="M64.44,238.23v.865a.647.647,0,0,0,.339-.162.374.374,0,0,0,.116-.273.344.344,0,0,0-.116-.258A1.011,1.011,0,0,0,64.44,238.23Z" transform="translate(-59.373 -176.727)" fill="#407bff"/>
      <path id="Path_22418" data-name="Path 22418" d="M59.123,227.84a4.7,4.7,0,1,0,4.692,4.7,4.7,4.7,0,0,0-4.692-4.7Zm1.456,6.493a1.846,1.846,0,0,1-1.092.46v.713H58.86v-.683a3.65,3.65,0,0,1-.89-.167,2.261,2.261,0,0,1-.683-.339l.349-.769a2.1,2.1,0,0,0,.561.293,2.473,2.473,0,0,0,.662.152v-1.052a5.051,5.051,0,0,1-.758-.238,1.274,1.274,0,0,1-.506-.389,1.037,1.037,0,0,1-.207-.673,1.219,1.219,0,0,1,.379-.9,1.83,1.83,0,0,1,1.1-.455v-.7H59.5v.688a2.831,2.831,0,0,1,1.279.384l-.314.774a2.528,2.528,0,0,0-.966-.324v1.067a5.1,5.1,0,0,1,.748.233,1.279,1.279,0,0,1,.506.384,1.011,1.011,0,0,1,.207.667A1.193,1.193,0,0,1,60.579,234.333Z" transform="translate(-54.42 -171.591)" fill="#407bff"/>
      <g id="Group_18995" data-name="Group 18995" transform="translate(0 56.249)" opacity="0.6">
        <path id="Path_22419" data-name="Path 22419" d="M62.27,234.78a.329.329,0,0,0,.121.258,1.011,1.011,0,0,0,.349.167v-.9a.708.708,0,0,0-.354.182.409.409,0,0,0-.116.288Z" transform="translate(-58.301 -231.038)" fill="#fff"/>
        <path id="Path_22420" data-name="Path 22420" d="M64.44,238.23v.865a.647.647,0,0,0,.339-.162.374.374,0,0,0,.116-.273.344.344,0,0,0-.116-.258A1.011,1.011,0,0,0,64.44,238.23Z" transform="translate(-59.373 -232.976)" fill="#fff"/>
        <path id="Path_22421" data-name="Path 22421" d="M59.123,227.84a4.7,4.7,0,1,0,4.692,4.7,4.7,4.7,0,0,0-4.692-4.7Zm1.456,6.493a1.846,1.846,0,0,1-1.092.46v.713H58.86v-.683a3.65,3.65,0,0,1-.89-.167,2.261,2.261,0,0,1-.683-.339l.349-.769a2.1,2.1,0,0,0,.561.293,2.473,2.473,0,0,0,.662.152v-1.052a5.051,5.051,0,0,1-.758-.238,1.274,1.274,0,0,1-.506-.389,1.037,1.037,0,0,1-.207-.673,1.219,1.219,0,0,1,.379-.9,1.83,1.83,0,0,1,1.1-.455v-.7H59.5v.688a2.831,2.831,0,0,1,1.279.384l-.314.774a2.528,2.528,0,0,0-.966-.324v1.067a5.1,5.1,0,0,1,.748.233,1.279,1.279,0,0,1,.506.384,1.011,1.011,0,0,1,.207.667A1.193,1.193,0,0,1,60.579,234.333Z" transform="translate(-54.42 -227.84)" fill="#fff"/>
      </g>
      <path id="Path_22422" data-name="Path 22422" d="M404.34,212.512a.389.389,0,0,0,.152.319,1.133,1.133,0,0,0,.43.212V211.93a.859.859,0,0,0-.44.222A.505.505,0,0,0,404.34,212.512Z" transform="translate(-227.401 -163.726)" fill="#407bff"/>
      <path id="Path_22423" data-name="Path 22423" d="M407,216.8v1.112a.86.86,0,0,0,.425-.207.45.45,0,0,0,.142-.339.4.4,0,0,0-.147-.319A1.239,1.239,0,0,0,407,216.8Z" transform="translate(-228.716 -166.133)" fill="#407bff"/>
      <path id="Path_22424" data-name="Path 22424" d="M400.416,203.86a5.855,5.855,0,1,0,5.855,5.855A5.855,5.855,0,0,0,400.416,203.86Zm1.815,8.091a2.3,2.3,0,0,1-1.38.576v.875h-.784v-.875a4.168,4.168,0,0,1-1.107-.2,2.891,2.891,0,0,1-.849-.425l.435-.956a2.839,2.839,0,0,0,.7.369,3.3,3.3,0,0,0,.824.187v-1.315a5.458,5.458,0,0,1-.94-.3,1.648,1.648,0,0,1-.647-.48,1.294,1.294,0,0,1-.258-.844,1.517,1.517,0,0,1,.475-1.117,2.265,2.265,0,0,1,1.37-.571V206h.784v.855a3.443,3.443,0,0,1,1.593.48l-.389.966a3.069,3.069,0,0,0-1.2-.41v1.335a5.854,5.854,0,0,1,.93.288,1.632,1.632,0,0,1,.642.48,1.274,1.274,0,0,1,.258.834,1.487,1.487,0,0,1-.45,1.123Z" transform="translate(-222.566 -159.736)" fill="#407bff"/>
      <g id="Group_18996" data-name="Group 18996" transform="translate(171.994 44.124)" opacity="0.6">
        <path id="Path_22425" data-name="Path 22425" d="M404.34,212.512a.389.389,0,0,0,.152.319,1.133,1.133,0,0,0,.43.212V211.93a.859.859,0,0,0-.44.222A.505.505,0,0,0,404.34,212.512Z" transform="translate(-399.395 -207.849)" fill="#fff"/>
        <path id="Path_22426" data-name="Path 22426" d="M407,216.8v1.112a.86.86,0,0,0,.425-.207.45.45,0,0,0,.142-.339.4.4,0,0,0-.147-.319A1.239,1.239,0,0,0,407,216.8Z" transform="translate(-400.71 -210.257)" fill="#fff"/>
        <path id="Path_22427" data-name="Path 22427" d="M400.416,203.86a5.855,5.855,0,1,0,5.855,5.855A5.855,5.855,0,0,0,400.416,203.86Zm1.815,8.091a2.3,2.3,0,0,1-1.38.576v.875h-.784v-.875a4.168,4.168,0,0,1-1.107-.2,2.891,2.891,0,0,1-.849-.425l.435-.956a2.839,2.839,0,0,0,.7.369,3.3,3.3,0,0,0,.824.187v-1.315a5.458,5.458,0,0,1-.94-.3,1.648,1.648,0,0,1-.647-.48,1.294,1.294,0,0,1-.258-.844,1.517,1.517,0,0,1,.475-1.117,2.265,2.265,0,0,1,1.37-.571V206h.784v.855a3.443,3.443,0,0,1,1.593.48l-.389.966a3.069,3.069,0,0,0-1.2-.41v1.335a5.854,5.854,0,0,1,.93.288,1.632,1.632,0,0,1,.642.48,1.274,1.274,0,0,1,.258.834,1.487,1.487,0,0,1-.45,1.123Z" transform="translate(-394.56 -203.86)" fill="#fff"/>
      </g>
      <path id="Path_22428" data-name="Path 22428" d="M76.15,266.051a.4.4,0,0,0,.152.324,1.213,1.213,0,0,0,.43.207V265.47a.859.859,0,0,0-.44.222A.506.506,0,0,0,76.15,266.051Z" transform="translate(-65.162 -190.193)" fill="#407bff"/>
      <path id="Path_22429" data-name="Path 22429" d="M78.85,270.34v1.087a.879.879,0,0,0,.425-.207.445.445,0,0,0,.142-.334.415.415,0,0,0-.147-.324A1.29,1.29,0,0,0,78.85,270.34Z" transform="translate(-66.497 -192.6)" fill="#407bff"/>
      <path id="Path_22430" data-name="Path 22430" d="M72.251,257.4a5.856,5.856,0,1,0,5.83,5.866A5.856,5.856,0,0,0,72.251,257.4Zm1.815,8.091a2.3,2.3,0,0,1-1.36.571v.88H71.9v-.86a4.165,4.165,0,0,1-1.107-.2,2.892,2.892,0,0,1-.85-.425l.435-.956a2.841,2.841,0,0,0,.7.369,3.3,3.3,0,0,0,.824.187v-1.284a6.309,6.309,0,0,1-.941-.3,1.673,1.673,0,0,1-.647-.506,1.3,1.3,0,0,1-.258-.844,1.517,1.517,0,0,1,.475-1.118,2.265,2.265,0,0,1,1.37-.571v-.87h.784v.855a3.464,3.464,0,0,1,1.593.48l-.389.966a3.241,3.241,0,0,0-1.2-.41v1.335a5.857,5.857,0,0,1,.93.288,1.633,1.633,0,0,1,.642.48,1.284,1.284,0,0,1,.258.834,1.482,1.482,0,0,1-.47,1.1Z" transform="translate(-60.327 -186.204)" fill="#407bff"/>
      <g id="Group_18997" data-name="Group 18997" transform="translate(6.043 71.196)" opacity="0.6">
        <path id="Path_22431" data-name="Path 22431" d="M76.15,266.051a.4.4,0,0,0,.152.324,1.213,1.213,0,0,0,.43.207V265.47a.859.859,0,0,0-.44.222A.506.506,0,0,0,76.15,266.051Z" transform="translate(-71.205 -261.389)" fill="#fff"/>
        <path id="Path_22432" data-name="Path 22432" d="M78.85,270.34v1.087a.879.879,0,0,0,.425-.207.445.445,0,0,0,.142-.334.415.415,0,0,0-.147-.324A1.29,1.29,0,0,0,78.85,270.34Z" transform="translate(-72.539 -263.797)" fill="#fff"/>
        <path id="Path_22433" data-name="Path 22433" d="M72.251,257.4a5.856,5.856,0,1,0,5.83,5.866A5.856,5.856,0,0,0,72.251,257.4Zm1.815,8.091a2.3,2.3,0,0,1-1.36.571v.88H71.9v-.86a4.165,4.165,0,0,1-1.107-.2,2.892,2.892,0,0,1-.85-.425l.435-.956a2.841,2.841,0,0,0,.7.369,3.3,3.3,0,0,0,.824.187v-1.284a6.309,6.309,0,0,1-.941-.3,1.673,1.673,0,0,1-.647-.506,1.3,1.3,0,0,1-.258-.844,1.517,1.517,0,0,1,.475-1.118,2.265,2.265,0,0,1,1.37-.571v-.87h.784v.855a3.464,3.464,0,0,1,1.593.48l-.389.966a3.241,3.241,0,0,0-1.2-.41v1.335a5.857,5.857,0,0,1,.93.288,1.633,1.633,0,0,1,.642.48,1.284,1.284,0,0,1,.258.834,1.482,1.482,0,0,1-.47,1.1Z" transform="translate(-66.37 -257.4)" fill="#fff"/>
      </g>
      <path id="Path_22434" data-name="Path 22434" d="M366.964,117.131a2.877,2.877,0,0,0-1.669-.531H318.572a2.9,2.9,0,0,0-2.9,2.908v6.953a2.868,2.868,0,0,0,.389,1.451,12.454,12.454,0,0,0,1.825,1.911,2.9,2.9,0,0,0,1.7.551h46.723a2.9,2.9,0,0,0,2.9-2.9v-6.953a2.877,2.877,0,0,0-.561-1.714A15.04,15.04,0,0,0,366.964,117.131Z" transform="translate(-183.567 -116.6)" fill="#407bff"/>
      <path id="Path_22435" data-name="Path 22435" d="M366.964,117.131a2.877,2.877,0,0,0-1.669-.531H318.572a2.9,2.9,0,0,0-2.9,2.908v6.953a2.868,2.868,0,0,0,.389,1.451,12.454,12.454,0,0,0,1.825,1.911,2.9,2.9,0,0,0,1.7.551h46.723a2.9,2.9,0,0,0,2.9-2.9v-6.953a2.877,2.877,0,0,0-.561-1.714A15.04,15.04,0,0,0,366.964,117.131Z" transform="translate(-183.567 -116.6)" fill="#fff" opacity="0.4"/>
      <rect id="Rectangle_17437" data-name="Rectangle 17437" width="52.528" height="12.758" rx="5.74" transform="translate(132.103 0)" fill="#fff" opacity="0.4"/>
      <path id="Path_22436" data-name="Path 22436" d="M325.485,120.96l1.239,2.5,2.761.4-2,1.952.47,2.746-2.473-1.294-2.468,1.294.47-2.746-2-1.952,2.761-.4Z" transform="translate(-186.444 -118.755)" fill="#407bff"/>
      <path id="Path_22437" data-name="Path 22437" d="M344.885,120.96l1.234,2.5,2.761.4-2,1.952.475,2.746-2.473-1.294-2.468,1.294.47-2.746-2-1.952,2.761-.4Z" transform="translate(-196.035 -118.755)" fill="#407bff"/>
      <path id="Path_22438" data-name="Path 22438" d="M364.28,120.96l1.234,2.5,2.761.4-2,1.952.47,2.746-2.468-1.294-2.473,1.294.475-2.746-2-1.952,2.766-.4Z" transform="translate(-205.62 -118.755)" fill="#407bff"/>
      <path id="Path_22439" data-name="Path 22439" d="M383.68,120.96l1.234,2.5,2.761.4-2,1.952.47,2.746-2.468-1.294-2.473,1.294.47-2.746-2-1.952,2.761-.4Z" transform="translate(-215.21 -118.755)" fill="#407bff"/>
      <path id="Path_22440" data-name="Path 22440" d="M403.075,120.96l1.239,2.5,2.761.4-2,1.952.47,2.746-2.473-1.294-2.468,1.294.47-2.746-2-1.952,2.761-.4Z" transform="translate(-224.801 -118.755)" fill="#407bff"/>
      <path id="Path_22441" data-name="Path 22441" d="M325.485,120.96l1.239,2.5,2.761.4-2,1.952.47,2.746-2.473-1.294-2.468,1.294.47-2.746-2-1.952,2.761-.4Z" transform="translate(-186.444 -118.755)" fill="#fff" opacity="0.9"/>
      <path id="Path_22442" data-name="Path 22442" d="M344.885,120.96l1.234,2.5,2.761.4-2,1.952.475,2.746-2.473-1.294-2.468,1.294.47-2.746-2-1.952,2.761-.4Z" transform="translate(-196.035 -118.755)" fill="#fff" opacity="0.9"/>
      <path id="Path_22443" data-name="Path 22443" d="M364.28,120.96l1.234,2.5,2.761.4-2,1.952.47,2.746-2.468-1.294-2.473,1.294.475-2.746-2-1.952,2.766-.4Z" transform="translate(-205.62 -118.755)" fill="#fff" opacity="0.9"/>
      <path id="Path_22444" data-name="Path 22444" d="M383.68,120.96l1.234,2.5,2.761.4-2,1.952.47,2.746-2.468-1.294-2.473,1.294.47-2.746-2-1.952,2.761-.4Z" transform="translate(-215.21 -118.755)" fill="#fff" opacity="0.9"/>
      <path id="Path_22445" data-name="Path 22445" d="M403.075,120.96l1.239,2.5,2.761.4-2,1.952.47,2.746-2.473-1.294-2.468,1.294.47-2.746-2-1.952,2.761-.4Z" transform="translate(-224.801 -118.755)" fill="#fff" opacity="0.9"/>
      <path id="Path_22446" data-name="Path 22446" d="M257.315,262.779v-1.906a4.743,4.743,0,0,0-9.486,0v1.906H246.56v9.9h12.025v-9.9Zm-8.212-1.906a3.469,3.469,0,0,1,6.938,0v1.906H249.1Zm4.1,6.821v1.6a.632.632,0,1,1-1.264,0v-1.6a1.188,1.188,0,1,1,1.264,0Z" transform="translate(-149.403 -185.576)" fill="#407bff"/>
      <path id="Path_22447" data-name="Path 22447" d="M257.315,262.779v-1.906a4.743,4.743,0,0,0-9.486,0v1.906H246.56v9.9h12.025v-9.9Zm-8.212-1.906a3.469,3.469,0,0,1,6.938,0v1.906H249.1Zm4.1,6.821v1.6a.632.632,0,1,1-1.264,0v-1.6a1.188,1.188,0,1,1,1.264,0Z" transform="translate(-149.403 -185.576)" fill="#fff" opacity="0.6"/>
      <circle id="Ellipse_6182" data-name="Ellipse 6182" cx="1.729" cy="1.729" r="1.729" transform="translate(4.698 23.503)" fill="#407bff"/>
      <path id="Path_22448" data-name="Path 22448" d="M91.619,164.814a1.729,1.729,0,1,1-1.724-1.724,1.729,1.729,0,0,1,1.724,1.724Z" transform="translate(-71.099 -139.582)" fill="#407bff"/>
      <circle id="Ellipse_6183" data-name="Ellipse 6183" cx="1.724" cy="1.724" r="1.724" transform="translate(29.465 23.508)" fill="#407bff"/>
      <path id="Path_22449" data-name="Path 22449" d="M67.169,141.949a1.729,1.729,0,1,1-1.729-1.729,1.729,1.729,0,0,1,1.729,1.729Z" transform="translate(-59.012 -128.276)" fill="#407bff"/>
      <path id="Path_22450" data-name="Path 22450" d="M91.619,141.949a1.724,1.724,0,1,1-.5-1.223A1.729,1.729,0,0,1,91.619,141.949Z" transform="translate(-71.099 -128.276)" fill="#407bff"/>
      <path id="Path_22451" data-name="Path 22451" d="M116.129,141.949a1.724,1.724,0,1,1-.5-1.223A1.729,1.729,0,0,1,116.129,141.949Z" transform="translate(-83.216 -128.276)" fill="#407bff"/>
      <circle id="Ellipse_6184" data-name="Ellipse 6184" cx="1.729" cy="1.729" r="1.729" transform="translate(4.698 0.379)" fill="#407bff"/>
      <path id="Path_22452" data-name="Path 22452" d="M91.619,119.084a1.729,1.729,0,1,1-1.724-1.724,1.729,1.729,0,0,1,1.724,1.724Z" transform="translate(-71.099 -116.976)" fill="#407bff"/>
      <circle id="Ellipse_6185" data-name="Ellipse 6185" cx="1.724" cy="1.724" r="1.724" transform="translate(29.465 0.384)" fill="#407bff"/>
      <g id="Group_18998" data-name="Group 18998" transform="translate(4.698 0.379)" opacity="0.3">
        <circle id="Ellipse_6186" data-name="Ellipse 6186" cx="1.729" cy="1.729" r="1.729" transform="translate(0 23.124)" fill="#fff"/>
        <path id="Path_22453" data-name="Path 22453" d="M91.619,164.814a1.729,1.729,0,1,1-1.724-1.724,1.729,1.729,0,0,1,1.724,1.724Z" transform="translate(-75.797 -139.961)" fill="#fff"/>
        <circle id="Ellipse_6187" data-name="Ellipse 6187" cx="1.724" cy="1.724" r="1.724" transform="translate(24.767 23.129)" fill="#fff"/>
        <path id="Path_22454" data-name="Path 22454" d="M67.169,141.949a1.729,1.729,0,1,1-1.729-1.729,1.729,1.729,0,0,1,1.729,1.729Z" transform="translate(-63.71 -128.656)" fill="#fff"/>
        <path id="Path_22455" data-name="Path 22455" d="M91.619,141.949a1.724,1.724,0,1,1-.5-1.223A1.729,1.729,0,0,1,91.619,141.949Z" transform="translate(-75.797 -128.656)" fill="#fff"/>
        <path id="Path_22456" data-name="Path 22456" d="M116.129,141.949a1.724,1.724,0,1,1-.5-1.223A1.729,1.729,0,0,1,116.129,141.949Z" transform="translate(-87.913 -128.656)" fill="#fff"/>
        <circle id="Ellipse_6188" data-name="Ellipse 6188" cx="1.729" cy="1.729" r="1.729" transform="translate(0)" fill="#fff"/>
        <path id="Path_22457" data-name="Path 22457" d="M91.619,119.084a1.729,1.729,0,1,1-1.724-1.724,1.729,1.729,0,0,1,1.724,1.724Z" transform="translate(-75.797 -117.355)" fill="#fff"/>
        <circle id="Ellipse_6189" data-name="Ellipse 6189" cx="1.724" cy="1.724" r="1.724" transform="translate(24.767 0.005)" fill="#fff"/>
      </g>
      <path id="Path_22458" data-name="Path 22458" d="M91.346,143.083a.834.834,0,0,1-.834.834H66.994a1.011,1.011,0,0,1-.678-1.719l22.921-21.4H67.419a.834.834,0,0,1-.834-.834h0a.829.829,0,0,1,.834-.829H90.937a1.011,1.011,0,0,1,.678,1.719L68.7,142.254H90.512A.834.834,0,0,1,91.346,143.083Z" transform="translate(-60.158 -117.851)" fill="#407bff"/>
      <g id="Group_18999" data-name="Group 18999" transform="translate(5.869 1.279)" opacity="0.6">
        <path id="Path_22459" data-name="Path 22459" d="M91.346,143.083a.834.834,0,0,1-.834.834H66.994a1.011,1.011,0,0,1-.678-1.719l22.921-21.4H67.419a.834.834,0,0,1-.834-.834h0a.829.829,0,0,1,.834-.829H90.937a1.011,1.011,0,0,1,.678,1.719L68.7,142.254H90.512A.834.834,0,0,1,91.346,143.083Z" transform="translate(-66.026 -119.13)" fill="#fff"/>
      </g>
    </g>
    <g id="freepik--device-2--inject-13" transform="translate(143.04 104.509)">
      <path id="Path_22460" data-name="Path 22460" d="M290.318,255.068h36.518a7.438,7.438,0,0,0,7.438-7.438V160.348a7.443,7.443,0,0,0-7.438-7.438H290.318a7.438,7.438,0,0,0-7.438,7.438V247.63a7.433,7.433,0,0,0,7.438,7.438Z" transform="translate(-282.88 -152.91)" fill="#006aff"/>
      <path id="Path_22461" data-name="Path 22461" d="M294.068,255.068h36.518a7.438,7.438,0,0,0,7.438-7.438V160.348a7.443,7.443,0,0,0-7.438-7.438H294.068a7.438,7.438,0,0,0-7.438,7.438V247.63a7.433,7.433,0,0,0,7.438,7.438Z" transform="translate(-284.734 -152.91)" fill="#263238"/>
      <path id="Path_22462" data-name="Path 22462" d="M295.734,156.29h9.491a1.229,1.229,0,0,1,1.224,1.077l.04.3a3.034,3.034,0,0,0,2.993,2.634H318.5a3.034,3.034,0,0,0,2.993-2.634l.035-.3a1.239,1.239,0,0,1,1.229-1.077h9.491a5.729,5.729,0,0,1,5.729,5.729V249.3a5.734,5.734,0,0,1-5.729,5.734H295.734A5.734,5.734,0,0,1,290,249.3V162.019A5.734,5.734,0,0,1,295.734,156.29Z" transform="translate(-286.4 -154.581)" fill="#407bff"/>
      <path id="Path_22463" data-name="Path 22463" d="M295.734,156.29h9.491a1.229,1.229,0,0,1,1.224,1.077l.04.3a3.034,3.034,0,0,0,2.993,2.634H318.5a3.034,3.034,0,0,0,2.993-2.634l.035-.3a1.239,1.239,0,0,1,1.229-1.077h9.491a5.729,5.729,0,0,1,5.729,5.729V249.3a5.734,5.734,0,0,1-5.729,5.734H295.734A5.734,5.734,0,0,1,290,249.3V162.019A5.734,5.734,0,0,1,295.734,156.29Z" transform="translate(-286.4 -154.581)" fill="#fff" opacity="0.8"/>
      <g id="Group_19000" data-name="Group 19000" transform="translate(23.872 1.944)" opacity="0.9">
        <path id="Path_22464" data-name="Path 22464" d="M341.82,157.488a.723.723,0,1,0,.21-.515A.723.723,0,0,0,341.82,157.488Z" transform="translate(-335.889 -156.757)"/>
        <path id="Path_22465" data-name="Path 22465" d="M330.879,156.758h2.483a.728.728,0,1,1,0,1.451h-2.483a.728.728,0,1,1,0-1.451Z" transform="translate(-330.09 -156.755)"/>
      </g>
      <rect id="Rectangle_17438" data-name="Rectangle 17438" width="0.769" height="0.769" transform="translate(8.131 4.935)" fill="#407bff"/>
      <path id="Path_22466" data-name="Path 22466" d="M302,161.919v.769h.769V161.15H302Z" transform="translate(-292.332 -156.983)" fill="#407bff"/>
      <path id="Path_22467" data-name="Path 22467" d="M305.04,159.63v2.306h.769V159.63Z" transform="translate(-293.835 -156.232)" fill="#407bff"/>
      <path id="Path_22468" data-name="Path 22468" d="M369.984,159.73v.566h-.374v1.123h.374v.566h3.363V159.73Zm1.517,1.689h-1.128V160.3H371.5Z" transform="translate(-325.754 -156.281)" fill="#407bff"/>
      <circle id="Ellipse_6190" data-name="Ellipse 6190" cx="6.811" cy="6.811" r="6.811" transform="translate(20.666 73.689)" fill="#fff" opacity="0.9"/>
      <path id="Path_22469" data-name="Path 22469" d="M330.809,308.687l-5.941-5.941a1.32,1.32,0,0,1,0-1.876h0a1.32,1.32,0,0,1,1.876,0l4.045,4.045,6.705-6.705a1.325,1.325,0,0,1,1.876,0h0a1.33,1.33,0,0,1,0,1.876Z" transform="translate(-303.443 -224.545)" fill="#006aff"/>
    </g>
    <g id="freepik--Money--inject-13" transform="translate(70.66 98.365)">
      <path id="Path_22470" data-name="Path 22470" d="M336.753,284.528H294.4a1.264,1.264,0,0,1-1.264-1.264h0A1.264,1.264,0,0,1,294.4,282h42.349a1.264,1.264,0,0,1,1.264,1.264h0A1.264,1.264,0,0,1,336.753,284.528Z" transform="translate(-215.572 -210.581)" opacity="0.3"/>
      <rect id="Rectangle_17439" data-name="Rectangle 17439" width="42.809" height="23.806" transform="translate(0 48.831)" fill="#407bff"/>
      <rect id="Rectangle_17440" data-name="Rectangle 17440" width="42.809" height="23.806" transform="translate(0 48.831)" fill="#fff" opacity="0.3"/>
      <path id="Path_22471" data-name="Path 22471" d="M182.506,259.268V242.955a1.825,1.825,0,0,1-1.825-1.825H145.365a1.825,1.825,0,0,1-1.825,1.825v16.312a1.825,1.825,0,0,1,1.825,1.825h35.32a1.825,1.825,0,0,1,1.82-1.825Z" transform="translate(-141.618 -190.377)" fill="#fff" opacity="0.8"/>
      <path id="Path_22472" data-name="Path 22472" d="M180,257.532a.47.47,0,0,0,.172.369,1.386,1.386,0,0,0,.506.243V256.87a1.011,1.011,0,0,0-.506.258A.587.587,0,0,0,180,257.532Z" transform="translate(-159.642 -198.158)" fill="#407bff"/>
      <path id="Path_22473" data-name="Path 22473" d="M183.1,262.43v1.239a1.011,1.011,0,0,0,.506-.233.541.541,0,0,0,.162-.389.46.46,0,0,0-.167-.364A1.431,1.431,0,0,0,183.1,262.43Z" transform="translate(-161.175 -200.907)" fill="#407bff"/>
      <path id="Path_22474" data-name="Path 22474" d="M175.535,247.67a6.68,6.68,0,1,0,6.675,6.675A6.68,6.68,0,0,0,175.535,247.67ZM177.6,256.9a2.6,2.6,0,0,1-1.547.647v1.011h-.9v-.976a4.912,4.912,0,0,1-1.259-.233,3.131,3.131,0,0,1-.966-.506l.506-1.092a3.136,3.136,0,0,0,.8.42,3.539,3.539,0,0,0,.935.217v-1.517a6.751,6.751,0,0,1-1.072-.339,1.891,1.891,0,0,1-.733-.551,1.476,1.476,0,0,1-.3-.961,1.724,1.724,0,0,1,.546-1.279,2.554,2.554,0,0,1,1.557-.647v-1.011h.9v.976a3.944,3.944,0,0,1,1.815.546l-.45,1.1a3.54,3.54,0,0,0-1.365-.465v1.517a6.12,6.12,0,0,1,1.057.329,1.83,1.83,0,0,1,.733.546,1.441,1.441,0,0,1,.293.951A1.689,1.689,0,0,1,177.6,256.9Z" transform="translate(-154.13 -193.61)" fill="#407bff"/>
      <g id="Group_19001" data-name="Group 19001" transform="translate(14.72 54.06)" opacity="0.3">
        <path id="Path_22475" data-name="Path 22475" d="M180,257.532a.47.47,0,0,0,.172.369,1.386,1.386,0,0,0,.506.243V256.87a1.011,1.011,0,0,0-.506.258A.587.587,0,0,0,180,257.532Z" transform="translate(-174.362 -252.218)" fill="#fff"/>
        <path id="Path_22476" data-name="Path 22476" d="M183.1,262.43v1.239a1.011,1.011,0,0,0,.506-.233.541.541,0,0,0,.162-.389.46.46,0,0,0-.167-.364A1.431,1.431,0,0,0,183.1,262.43Z" transform="translate(-175.894 -254.967)" fill="#fff"/>
        <path id="Path_22477" data-name="Path 22477" d="M175.535,247.67a6.68,6.68,0,1,0,6.675,6.675A6.68,6.68,0,0,0,175.535,247.67ZM177.6,256.9a2.6,2.6,0,0,1-1.547.647v1.011h-.9v-.976a4.912,4.912,0,0,1-1.259-.233,3.131,3.131,0,0,1-.966-.506l.506-1.092a3.136,3.136,0,0,0,.8.42,3.539,3.539,0,0,0,.935.217v-1.517a6.751,6.751,0,0,1-1.072-.339,1.891,1.891,0,0,1-.733-.551,1.476,1.476,0,0,1-.3-.961,1.724,1.724,0,0,1,.546-1.279,2.554,2.554,0,0,1,1.557-.647v-1.011h.9v.976a3.944,3.944,0,0,1,1.815.546l-.45,1.1a3.54,3.54,0,0,0-1.365-.465v1.517a6.12,6.12,0,0,1,1.057.329,1.83,1.83,0,0,1,.733.546,1.441,1.441,0,0,1,.293.951A1.689,1.689,0,0,1,177.6,256.9Z" transform="translate(-168.85 -247.67)" fill="#fff"/>
      </g>
      <rect id="Rectangle_17441" data-name="Rectangle 17441" width="23.806" height="42.809" transform="translate(0.067 48.493) rotate(-67.5)" fill="#407bff"/>
      <rect id="Rectangle_17442" data-name="Rectangle 17442" width="23.806" height="42.809" transform="translate(0.067 48.493) rotate(-67.5)" fill="#fff" opacity="0.3"/>
      <path id="Path_22478" data-name="Path 22478" d="M152.465,200.491l-6.245,15.074a1.825,1.825,0,0,1,.986,2.387l32.63,13.511a1.82,1.82,0,0,1,2.382-.986l6.245-15.048a1.83,1.83,0,0,1-.986-2.387L154.846,199.5a1.82,1.82,0,0,1-2.382.991Z" transform="translate(-142.943 -169.798)" fill="#fff" opacity="0.8"/>
      <path id="Path_22479" data-name="Path 22479" d="M188.015,233.584a.455.455,0,0,0,0-.4,1.351,1.351,0,0,0-.359-.41l-.506,1.173a.971.971,0,0,0,.556-.046A.586.586,0,0,0,188.015,233.584Z" transform="translate(-163.177 -186.245)" fill="#407bff"/>
      <path id="Path_22480" data-name="Path 22480" d="M187.243,228.137l.47-1.143a.925.925,0,0,0-.536.03.506.506,0,0,0-.293.293.455.455,0,0,0,0,.4A1.517,1.517,0,0,0,187.243,228.137Z" transform="translate(-163.022 -183.377)" fill="#407bff"/>
      <path id="Path_22481" data-name="Path 22481" d="M178.907,230.753a6.675,6.675,0,1,0-3.615-8.723A6.675,6.675,0,0,0,178.907,230.753Zm1.623-9.324a2.624,2.624,0,0,1,1.679,0l.379-.925.829.344-.374.9a4.925,4.925,0,0,1,1.077.7,3.17,3.17,0,0,1,.708.814l-.87.824a3.155,3.155,0,0,0-.576-.693,3.606,3.606,0,0,0-.789-.561l-.571,1.38a6.9,6.9,0,0,1,.865.728,1.85,1.85,0,0,1,.465.789,1.446,1.446,0,0,1-.1,1.011,1.7,1.7,0,0,1-.986.971,2.574,2.574,0,0,1-1.694,0l-.379.915-.824-.344.369-.9a3.949,3.949,0,0,1-1.466-1.2l.834-.849a3.54,3.54,0,0,0,1.087.956l.582-1.406a6.678,6.678,0,0,1-.855-.708,1.85,1.85,0,0,1-.465-.784,1.436,1.436,0,0,1,.091-1.011A1.7,1.7,0,0,1,180.53,221.429Z" transform="translate(-157.063 -178.898)" fill="#407bff"/>
      <g id="Group_19002" data-name="Group 19002" transform="translate(17.719 39.011)" opacity="0.3">
        <path id="Path_22482" data-name="Path 22482" d="M188.015,233.584a.455.455,0,0,0,0-.4,1.351,1.351,0,0,0-.359-.41l-.506,1.173a.971.971,0,0,0,.556-.046A.586.586,0,0,0,188.015,233.584Z" transform="translate(-180.896 -225.255)" fill="#fff"/>
        <path id="Path_22483" data-name="Path 22483" d="M187.243,228.137l.47-1.143a.925.925,0,0,0-.536.03.506.506,0,0,0-.293.293.455.455,0,0,0,0,.4A1.517,1.517,0,0,0,187.243,228.137Z" transform="translate(-180.741 -222.387)" fill="#fff"/>
        <path id="Path_22484" data-name="Path 22484" d="M178.907,230.753a6.675,6.675,0,1,0-3.615-8.723A6.675,6.675,0,0,0,178.907,230.753Zm1.623-9.324a2.624,2.624,0,0,1,1.679,0l.379-.925.829.344-.374.9a4.925,4.925,0,0,1,1.077.7,3.17,3.17,0,0,1,.708.814l-.87.824a3.155,3.155,0,0,0-.576-.693,3.606,3.606,0,0,0-.789-.561l-.571,1.38a6.9,6.9,0,0,1,.865.728,1.85,1.85,0,0,1,.465.789,1.446,1.446,0,0,1-.1,1.011,1.7,1.7,0,0,1-.986.971,2.574,2.574,0,0,1-1.694,0l-.379.915-.824-.344.369-.9a3.949,3.949,0,0,1-1.466-1.2l.834-.849a3.54,3.54,0,0,0,1.087.956l.582-1.406a6.678,6.678,0,0,1-.855-.708,1.85,1.85,0,0,1-.465-.784,1.436,1.436,0,0,1,.091-1.011A1.7,1.7,0,0,1,180.53,221.429Z" transform="translate(-174.781 -217.909)" fill="#fff"/>
      </g>
      <rect id="Rectangle_17443" data-name="Rectangle 17443" width="23.806" height="42.809" transform="translate(9.372 26.209) rotate(-45)" fill="#407bff"/>
      <rect id="Rectangle_17444" data-name="Rectangle 17444" width="23.806" height="42.809" transform="translate(9.372 26.209) rotate(-45)" fill="#fff" opacity="0.3"/>
      <path id="Path_22485" data-name="Path 22485" d="M177.729,167.2,166.2,178.719a1.82,1.82,0,0,1,0,2.579l24.969,24.974a1.831,1.831,0,0,1,2.584,0l11.534-11.539a1.82,1.82,0,0,1,0-2.579L180.318,167.18a1.82,1.82,0,0,1-2.589.02Z" transform="translate(-152.82 -153.821)" fill="#fff" opacity="0.8"/>
      <path id="Path_22486" data-name="Path 22486" d="M203.485,208.365a.465.465,0,0,0,.142-.379,1.461,1.461,0,0,0-.182-.506l-.9.9a.935.935,0,0,0,.506.172.572.572,0,0,0,.43-.187Z" transform="translate(-170.79 -173.743)" fill="#407bff"/>
      <path id="Path_22487" data-name="Path 22487" d="M205.07,203.021l.87-.875a.971.971,0,0,0-.506-.177.506.506,0,0,0-.384.157.465.465,0,0,0-.142.379A1.411,1.411,0,0,0,205.07,203.021Z" transform="translate(-171.954 -171.018)" fill="#407bff"/>
      <path id="Path_22488" data-name="Path 22488" d="M193.6,204.065a6.68,6.68,0,1,0,0-9.441A6.68,6.68,0,0,0,193.6,204.065Zm5.057-7.989a2.6,2.6,0,0,1,1.557.637l.708-.713.632.637-.688.688a4.845,4.845,0,0,1,.723,1.057,3.064,3.064,0,0,1,.344,1.011l-1.123.425a3.094,3.094,0,0,0-.263-.86,3.776,3.776,0,0,0-.506-.819L198.98,199.2a6.416,6.416,0,0,1,.506,1.011,1.932,1.932,0,0,1,.131.91,1.517,1.517,0,0,1-.47.89,1.734,1.734,0,0,1-1.289.506,2.559,2.559,0,0,1-1.562-.647l-.7.7-.612-.632.688-.688a3.919,3.919,0,0,1-.9-1.674l1.092-.46a3.6,3.6,0,0,0,.642,1.3l1.077-1.077a6.1,6.1,0,0,1-.506-.981,1.911,1.911,0,0,1-.131-.905,1.482,1.482,0,0,1,.465-.88,1.694,1.694,0,0,1,1.254-.5Z" transform="translate(-165.4 -166.419)" fill="#407bff"/>
      <g id="Group_19003" data-name="Group 19003" transform="translate(26.247 26.246)" opacity="0.3">
        <path id="Path_22489" data-name="Path 22489" d="M203.485,208.365a.465.465,0,0,0,.142-.379,1.461,1.461,0,0,0-.182-.506l-.9.9a.935.935,0,0,0,.506.172.572.572,0,0,0,.43-.187Z" transform="translate(-197.037 -199.989)" fill="#fff"/>
        <path id="Path_22490" data-name="Path 22490" d="M205.07,203.021l.87-.875a.971.971,0,0,0-.506-.177.506.506,0,0,0-.384.157.465.465,0,0,0-.142.379A1.411,1.411,0,0,0,205.07,203.021Z" transform="translate(-198.201 -197.265)" fill="#fff"/>
        <path id="Path_22491" data-name="Path 22491" d="M193.6,204.065a6.68,6.68,0,1,0,0-9.441A6.68,6.68,0,0,0,193.6,204.065Zm5.057-7.989a2.6,2.6,0,0,1,1.557.637l.708-.713.632.637-.688.688a4.845,4.845,0,0,1,.723,1.057,3.064,3.064,0,0,1,.344,1.011l-1.123.425a3.094,3.094,0,0,0-.263-.86,3.776,3.776,0,0,0-.506-.819L198.98,199.2a6.416,6.416,0,0,1,.506,1.011,1.932,1.932,0,0,1,.131.91,1.517,1.517,0,0,1-.47.89,1.734,1.734,0,0,1-1.289.506,2.559,2.559,0,0,1-1.562-.647l-.7.7-.612-.632.688-.688a3.919,3.919,0,0,1-.9-1.674l1.092-.46a3.6,3.6,0,0,0,.642,1.3l1.077-1.077a6.1,6.1,0,0,1-.506-.981,1.911,1.911,0,0,1-.131-.905,1.482,1.482,0,0,1,.465-.88,1.694,1.694,0,0,1,1.254-.5Z" transform="translate(-191.647 -192.665)" fill="#fff"/>
      </g>
      <rect id="Rectangle_17445" data-name="Rectangle 17445" width="23.806" height="42.809" transform="translate(26.493 9.185) rotate(-22.5)" fill="#407bff"/>
      <rect id="Rectangle_17446" data-name="Rectangle 17446" width="23.806" height="42.809" transform="translate(26.493 9.185) rotate(-22.5)" fill="#fff" opacity="0.3"/>
      <path id="Path_22492" data-name="Path 22492" d="M214.52,147.24l-15.079,6.245a1.825,1.825,0,0,1-1.011,2.387L211.946,188.5a1.82,1.82,0,0,1,2.382.986l15.079-6.24a1.82,1.82,0,0,1,.986-2.387l-13.471-32.625a1.825,1.825,0,0,1-2.4-.991Z" transform="translate(-168.753 -143.963)" fill="#fff" opacity="0.8"/>
      <path id="Path_22493" data-name="Path 22493" d="M227.535,191.114a.455.455,0,0,0,.278-.3,1.517,1.517,0,0,0,.035-.546l-1.178.506a.91.91,0,0,0,.43.364.561.561,0,0,0,.435-.025Z" transform="translate(-182.713 -165.235)" fill="#407bff"/>
      <path id="Path_22494" data-name="Path 22494" d="M231.124,186.615l1.143-.475a.981.981,0,0,0-.4-.354.506.506,0,0,0-.42,0,.475.475,0,0,0-.273.293A1.445,1.445,0,0,0,231.124,186.615Z" transform="translate(-184.912 -162.995)" fill="#407bff"/>
      <path id="Path_22495" data-name="Path 22495" d="M217.381,185.034a6.68,6.68,0,1,0,3.6-8.728A6.68,6.68,0,0,0,217.381,185.034Zm7.742-5.446a2.624,2.624,0,0,1,1.193,1.183l.925-.384.344.829-.905.369a4.874,4.874,0,0,1,.268,1.259,3,3,0,0,1-.076,1.077l-1.2-.035a3.206,3.206,0,0,0,.086-.9,3.564,3.564,0,0,0-.162-.951l-1.38.571a6.9,6.9,0,0,1,.1,1.123,1.921,1.921,0,0,1-.228.89,1.466,1.466,0,0,1-.774.642,1.729,1.729,0,0,1-1.391,0,2.574,2.574,0,0,1-1.193-1.2l-.92.384-.344-.829.905-.374a3.879,3.879,0,0,1-.192-1.886h1.188a3.54,3.54,0,0,0,.1,1.446l1.406-.587a6.235,6.235,0,0,1-.106-1.1,1.816,1.816,0,0,1,.228-.885,1.477,1.477,0,0,1,.764-.637A1.7,1.7,0,0,1,225.122,179.588Z" transform="translate(-177.869 -158.077)" fill="#407bff"/>
      <g id="Group_19004" data-name="Group 19004" transform="translate(39.001 17.713)" opacity="0.3">
        <path id="Path_22496" data-name="Path 22496" d="M227.535,191.114a.455.455,0,0,0,.278-.3,1.517,1.517,0,0,0,.035-.546l-1.178.506a.91.91,0,0,0,.43.364.561.561,0,0,0,.435-.025Z" transform="translate(-221.714 -182.948)" fill="#fff"/>
        <path id="Path_22497" data-name="Path 22497" d="M231.124,186.615l1.143-.475a.981.981,0,0,0-.4-.354.506.506,0,0,0-.42,0,.475.475,0,0,0-.273.293A1.445,1.445,0,0,0,231.124,186.615Z" transform="translate(-223.913 -180.709)" fill="#fff"/>
        <path id="Path_22498" data-name="Path 22498" d="M217.381,185.034a6.68,6.68,0,1,0,3.6-8.728A6.68,6.68,0,0,0,217.381,185.034Zm7.742-5.446a2.624,2.624,0,0,1,1.193,1.183l.925-.384.344.829-.905.369a4.874,4.874,0,0,1,.268,1.259,3,3,0,0,1-.076,1.077l-1.2-.035a3.206,3.206,0,0,0,.086-.9,3.564,3.564,0,0,0-.162-.951l-1.38.571a6.9,6.9,0,0,1,.1,1.123,1.921,1.921,0,0,1-.228.89,1.466,1.466,0,0,1-.774.642,1.729,1.729,0,0,1-1.391,0,2.574,2.574,0,0,1-1.193-1.2l-.92.384-.344-.829.905-.374a3.879,3.879,0,0,1-.192-1.886h1.188a3.54,3.54,0,0,0,.1,1.446l1.406-.587a6.235,6.235,0,0,1-.106-1.1,1.816,1.816,0,0,1,.228-.885,1.477,1.477,0,0,1,.764-.637A1.7,1.7,0,0,1,225.122,179.588Z" transform="translate(-216.87 -175.791)" fill="#fff"/>
      </g>
      <rect id="Rectangle_17447" data-name="Rectangle 17447" width="23.806" height="42.809" transform="translate(48.831)" fill="#407bff"/>
      <rect id="Rectangle_17448" data-name="Rectangle 17448" width="23.806" height="42.809" transform="translate(48.831)" fill="#fff" opacity="0.3"/>
      <path id="Path_22499" data-name="Path 22499" d="M258.258,144.56H241.93a1.82,1.82,0,0,1-1.82,1.825V181.7a1.825,1.825,0,0,1,1.82,1.825h16.328a1.825,1.825,0,0,1,1.82-1.825v-35.31a1.82,1.82,0,0,1-1.82-1.825Z" transform="translate(-189.357 -142.639)" fill="#fff" opacity="0.8"/>
      <path id="Path_22500" data-name="Path 22500" d="M256.512,184.488a.475.475,0,0,0,.369-.172,1.476,1.476,0,0,0,.238-.506H255.85a.935.935,0,0,0,.253.506A.592.592,0,0,0,256.512,184.488Z" transform="translate(-197.138 -162.041)" fill="#407bff"/>
      <path id="Path_22501" data-name="Path 22501" d="M261.41,181.417h1.234a.951.951,0,0,0-.233-.506.506.506,0,0,0-.384-.162.465.465,0,0,0-.369.167,1.411,1.411,0,0,0-.248.5Z" transform="translate(-199.887 -160.529)" fill="#407bff"/>
      <path id="Path_22502" data-name="Path 22502" d="M246.65,176.565a6.675,6.675,0,1,0,6.675-6.675A6.675,6.675,0,0,0,246.65,176.565Zm9.228-2.068a2.6,2.6,0,0,1,.652,1.552h1.011v.895h-.976a4.914,4.914,0,0,1-.233,1.259,3.247,3.247,0,0,1-.48.966l-1.1-.506a3.2,3.2,0,0,0,.425-.794,3.831,3.831,0,0,0,.212-.941h-1.487a7.269,7.269,0,0,1-.344,1.072,1.891,1.891,0,0,1-.551.733,1.466,1.466,0,0,1-.961.3,1.729,1.729,0,0,1-1.274-.541,2.619,2.619,0,0,1-.652-1.562h-1.011v-.9h.976a3.964,3.964,0,0,1,.546-1.82l1.1.45a3.479,3.479,0,0,0-.465,1.37h1.517a6.072,6.072,0,0,1,.324-1.062,1.865,1.865,0,0,1,.546-.733,1.517,1.517,0,0,1,.956-.293,1.689,1.689,0,0,1,1.264.551Z" transform="translate(-192.59 -155.16)" fill="#407bff"/>
      <g id="Group_19005" data-name="Group 19005" transform="translate(54.06 14.73)" opacity="0.3">
        <path id="Path_22503" data-name="Path 22503" d="M256.512,184.488a.475.475,0,0,0,.369-.172,1.476,1.476,0,0,0,.238-.506H255.85a.935.935,0,0,0,.253.506A.592.592,0,0,0,256.512,184.488Z" transform="translate(-251.198 -176.771)" fill="#fff"/>
        <path id="Path_22504" data-name="Path 22504" d="M261.41,181.417h1.234a.951.951,0,0,0-.233-.506.506.506,0,0,0-.384-.162.465.465,0,0,0-.369.167,1.411,1.411,0,0,0-.248.5Z" transform="translate(-253.947 -175.258)" fill="#fff"/>
        <path id="Path_22505" data-name="Path 22505" d="M246.65,176.565a6.675,6.675,0,1,0,6.675-6.675A6.675,6.675,0,0,0,246.65,176.565Zm9.228-2.068a2.6,2.6,0,0,1,.652,1.552h1.011v.895h-.976a4.914,4.914,0,0,1-.233,1.259,3.247,3.247,0,0,1-.48.966l-1.1-.506a3.2,3.2,0,0,0,.425-.794,3.831,3.831,0,0,0,.212-.941h-1.487a7.269,7.269,0,0,1-.344,1.072,1.891,1.891,0,0,1-.551.733,1.466,1.466,0,0,1-.961.3,1.729,1.729,0,0,1-1.274-.541,2.619,2.619,0,0,1-.652-1.562h-1.011v-.9h.976a3.964,3.964,0,0,1,.546-1.82l1.1.45a3.479,3.479,0,0,0-.465,1.37h1.517a6.072,6.072,0,0,1,.324-1.062,1.865,1.865,0,0,1,.546-.733,1.517,1.517,0,0,1,.956-.293,1.689,1.689,0,0,1,1.264.551Z" transform="translate(-246.65 -169.89)" fill="#fff"/>
      </g>
      <rect id="Rectangle_17449" data-name="Rectangle 17449" width="42.809" height="23.806" transform="translate(56.597 39.616) rotate(-67.5)" fill="#407bff"/>
      <rect id="Rectangle_17450" data-name="Rectangle 17450" width="42.809" height="23.806" transform="translate(56.597 39.616) rotate(-67.5)" fill="#fff" opacity="0.3"/>
      <path id="Path_22506" data-name="Path 22506" d="M288.982,153.485,273.9,147.24a1.825,1.825,0,0,1-2.382,1.011L258,180.856a1.82,1.82,0,0,1,.986,2.387l15.079,6.24a1.82,1.82,0,0,1,2.382-.986l13.516-32.625A1.825,1.825,0,0,1,288.982,153.485Z" transform="translate(-198.201 -143.963)" fill="#fff" opacity="0.8"/>
      <path id="Path_22507" data-name="Path 22507" d="M285.969,189.03a.47.47,0,0,0,.4,0,1.462,1.462,0,0,0,.415-.364l-1.178-.506a1.011,1.011,0,0,0,.045.561A.592.592,0,0,0,285.969,189.03Z" transform="translate(-211.84 -164.192)" fill="#407bff"/>
      <path id="Path_22508" data-name="Path 22508" d="M291.45,188.264l1.143.475a1.011,1.011,0,0,0-.03-.536.506.506,0,0,0-.3-.3.46.46,0,0,0-.4,0,1.415,1.415,0,0,0-.415.359Z" transform="translate(-214.737 -164.044)" fill="#407bff"/>
      <path id="Path_22509" data-name="Path 22509" d="M276.921,179.967a6.67,6.67,0,1,0,3.611-3.617A6.68,6.68,0,0,0,276.921,179.967Zm9.319,1.623a2.594,2.594,0,0,1,0,1.679l.93.384-.344.829-.9-.374a4.925,4.925,0,0,1-.7,1.077,3.268,3.268,0,0,1-.819.708l-.814-.87a3.6,3.6,0,0,0,1.249-1.36l-1.38-.571a6.758,6.758,0,0,1-.723.86,1.911,1.911,0,0,1-.789.47,1.517,1.517,0,0,1-1.011-.1,1.75,1.75,0,0,1-.971-1.011,2.594,2.594,0,0,1,0-1.689l-.92-.379.344-.829.9.374a3.934,3.934,0,0,1,1.2-1.471l.844.834a3.585,3.585,0,0,0-.956,1.087l1.406.587a6.423,6.423,0,0,1,.708-.86,1.936,1.936,0,0,1,.784-.465,1.487,1.487,0,0,1,1.011.1,1.7,1.7,0,0,1,.946.971Z" transform="translate(-207.302 -158.102)" fill="#407bff"/>
      <g id="Group_19006" data-name="Group 19006" transform="translate(69.108 17.739)" opacity="0.3">
        <path id="Path_22510" data-name="Path 22510" d="M285.969,189.03a.47.47,0,0,0,.4,0,1.462,1.462,0,0,0,.415-.364l-1.178-.506a1.011,1.011,0,0,0,.045.561A.592.592,0,0,0,285.969,189.03Z" transform="translate(-280.948 -181.931)" fill="#fff"/>
        <path id="Path_22511" data-name="Path 22511" d="M291.45,188.264l1.143.475a1.011,1.011,0,0,0-.03-.536.506.506,0,0,0-.3-.3.46.46,0,0,0-.4,0,1.415,1.415,0,0,0-.415.359Z" transform="translate(-283.845 -181.783)" fill="#fff"/>
        <path id="Path_22512" data-name="Path 22512" d="M276.921,179.967a6.67,6.67,0,1,0,3.611-3.617A6.68,6.68,0,0,0,276.921,179.967Zm9.319,1.623a2.594,2.594,0,0,1,0,1.679l.93.384-.344.829-.9-.374a4.925,4.925,0,0,1-.7,1.077,3.268,3.268,0,0,1-.819.708l-.814-.87a3.6,3.6,0,0,0,1.249-1.36l-1.38-.571a6.758,6.758,0,0,1-.723.86,1.911,1.911,0,0,1-.789.47,1.517,1.517,0,0,1-1.011-.1,1.75,1.75,0,0,1-.971-1.011,2.594,2.594,0,0,1,0-1.689l-.92-.379.344-.829.9.374a3.934,3.934,0,0,1,1.2-1.471l.844.834a3.585,3.585,0,0,0-.956,1.087l1.406.587a6.423,6.423,0,0,1,.708-.86,1.936,1.936,0,0,1,.784-.465,1.487,1.487,0,0,1,1.011.1,1.7,1.7,0,0,1,.946.971Z" transform="translate(-276.41 -175.842)" fill="#fff"/>
      </g>
      <rect id="Rectangle_17451" data-name="Rectangle 17451" width="42.809" height="23.806" transform="translate(64.991 39.641) rotate(-45)" fill="#407bff"/>
      <rect id="Rectangle_17452" data-name="Rectangle 17452" width="42.809" height="23.806" transform="translate(64.991 39.641) rotate(-45)" fill="#fff" opacity="0.3"/>
      <path id="Path_22513" data-name="Path 22513" d="M315.287,178.719,303.748,167.18a1.82,1.82,0,0,1-2.579,0L276.2,192.175a1.82,1.82,0,0,1,0,2.579l11.529,11.539a1.831,1.831,0,0,1,2.584,0l24.969-24.974a1.82,1.82,0,0,1,.005-2.6Z" transform="translate(-207.198 -153.821)" fill="#fff" opacity="0.8"/>
      <path id="Path_22514" data-name="Path 22514" d="M311.312,204.505a.47.47,0,0,0,.384.142,1.421,1.421,0,0,0,.506-.177l-.9-.9a1.011,1.011,0,0,0-.172.536A.582.582,0,0,0,311.312,204.505Z" transform="translate(-224.466 -171.81)" fill="#407bff"/>
      <path id="Path_22515" data-name="Path 22515" d="M316.68,206.09l.875.875a1.011,1.011,0,0,0,.177-.506.536.536,0,0,0-.162-.389.455.455,0,0,0-.374-.142A1.451,1.451,0,0,0,316.68,206.09Z" transform="translate(-227.209 -172.974)" fill="#407bff"/>
      <path id="Path_22516" data-name="Path 22516" d="M303.6,194.628a6.68,6.68,0,1,0,9.446,0A6.68,6.68,0,0,0,303.6,194.628Zm7.994,5.057a2.649,2.649,0,0,1-.637,1.552l.708.708-.632.632-.693-.688a4.925,4.925,0,0,1-1.057.728,3.2,3.2,0,0,1-1.011.344l-.425-1.123a3.166,3.166,0,0,0,.86-.268,3.5,3.5,0,0,0,.814-.506l-1.057-1.057a6.869,6.869,0,0,1-1.011.506,1.856,1.856,0,0,1-.905.126,1.472,1.472,0,0,1-.89-.47,1.73,1.73,0,0,1-.506-1.284,2.589,2.589,0,0,1,.647-1.562l-.7-.7.632-.637.693.693a3.944,3.944,0,0,1,1.669-.9l.465,1.1a3.539,3.539,0,0,0-1.3.637l1.077,1.077a6.509,6.509,0,0,1,.981-.506,1.83,1.83,0,0,1,.9-.126,1.451,1.451,0,0,1,.885.465,1.7,1.7,0,0,1,.5,1.274Z" transform="translate(-219.774 -166.422)" fill="#407bff"/>
      <g id="Group_19007" data-name="Group 19007" transform="translate(81.866 26.249)" opacity="0.3">
        <path id="Path_22517" data-name="Path 22517" d="M311.312,204.505a.47.47,0,0,0,.384.142,1.421,1.421,0,0,0,.506-.177l-.9-.9a1.011,1.011,0,0,0-.172.536A.582.582,0,0,0,311.312,204.505Z" transform="translate(-306.331 -198.059)" fill="#fff"/>
        <path id="Path_22518" data-name="Path 22518" d="M316.68,206.09l.875.875a1.011,1.011,0,0,0,.177-.506.536.536,0,0,0-.162-.389.455.455,0,0,0-.374-.142A1.451,1.451,0,0,0,316.68,206.09Z" transform="translate(-309.075 -199.224)" fill="#fff"/>
        <path id="Path_22519" data-name="Path 22519" d="M303.6,194.628a6.68,6.68,0,1,0,9.446,0A6.68,6.68,0,0,0,303.6,194.628Zm7.994,5.057a2.649,2.649,0,0,1-.637,1.552l.708.708-.632.632-.693-.688a4.925,4.925,0,0,1-1.057.728,3.2,3.2,0,0,1-1.011.344l-.425-1.123a3.166,3.166,0,0,0,.86-.268,3.5,3.5,0,0,0,.814-.506l-1.057-1.057a6.869,6.869,0,0,1-1.011.506,1.856,1.856,0,0,1-.905.126,1.472,1.472,0,0,1-.89-.47,1.73,1.73,0,0,1-.506-1.284,2.589,2.589,0,0,1,.647-1.562l-.7-.7.632-.637.693.693a3.944,3.944,0,0,1,1.669-.9l.465,1.1a3.539,3.539,0,0,0-1.3.637l1.077,1.077a6.509,6.509,0,0,1,.981-.506,1.83,1.83,0,0,1,.9-.126,1.451,1.451,0,0,1,.885.465,1.7,1.7,0,0,1,.5,1.274Z" transform="translate(-301.64 -192.672)" fill="#fff"/>
      </g>
      <rect id="Rectangle_17453" data-name="Rectangle 17453" width="42.809" height="23.806" transform="translate(72.741 42.88) rotate(-22.5)" fill="#407bff"/>
      <rect id="Rectangle_17454" data-name="Rectangle 17454" width="42.809" height="23.806" transform="translate(72.741 42.88) rotate(-22.5)" fill="#fff" opacity="0.3"/>
      <path id="Path_22520" data-name="Path 22520" d="M332.183,215.545l-6.245-15.074a1.82,1.82,0,0,1-2.382-1.011l-32.63,13.516a1.83,1.83,0,0,1-.986,2.387l6.245,15.074a1.82,1.82,0,0,1,2.382.986l32.63-13.486a1.825,1.825,0,0,1,.986-2.392Z" transform="translate(-213.99 -169.778)" fill="#fff" opacity="0.8"/>
      <path id="Path_22521" data-name="Path 22521" d="M328.726,228.565a.47.47,0,0,0,.3.273,1.406,1.406,0,0,0,.546.035l-.506-1.173a1.011,1.011,0,0,0-.364.425A.6.6,0,0,0,328.726,228.565Z" transform="translate(-233.137 -183.738)" fill="#407bff"/>
      <path id="Path_22522" data-name="Path 22522" d="M333.26,232.152l.47,1.138a.965.965,0,0,0,.359-.4.536.536,0,0,0,0-.415.46.46,0,0,0-.293-.278A1.431,1.431,0,0,0,333.26,232.152Z" transform="translate(-235.405 -185.935)" fill="#407bff"/>
      <path id="Path_22523" data-name="Path 22523" d="M322.63,218.411a6.675,6.675,0,1,0,8.723,3.615,6.675,6.675,0,0,0-8.723-3.615Zm5.441,7.737a2.6,2.6,0,0,1-1.183,1.193l.384.925-.824.344-.374-.9a4.84,4.84,0,0,1-1.254.268,3.257,3.257,0,0,1-1.077-.076l.035-1.2a3.176,3.176,0,0,0,.9.081,3.539,3.539,0,0,0,.951-.157l-.571-1.385a6.967,6.967,0,0,1-1.123.1,1.922,1.922,0,0,1-.89-.228,1.517,1.517,0,0,1-.642-.779,1.74,1.74,0,0,1,0-1.385,2.589,2.589,0,0,1,1.193-1.2l-.379-.915.829-.344.369.9a3.954,3.954,0,0,1,1.891-.192v1.188a3.585,3.585,0,0,0-1.441.1l.581,1.406a6.766,6.766,0,0,1,1.107-.106,1.9,1.9,0,0,1,.88.228,1.466,1.466,0,0,1,.637.769A1.689,1.689,0,0,1,328.071,226.148Z" transform="translate(-228.113 -178.894)" fill="#407bff"/>
      <g id="Group_19008" data-name="Group 19008" transform="translate(90.395 39.007)" opacity="0.3">
        <path id="Path_22524" data-name="Path 22524" d="M328.726,228.565a.47.47,0,0,0,.3.273,1.406,1.406,0,0,0,.546.035l-.506-1.173a1.011,1.011,0,0,0-.364.425A.6.6,0,0,0,328.726,228.565Z" transform="translate(-323.532 -222.745)" fill="#fff"/>
        <path id="Path_22525" data-name="Path 22525" d="M333.26,232.152l.47,1.138a.965.965,0,0,0,.359-.4.536.536,0,0,0,0-.415.46.46,0,0,0-.293-.278A1.431,1.431,0,0,0,333.26,232.152Z" transform="translate(-325.801 -224.942)" fill="#fff"/>
        <path id="Path_22526" data-name="Path 22526" d="M322.63,218.411a6.675,6.675,0,1,0,8.723,3.615,6.675,6.675,0,0,0-8.723-3.615Zm5.441,7.737a2.6,2.6,0,0,1-1.183,1.193l.384.925-.824.344-.374-.9a4.84,4.84,0,0,1-1.254.268,3.257,3.257,0,0,1-1.077-.076l.035-1.2a3.176,3.176,0,0,0,.9.081,3.539,3.539,0,0,0,.951-.157l-.571-1.385a6.967,6.967,0,0,1-1.123.1,1.922,1.922,0,0,1-.89-.228,1.517,1.517,0,0,1-.642-.779,1.74,1.74,0,0,1,0-1.385,2.589,2.589,0,0,1,1.193-1.2l-.379-.915.829-.344.369.9a3.954,3.954,0,0,1,1.891-.192v1.188a3.585,3.585,0,0,0-1.441.1l.581,1.406a6.766,6.766,0,0,1,1.107-.106,1.9,1.9,0,0,1,.88.228,1.466,1.466,0,0,1,.637.769A1.689,1.689,0,0,1,328.071,226.148Z" transform="translate(-318.509 -217.901)" fill="#fff"/>
      </g>
      <rect id="Rectangle_17455" data-name="Rectangle 17455" width="42.809" height="23.806" transform="translate(78.66 48.831)" fill="#006aff"/>
      <path id="Path_22527" data-name="Path 22527" d="M338.066,259.268V242.955a1.825,1.825,0,0,1-1.825-1.825H300.925a1.825,1.825,0,0,1-1.825,1.825v16.312a1.825,1.825,0,0,1,1.825,1.825H336.24a1.825,1.825,0,0,1,1.825-1.825Z" transform="translate(-218.519 -190.377)" fill="#fff" opacity="0.8"/>
      <path id="Path_22528" data-name="Path 22528" d="M335.58,257.532a.465.465,0,0,0,.167.369,1.41,1.41,0,0,0,.506.243V256.87a.976.976,0,0,0-.506.258A.566.566,0,0,0,335.58,257.532Z" transform="translate(-236.552 -198.158)" fill="#263238"/>
      <path id="Path_22529" data-name="Path 22529" d="M338.66,262.43v1.239a1.011,1.011,0,0,0,.48-.233.505.505,0,0,0,.162-.389.47.47,0,0,0-.162-.364A1.462,1.462,0,0,0,338.66,262.43Z" transform="translate(-238.075 -200.907)" fill="#263238"/>
      <path id="Path_22530" data-name="Path 22530" d="M331.1,247.67a6.68,6.68,0,1,0,6.68,6.675A6.68,6.68,0,0,0,331.1,247.67Zm2.068,9.233a2.6,2.6,0,0,1-1.547.647v1.011h-.9v-.976a4.909,4.909,0,0,1-1.264-.233,3.129,3.129,0,0,1-.966-.506l.506-1.092a3.225,3.225,0,0,0,.8.42,3.538,3.538,0,0,0,.941.217v-1.517a6.654,6.654,0,0,1-1.077-.339,1.927,1.927,0,0,1-.733-.551,1.472,1.472,0,0,1-.293-.961,1.719,1.719,0,0,1,.541-1.279,2.559,2.559,0,0,1,1.563-.647v-1.011h.895v.976a3.944,3.944,0,0,1,1.815.546l-.445,1.1a3.59,3.59,0,0,0-1.37-.465v1.517a6.328,6.328,0,0,1,1.062.329,1.85,1.85,0,0,1,.728.546,1.441,1.441,0,0,1,.293.951,1.689,1.689,0,0,1-.551,1.315Z" transform="translate(-231.035 -193.61)" fill="#263238"/>
    </g>
    <g id="freepik--Arrow--inject-13" transform="translate(120.113 147.452)">
      <path id="Path_22531" data-name="Path 22531" d="M257.528,239.76h0a.566.566,0,0,0-.556.582v.855a14.664,14.664,0,0,0-19.26.506.566.566,0,0,0,0,.814h0a.576.576,0,0,0,.794,0,13.5,13.5,0,0,1,17.733-.47h-.946a.576.576,0,0,0-.556.587h0a.566.566,0,0,0,.581.551l2.847-.066-.071-2.847A.566.566,0,0,0,257.528,239.76Z" transform="translate(-237.539 -237.837)" fill="#407bff"/>
    </g>
    <g id="freepik--device-1--inject-13" transform="translate(64.552 86.432)">
      <path id="Path_22532" data-name="Path 22532" d="M175.367,254.683H138.848a7.443,7.443,0,0,1-7.438-7.438V159.958a7.443,7.443,0,0,1,7.438-7.438h36.518a7.443,7.443,0,0,1,7.438,7.438v87.286A7.443,7.443,0,0,1,175.367,254.683Z" transform="translate(-129.514 -134.64)" fill="#006aff"/>
      <path id="Path_22533" data-name="Path 22533" d="M171.617,254.683H135.1a7.443,7.443,0,0,1-7.438-7.438V159.958a7.443,7.443,0,0,1,7.438-7.438h36.519a7.443,7.443,0,0,1,7.438,7.438v87.286a7.443,7.443,0,0,1-7.438,7.438Z" transform="translate(-127.66 -134.64)" fill="#263238"/>
      <path id="Path_22534" data-name="Path 22534" d="M173.268,155.885h-9.491a1.229,1.229,0,0,0-1.224,1.062l-.04.3a3.034,3.034,0,0,1-2.993,2.634H150.5a3.034,3.034,0,0,1-2.993-2.634l-.035-.3a1.239,1.239,0,0,0-1.229-1.077h-9.491A5.729,5.729,0,0,0,131,161.614V248.9a5.729,5.729,0,0,0,5.729,5.729h36.519a5.734,5.734,0,0,0,5.734-5.729V161.614a5.734,5.734,0,0,0-5.714-5.729Z" transform="translate(-129.311 -136.296)" fill="#407bff"/>
      <path id="Path_22535" data-name="Path 22535" d="M173.268,155.885h-9.491a1.229,1.229,0,0,0-1.224,1.062l-.04.3a3.034,3.034,0,0,1-2.993,2.634H150.5a3.034,3.034,0,0,1-2.993-2.634l-.035-.3a1.239,1.239,0,0,0-1.229-1.077h-9.491A5.729,5.729,0,0,0,131,161.614V248.9a5.729,5.729,0,0,0,5.729,5.729h36.519a5.734,5.734,0,0,0,5.734-5.729V161.614a5.734,5.734,0,0,0-5.714-5.729Z" transform="translate(-129.311 -136.296)" fill="#fff" opacity="0.8"/>
      <g id="Group_19009" data-name="Group 19009" transform="translate(22.031 19.832)" opacity="0.7">
        <path id="Path_22536" data-name="Path 22536" d="M172.686,157.1a.728.728,0,1,1-.723-.723A.728.728,0,0,1,172.686,157.1Z" transform="translate(-171.23 -156.38)"/>
        <path id="Path_22537" data-name="Path 22537" d="M181.141,156.38h-2.488a.723.723,0,1,0,0,1.446h2.488a.723.723,0,1,0,0-1.446Z" transform="translate(-174.542 -156.38)"/>
      </g>
      <rect id="Rectangle_17456" data-name="Rectangle 17456" width="0.769" height="0.769" transform="translate(5.684 22.815)" fill="#407bff"/>
      <path id="Path_22538" data-name="Path 22538" d="M141.93,161.529v.769h.769V160.76h-.769Z" transform="translate(-134.714 -138.713)" fill="#407bff"/>
      <path id="Path_22539" data-name="Path 22539" d="M144.97,159.25v2.3h.769v-2.3Z" transform="translate(-136.217 -137.967)" fill="#407bff"/>
      <path id="Path_22540" data-name="Path 22540" d="M209.914,159.35v.561h-.374v1.128h.374v.561h3.4v-2.25Zm1.517,1.689h-1.153v-1.128h1.128Z" transform="translate(-168.137 -138.016)" fill="#407bff"/>
      <path id="Path_22541" data-name="Path 22541" d="M178.387,187.6H177.25v-2.746a3.1,3.1,0,1,0-6.2,0V187.6h-1.138v-2.746a4.242,4.242,0,1,1,8.48,0Z" transform="translate(-148.544 -148.452)" fill="#263238"/>
      <path id="Path_22542" data-name="Path 22542" d="M167.67,192.5v8.849h10.745V192.5Zm5.941,4.394v1.421a.566.566,0,0,1-.566.566h0a.566.566,0,0,1-.566-.566v-1.431a1.047,1.047,0,1,1,1.133,0Z" transform="translate(-147.439 -154.404)" fill="#263238"/>
      <rect id="Rectangle_17457" data-name="Rectangle 17457" width="19.341" height="12.894" rx="3.95" transform="translate(15.751 65.442)" fill="#407bff"/>
      <rect id="Rectangle_17458" data-name="Rectangle 17458" width="19.341" height="3.423" transform="translate(15.751 67.652)" fill="#263238"/>
      <g id="Group_19010" data-name="Group 19010" transform="translate(17.642 74.114)" opacity="0.6">
        <path id="Path_22543" data-name="Path 22543" d="M171.278,267.517h-7.969a.758.758,0,0,1-.758-.759h0a.758.758,0,0,1,.758-.758h7.969a.758.758,0,0,1,.758.758h0A.758.758,0,0,1,171.278,267.517Z" transform="translate(-162.55 -264.852)" fill="#fff"/>
        <rect id="Rectangle_17459" data-name="Rectangle 17459" width="2.655" height="2.655" rx="1.327" transform="translate(12.899)" fill="#fff"/>
      </g>
      <path id="Path_22544" data-name="Path 22544" d="M178.346,279.714v-10.29h-4.374v-9.86h2.574a1.881,1.881,0,0,0,1.876-1.876V240.536a1.881,1.881,0,0,0-1.876-1.876h-23.26a1.881,1.881,0,0,0-1.876,1.876v17.152a1.881,1.881,0,0,0,1.876,1.876h2.569v7.873h-4.369v6.791a.559.559,0,1,0,.839.44.506.506,0,0,0-.192-.44v-6.184H156.5v-4.435h3.767v19.215a.536.536,0,1,0,.607,0V262.977h-4.394v-3.413h8.141v31.811a.541.541,0,1,0,.607,0V274.016h3.762v9.607a.531.531,0,0,0-.233.445.541.541,0,1,0,.839-.445V273.409h-4.369V259.564h8.141v3.413H169V266.9a.506.506,0,0,0-.233.44.539.539,0,1,0,.839-.44v-3.292h3.767v11.473a.536.536,0,1,0,.607,0v-5.052h3.767v9.683a.536.536,0,1,0,.607,0Zm-26.158-22.026V240.536a1.118,1.118,0,0,1,1.118-1.117h23.26a1.118,1.118,0,0,1,1.118,1.118v17.152a1.117,1.117,0,0,1-1.117,1.117h-23.26A1.117,1.117,0,0,1,152.188,257.688Z" transform="translate(-139.319 -177.223)" fill="#263238" opacity="0.1"/>
      <path id="Path_22545" data-name="Path 22545" d="M139.646,224.547a1.29,1.29,0,0,1-.506-.253l.187-.42a1.644,1.644,0,0,0,.44.233,1.736,1.736,0,0,0,.506.086.94.94,0,0,0,.506-.1.324.324,0,0,0,.162-.278.273.273,0,0,0-.091-.207.7.7,0,0,0-.228-.126c-.091-.03-.217-.066-.374-.1a4.269,4.269,0,0,1-.541-.162.865.865,0,0,1-.354-.248.647.647,0,0,1-.147-.455.748.748,0,0,1,.131-.44.905.905,0,0,1,.394-.319,1.643,1.643,0,0,1,.647-.116,2.057,2.057,0,0,1,.506.071,1.371,1.371,0,0,1,.445.187l-.167.425a1.77,1.77,0,0,0-.4-.172,1.425,1.425,0,0,0-.4-.061.854.854,0,0,0-.475.111.329.329,0,0,0-.157.288.253.253,0,0,0,.091.2.617.617,0,0,0,.228.126l.374.106a3.945,3.945,0,0,1,.536.157.865.865,0,0,1,.354.248.637.637,0,0,1,.147.45.723.723,0,0,1-.131.435.86.86,0,0,1-.394.314,1.584,1.584,0,0,1-.652.116,2.145,2.145,0,0,1-.627-.1Z" transform="translate(-133.335 -168.809)" fill="#263238"/>
      <path id="Path_22546" data-name="Path 22546" d="M147.019,224.193v.455H144.83V221.73h2.109v.45h-1.568v.764h1.411v.44h-1.411v.8Z" transform="translate(-136.148 -168.854)" fill="#263238"/>
      <path id="Path_22547" data-name="Path 22547" d="M150.686,224.476a1.421,1.421,0,0,1-.556-.536,1.573,1.573,0,0,1,0-1.517,1.431,1.431,0,0,1,.561-.536,1.628,1.628,0,0,1,.8-.2,1.729,1.729,0,0,1,.657.126,1.391,1.391,0,0,1,.506.364l-.354.329a1.011,1.011,0,0,0-.779-.344,1.107,1.107,0,0,0-.536.131.971.971,0,0,0-.374.369,1.051,1.051,0,0,0-.131.506,1.087,1.087,0,0,0,.131.506.925.925,0,0,0,.374.364,1.052,1.052,0,0,0,.536.131,1.011,1.011,0,0,0,.779-.344l.354.334a1.365,1.365,0,0,1-.506.364,1.709,1.709,0,0,1-.657.121,1.623,1.623,0,0,1-.8-.172Z" transform="translate(-138.671 -168.834)" fill="#263238"/>
      <path id="Path_22548" data-name="Path 22548" d="M156.576,224.349a1.315,1.315,0,0,1-.339-.976V221.73h.541v1.623c0,.576.248.86.743.86s.738-.283.738-.86V221.73h.506v1.653a1.335,1.335,0,0,1-.334.976,1.477,1.477,0,0,1-1.881,0Z" transform="translate(-141.785 -168.854)" fill="#263238"/>
      <path id="Path_22549" data-name="Path 22549" d="M164.711,224.642l-.6-.855h-.769v.849H162.8V221.72H164a1.663,1.663,0,0,1,.662.121.981.981,0,0,1,.43.359,1.083,1.083,0,0,1-.01,1.123.91.91,0,0,1-.46.354l.673.961Zm-.2-2.311a.829.829,0,0,0-.541-.152h-.632v1.168h.632a.8.8,0,0,0,.541-.157.6.6,0,0,0,0-.86Z" transform="translate(-145.031 -168.848)" fill="#263238"/>
      <path id="Path_22550" data-name="Path 22550" d="M171.019,224.193v.455H168.83V221.73h2.109v.45h-1.568v.764h1.411v.44h-1.411v.8Z" transform="translate(-148.012 -168.854)" fill="#263238"/>
      <path id="Path_22551" data-name="Path 22551" d="M178.491,221.881a1.028,1.028,0,0,1,.435,1.466.971.971,0,0,1-.435.364,1.638,1.638,0,0,1-.657.121h-.662v.844h-.541v-2.918h1.2A1.638,1.638,0,0,1,178.491,221.881Zm-.147,1.345a.587.587,0,0,0,0-.86.814.814,0,0,0-.536-.152h-.637v1.163h.657a.814.814,0,0,0,.506-.167Z" transform="translate(-151.868 -168.868)" fill="#263238"/>
      <path id="Path_22552" data-name="Path 22552" d="M183.741,223.97H182.28l-.288.678h-.561l1.315-2.918h.536l1.315,2.918h-.566Zm-.182-.425-.551-1.274-.546,1.274Z" transform="translate(-154.241 -168.854)" fill="#263238"/>
      <path id="Path_22553" data-name="Path 22553" d="M188.919,223.606v1.011h-.541v-1.011l-1.148-1.9h.582l.855,1.421.865-1.421h.531Z" transform="translate(-157.108 -168.844)" fill="#263238"/>
      <path id="Path_22554" data-name="Path 22554" d="M196.155,224.648v-1.937l-.961,1.6h-.243L194,222.736v1.911h-.506V221.73h.45l1.158,1.932,1.138-1.932h.445v2.918Z" transform="translate(-160.203 -168.854)" fill="#263238"/>
      <path id="Path_22555" data-name="Path 22555" d="M203.519,224.193v.455H201.33V221.73h2.134v.45h-1.593v.764h1.411v.44h-1.411v.8Z" transform="translate(-164.078 -168.854)" fill="#263238"/>
      <path id="Path_22556" data-name="Path 22556" d="M209.464,221.73v2.918h-.445l-1.613-1.977v1.977h-.536V221.73h.445l1.613,1.977V221.73Z" transform="translate(-166.817 -168.854)" fill="#263238"/>
      <path id="Path_22557" data-name="Path 22557" d="M213.766,222.185H212.8v-.455h2.478v.455h-.966v2.463h-.546Z" transform="translate(-169.748 -168.854)" fill="#263238"/>
      <path id="Path_22558" data-name="Path 22558" d="M177.979,124.27a.758.758,0,0,1-.758-.758c0-1.441-3.853-4.834-9.1-4.834-5.057,0-9.1,3.474-9.1,4.834a.758.758,0,0,1-1.517,0c0-2.447,4.869-6.351,10.619-6.351,5.876,0,10.619,3.843,10.619,6.351A.758.758,0,0,1,177.979,124.27Z" transform="translate(-142.411 -117.16)" fill="#407bff"/>
      <path id="Path_22559" data-name="Path 22559" d="M177.912,133.4a.758.758,0,0,1-.758-.758c0-.941-2.736-3.251-6.326-3.251s-6.311,2.488-6.311,3.251a.758.758,0,0,1-1.517,0c0-1.841,3.59-4.768,7.843-4.768,4.151,0,7.843,2.665,7.843,4.768a.758.758,0,0,1-.774.758Z" transform="translate(-145.13 -122.454)" fill="#407bff"/>
      <path id="Path_22560" data-name="Path 22560" d="M169.258,142.539a.769.769,0,0,1-.758-.774c0-1.391,2.447-3.186,5.057-3.186,2.715,0,5.057,1.75,5.057,3.186a.758.758,0,1,1-1.517,0c-.061-.425-1.517-1.669-3.54-1.669a4.181,4.181,0,0,0-3.54,1.694.748.748,0,0,1-.758.748Z" transform="translate(-147.849 -127.749)" fill="#407bff"/>
    </g>
    <g id="freepik--Character--inject-13" transform="translate(43.595 114.673)">
      <path id="Path_22561" data-name="Path 22561" d="M101.847,258.235A203.637,203.637,0,0,0,97.423,298.1c-.248,22.148,2.164,33.717,2.164,33.717h4.521s1.6-18.623,1.3-28.291c0-.9-.071-1.7-.137-2.4a25.6,25.6,0,0,1,.344-7.246h0l2.245-11.59h0a26.643,26.643,0,0,1,1.628-5.3c.066-.152.131-.314.2-.506a34.109,34.109,0,0,0,2.139-18.274Z" transform="translate(-91.746 -215.129)" fill="#407bff"/>
      <path id="Path_22562" data-name="Path 22562" d="M120.437,280.63a36.084,36.084,0,0,0,2.306-8.773c-.506-2.093-1.163-6.847-2.083-4.819-1.714,3.772-1.583,13.794-1.406,16.8a26.665,26.665,0,0,1,1.011-2.731A4.64,4.64,0,0,1,120.437,280.63Z" transform="translate(-102.498 -219.249)" opacity="0.1"/>
      <path id="Path_22563" data-name="Path 22563" d="M98.354,404.267h3.368a.314.314,0,0,1,.308.248l.693,3.165a.506.506,0,0,1-.389.627h-.111c-1.4-.025-2.65-.106-4.394-.106-2.063,0-1.517.243-3.964.268-1.461,0-1.724-1.643-1.1-1.724a6.9,6.9,0,0,0,4.748-2.225A1.254,1.254,0,0,1,98.354,404.267Z" transform="translate(-89.295 -287.33)" fill="#263238"/>
      <path id="Path_22564" data-name="Path 22564" d="M100.18,401.45l.531,1.805h5.309l.187-1.805Z" transform="translate(-93.118 -285.938)" fill="#407bff"/>
      <path id="Path_22565" data-name="Path 22565" d="M100.18,401.45l.531,1.805h5.309l.187-1.805Z" transform="translate(-93.118 -285.938)" fill="#fff" opacity="0.5"/>
      <path id="Path_22566" data-name="Path 22566" d="M120.49,258.26s.657,31.73,8.92,73.618l4.642-.1s-.855-23.533-2.154-33.171c-.051-.364-.1-.708-.152-1.011a37.285,37.285,0,0,1-.45-7.276v-.212l.637-16.227a81.959,81.959,0,0,0-1.406-15.6Z" transform="translate(-103.158 -215.153)" fill="#407bff"/>
      <path id="Path_22567" data-name="Path 22567" d="M134.513,404.267h3.368a.308.308,0,0,1,.3.248l.7,3.165a.505.505,0,0,1-.389.627h-.111c-1.406-.025-2.65-.106-4.4-.106-2.058,0-1.517.243-3.959.268-1.461,0-1.724-1.643-1.107-1.724a6.9,6.9,0,0,0,4.753-2.225A1.244,1.244,0,0,1,134.513,404.267Z" transform="translate(-107.169 -287.329)" fill="#263238"/>
      <path id="Path_22568" data-name="Path 22568" d="M97.219,204.23H95.141a.885.885,0,0,1-.86-.789l-.506-5.987a.713.713,0,0,1,.718-.794h2.078a.875.875,0,0,1,.86.794l.506,5.987a.713.713,0,0,1-.718.789Z" transform="translate(-89.95 -184.702)" fill="#407bff"/>
      <path id="Path_22569" data-name="Path 22569" d="M96.729,204.23H94.661a.875.875,0,0,1-.86-.789l-.506-5.987a.713.713,0,0,1,.723-.794h2.073a.885.885,0,0,1,.865.794l.506,5.987a.713.713,0,0,1-.733.789Z" transform="translate(-89.713 -184.702)" fill="#263238"/>
      <path id="Path_22570" data-name="Path 22570" d="M94.948,197.87a.4.4,0,0,1-.415.455.506.506,0,0,1-.506-.455.42.42,0,0,1,.42-.46A.506.506,0,0,1,94.948,197.87Z" transform="translate(-90.076 -185.073)" fill="#fff" opacity="0.3"/>
      <path id="Path_22571" data-name="Path 22571" d="M94.954,198.117a.192.192,0,0,1-.192.207.233.233,0,0,1-.222-.207.187.187,0,0,1,.187-.207A.233.233,0,0,1,94.954,198.117Z" transform="translate(-90.329 -185.32)" opacity="0.3"/>
      <path id="Path_22572" data-name="Path 22572" d="M98.1,207.278a.344.344,0,0,0-.587-.172,24.7,24.7,0,0,0-4.111,6.412c-2.088,4.607-8.439,6.73-6.533,9.663s9.648-5.325,11.124-7.585C99.148,213.745,98.415,209.022,98.1,207.278Z" transform="translate(-86.362 -189.813)" fill="#263238"/>
      <path id="Path_22573" data-name="Path 22573" d="M91.569,231.595a9.886,9.886,0,0,0,.46-6.225c-.981,1.067-2.083,1.982-3,2.832l-1.391,2.7a13.726,13.726,0,0,0,.1,1.684C88.57,233.218,90,232.667,91.569,231.595Z" transform="translate(-86.919 -198.894)" opacity="0.6"/>
      <path id="Path_22574" data-name="Path 22574" d="M106.456,210.724l-1.1-.344s-1.633,3.4-2.528,10.578a27.863,27.863,0,0,0,3.2-3.712C106.921,215.871,106.729,212.873,106.456,210.724Z" transform="translate(-94.428 -191.484)" opacity="0.6"/>
      <path id="Path_22575" data-name="Path 22575" d="M106.765,207.089c-.652,1.79-1.4,6.948-1.385,18.79,0,2.528-.389,8.6-.389,8.6h18.537l2.619-27.245a.844.844,0,0,0-.844-.93H107.9A1.209,1.209,0,0,0,106.765,207.089Z" transform="translate(-95.496 -189.467)" fill="#407bff"/>
      <path id="Path_22576" data-name="Path 22576" d="M106.765,207.089c-.652,1.79-1.4,6.948-1.385,18.79,0,2.528-.389,8.6-.389,8.6h18.537l2.619-27.245a.844.844,0,0,0-.844-.93H107.9A1.209,1.209,0,0,0,106.765,207.089Z" transform="translate(-95.496 -189.467)" fill="#fff" opacity="0.5"/>
      <path id="Path_22577" data-name="Path 22577" d="M120.956,204.755a8.413,8.413,0,0,1-1.674.035h-.536c-1.517,0-3.777.465-3.373,3.59a1.284,1.284,0,0,1,1.679-.2,17.638,17.638,0,0,0,1.375,3.474s3.181-2.109,4.141-2.9,2.336.561,2.336.561,3.034-4.95-3.11-4.617A5.443,5.443,0,0,0,120.956,204.755Z" transform="translate(-100.605 -188.67)" fill="#263238"/>
      <path id="Path_22578" data-name="Path 22578" d="M122.5,205.46c-1.659.187-5.244-1.072-2.154,6.159C120.343,211.619,132.135,204.368,122.5,205.46Z" transform="translate(-102.485 -188.997)" fill="#ebb376"/>
      <path id="Path_22579" data-name="Path 22579" d="M143.232,212.69l-1.052.9a24.7,24.7,0,0,0,.905,10.7h0l.981-10.224Z" transform="translate(-113.77 -192.626)" opacity="0.1"/>
      <path id="Path_22580" data-name="Path 22580" d="M141.945,207.42s-1.81,1.183-1.638,5.9C140.327,213.321,138.507,208.9,141.945,207.42Z" transform="translate(-112.725 -190.021)" opacity="0.1"/>
      <path id="Path_22581" data-name="Path 22581" d="M108.877,207.62s-1.76,3.641-1.2,10.073Z" transform="translate(-96.769 -190.12)" opacity="0.1"/>
      <path id="Path_22582" data-name="Path 22582" d="M125.706,191.22a25.627,25.627,0,0,0,1.578,7.979s-3.216,2.629-5.527.506a5.127,5.127,0,0,0,.066-3.828C121.033,193.784,125.706,191.22,125.706,191.22Z" transform="translate(-103.773 -182.013)" fill="#ebb376"/>
      <path id="Path_22583" data-name="Path 22583" d="M125.708,194.81h-1.3l-2.64,2.179a1.451,1.451,0,0,0,.071.657,5.057,5.057,0,0,1,.319,2.22C125.9,199.406,125.708,194.81,125.708,194.81Z" transform="translate(-103.785 -183.787)" opacity="0.1"/>
      <path id="Path_22584" data-name="Path 22584" d="M111.062,180.7c-1.81,1.173-1.274,4.111.612,5.32A8.476,8.476,0,0,0,111.062,180.7Z" transform="translate(-97.947 -176.812)" fill="#263238"/>
      <path id="Path_22585" data-name="Path 22585" d="M111.062,180.7c-1.81,1.173-1.274,4.111.612,5.32A8.476,8.476,0,0,0,111.062,180.7Z" transform="translate(-97.947 -176.812)" fill="#fff" opacity="0.2"/>
      <path id="Path_22586" data-name="Path 22586" d="M120.218,181.244c.678,3.1,1.234,4.869.162,6.917a4.116,4.116,0,0,1-5.562,1.8,4.071,4.071,0,0,1-1.755-1.714c-1.426-2.528-2.3-7.16.3-9.319a4.167,4.167,0,0,1,5.881.384A4.217,4.217,0,0,1,120.218,181.244Z" transform="translate(-98.811 -175.425)" fill="#ebb376"/>
      <path id="Path_22587" data-name="Path 22587" d="M119.4,188.779c.076.243,0,.506-.167.506a.438.438,0,0,1-.415-.349c-.071-.243,0-.506.172-.506A.416.416,0,0,1,119.4,188.779Z" transform="translate(-102.321 -180.633)" fill="#263238"/>
      <path id="Path_22588" data-name="Path 22588" d="M113.95,190.507c.071.248,0,.506-.167.506a.442.442,0,0,1-.42-.354c-.071-.248,0-.506.172-.531S113.879,190.259,113.95,190.507Z" transform="translate(-99.622 -181.471)" fill="#263238"/>
      <path id="Path_22589" data-name="Path 22589" d="M115.811,190.56a9.744,9.744,0,0,1-.561,2.493,1.471,1.471,0,0,0,1.234-.142Z" transform="translate(-100.568 -181.686)" fill="#d58745"/>
      <path id="Path_22590" data-name="Path 22590" d="M119.847,186.24a.192.192,0,0,0,.066-.03.152.152,0,0,0,0-.207h0a1.451,1.451,0,0,0-1.355-.243.152.152,0,0,0-.086.192h0a.152.152,0,0,0,.192.086h0a1.183,1.183,0,0,1,1.057.187A.137.137,0,0,0,119.847,186.24Z" transform="translate(-102.156 -179.277)" fill="#263238"/>
      <path id="Path_22591" data-name="Path 22591" d="M111.455,188.448a.162.162,0,0,0,.086-.111,1.244,1.244,0,0,1,.627-.925.152.152,0,0,0-.131-.273h0a1.562,1.562,0,0,0-.789,1.143.147.147,0,0,0,.121.172h0A.127.127,0,0,0,111.455,188.448Z" transform="translate(-98.588 -179.989)" fill="#263238"/>
      <path id="Path_22592" data-name="Path 22592" d="M119.615,196.093a2.4,2.4,0,0,1-.43.086.081.081,0,0,1-.1-.071h0a.086.086,0,0,1,.081-.1,2.377,2.377,0,0,0,1.785-1.153.081.081,0,0,1,.116-.04.091.091,0,0,1,.04.116A2.427,2.427,0,0,1,119.615,196.093Z" transform="translate(-102.466 -183.786)" fill="#263238"/>
      <path id="Path_22593" data-name="Path 22593" d="M126.831,177.08s3.489,1.052.248,9.825l-.789-3.413s-1.805.506-2.26-4.081Z" transform="translate(-104.908 -175.023)" fill="#263238"/>
      <path id="Path_22594" data-name="Path 22594" d="M126.831,177.08s3.489,1.052.248,9.825l-.789-3.413s-1.805.506-2.26-4.081Z" transform="translate(-104.908 -175.023)" fill="#fff" opacity="0.2"/>
      <path id="Path_22595" data-name="Path 22595" d="M129.905,187.591a2.822,2.822,0,0,1-.784,1.9c-.652.662-1.4.162-1.562-.708-.152-.794,0-2.083.829-2.412S129.915,186.716,129.905,187.591Z" transform="translate(-106.627 -179.572)" fill="#ebb376"/>
      <path id="Path_22596" data-name="Path 22596" d="M115.25,178.264c-1.972,1.517-6.7,1.208-8.06-.678-1.482-2.063.748-3.808,2.761-4.435a1.011,1.011,0,0,1,1.229.784.369.369,0,0,0,.142.233,8.09,8.09,0,0,1,1.385-.971,1.8,1.8,0,0,1,2.1.369c.233.212.8.258,1.952-.131,2.382-.8,2.705,1.633,1.628,2.286C117.52,176.247,116.044,177.642,115.25,178.264Z" transform="translate(-96.346 -173.011)" fill="#263238"/>
      <path id="Path_22597" data-name="Path 22597" d="M139.551,258.26l-2.109,3.034a11.265,11.265,0,0,0-1.755-.3,7.589,7.589,0,0,0-1.158.3l3.464,3.413,3.585-4.971Z" transform="translate(-110.099 -215.153)" fill="#ebb376"/>
      <path id="Path_22598" data-name="Path 22598" d="M143.72,206.994a.556.556,0,0,1,.86.192c1.279,2.741,6.316,13.89,5.658,18.371-.753,5.122-6.25,11.074-6.25,11.074l-2.488-2.109s4.045-6.857,4.045-10.4c0-2.336-1.4-4.971-2.265-7.312S140.509,209.73,143.72,206.994Z" transform="translate(-113.545 -189.747)" fill="#263238"/>
      <path id="Path_22599" data-name="Path 22599" d="M90.73,216.491l1.841-3.4a10.506,10.506,0,0,1-1.123-1.972,14.37,14.37,0,0,1,.167-3.064.794.794,0,0,1,.713-.748l1.446-.152a.8.8,0,0,1,.875.723,25.364,25.364,0,0,1,.415,4.49,32.707,32.707,0,0,1-2.109,5.421Z" transform="translate(-88.447 -189.889)" fill="#ebb376"/>
      <path id="Path_22600" data-name="Path 22600" d="M89.079,222l2.811,1.011s-1.906,9.355-4.768,8.151S89.079,222,89.079,222Z" transform="translate(-86.214 -197.228)" fill="#263238"/>
      <path id="Path_22601" data-name="Path 22601" d="M136.43,401.39l.526,1.81h5.314l.187-1.81Z" transform="translate(-111.038 -285.909)" fill="#407bff"/>
      <path id="Path_22602" data-name="Path 22602" d="M136.43,401.39l.526,1.81h5.314l.187-1.81Z" transform="translate(-111.038 -285.909)" fill="#fff" opacity="0.5"/>
    </g>
  </g>
</svg>
