<svg xmlns="http://www.w3.org/2000/svg" width="16.602" height="17.35" viewBox="0 0 16.602 17.35">
  <path id="open-house-list-real-estate-list-a-home-svgrepo-com" d="M7.192,11.938v4.211h4.731l1.355-1.337V11.938ZM9.9,15.568,8.44,14.111l.581-.582.877.877,1.634-1.628.581.582ZM7.192,11.938v4.211h4.731l1.355-1.337V11.938ZM9.9,15.568,8.44,14.111l.581-.582.877.877,1.634-1.628.581.582Zm4.981-9.523V2.176H12.746V4.084L10.267,1.82,1.94,9.273,3.206,10.7,4.49,9.541V19.17h11.49V9.612l1.263,1.159,1.3-1.391ZM11.8,9.808a.3.3,0,0,1,.592,0v.932a.3.3,0,0,1-.592,0Zm-3.715,0a.3.3,0,0,1,.592,0v.932a.3.3,0,0,1-.592,0Zm5.565,6.722H6.823V10.37h.925v.375a.629.629,0,1,0,1.258,0V10.37h2.456v.375a.629.629,0,1,0,1.258,0V10.37h.925Zm-6.455-.381h4.731l1.355-1.337V11.938H7.192Zm1.83-2.619.877.877,1.634-1.628.581.582L9.9,15.568,8.44,14.111Zm-1.83-1.591v4.211h4.731l1.355-1.337V11.938ZM9.9,15.568,8.44,14.111l.581-.582.877.877,1.634-1.628.581.582ZM7.192,11.938v4.211h4.731l1.355-1.337V11.938ZM9.9,15.568,8.44,14.111l.581-.582.877.877,1.634-1.628.581.582Z" transform="translate(-1.94 -1.82)" fill="#006aff"/>
</svg>
