<svg xmlns="http://www.w3.org/2000/svg" xmlns:xlink="http://www.w3.org/1999/xlink" width="375" height="349.625" viewBox="0 0 375 349.625">
  <defs>
    <clipPath id="clip-path">
      <path id="Path_27581" data-name="Path 27581" d="M136.089,248.609c-2.451-4.725-3.479-8.111-3.479-8.894,0-1.55,3.369-2.476,3.369-2.476,5.256-2.779,29.977,1.238,41.1,3.091a127.044,127.044,0,0,0,18.85,1.853s1.541-1.23,3.369-2.78,10.5-11.741,13.906-12.634a8.71,8.71,0,0,1,6.486,1.238s5.567,3.369,4.633,4.018S209.8,244.381,206.4,246.546s-10.5,1.238-16.685,2.476c-5.323,1.061-26.885,2.375-31.83,2.779a17.965,17.965,0,0,1-11.126-.926" transform="translate(-132.61 -226.551)" fill="#fff" stroke="#263238" stroke-linecap="round" stroke-linejoin="round" stroke-width="1"/>
    </clipPath>
    <clipPath id="clip-path-2">
      <path id="Path_27585" data-name="Path 27585" d="M276.163,284.7a6.578,6.578,0,0,1,5.829-3.512h56.18s4.06,0,2.847,7.715-17.873,54.824-21.9,69.066-4.877,44.262-4.877,44.262H246.86S252.2,330.446,276.163,284.7Z" transform="translate(-246.86 -281.19)" fill="#fff" stroke="#263238" stroke-linecap="round" stroke-linejoin="round" stroke-width="1"/>
    </clipPath>
    <clipPath id="clip-path-3">
      <path id="Path_27604" data-name="Path 27604" d="M132.609,242.18a1.352,1.352,0,0,0,0,.177A1.352,1.352,0,0,1,132.609,242.18Zm3.479,8.894a40.532,40.532,0,0,1-3.369-8.187,40.012,40.012,0,0,0,3.369,8.187Zm-3.462-8.667v.185A.454.454,0,0,0,132.626,242.407Zm.042.236a1.581,1.581,0,0,0,.051.244A1.58,1.58,0,0,1,132.668,242.643Zm3.42,8.423a77.154,77.154,0,0,0,11.657,16.441c11.126,12.053,43.268,43.579,46.325,45.744s2.165,8.339,0,14.521-10.2,15.161-9.888,25.032,3.369,25.032,3.091,28.123-8.01,13.6-8.01,13.6h79.73s-9.939-12.634-9.939-16.955,13.645-59.683,14.26-63.7-1.853-6.8-6.8-7.109-23.794-4.329-24.721-7.42,4.944-14.832,4.944-14.832l-18.53.927s-.927,8.035-2.165,9.585-3.091-1.55-7.42-3.706-12.634-4.018-15.759-6.494S160.11,254.5,160.11,254.5" transform="translate(-132.607 -242.18)" fill="#fff" stroke="#263238" stroke-linecap="round" stroke-linejoin="round" stroke-width="1"/>
    </clipPath>
    <clipPath id="clip-path-4">
      <path id="Path_27610" data-name="Path 27610" d="M245.632,307.272c-.926-3.083,4.944-14.832,4.944-14.832l-18.53.926s-.926,8.035-2.165,9.585-3.091-1.55-7.421-3.706c-.329-.168-.691-.329-1.061-.489l-1.12,17.612s1.626,17.056,21.116,13.813c7.892-1.314,16.315-8.355,23.584-16.273C257.5,312.537,246.34,309.639,245.632,307.272Z" transform="translate(-220.28 -292.44)" fill="#fff" stroke="#263238" stroke-linecap="round" stroke-linejoin="round" stroke-width="1"/>
    </clipPath>
    <clipPath id="clip-path-5">
      <path id="Path_27614" data-name="Path 27614" d="M219.539,298.193c-1.238,1.541-3.091-1.55-7.42-3.706-2.729-1.373-7.075-2.619-10.672-3.967-1.019-2.417-2.367-5.567-3.234-7.471-1.541-3.369-4.018-1.238-4.018-1.238a18.024,18.024,0,0,1-3.091-4.944c-1.541-3.369-4.018-3.091-7.412-3.706s-10.512-7.109-10.512-7.109-3.327-2.527-4.7-3.782c-1.6,3.15-5.433,8.692-13.721,12.154,13.215,13.8,40.025,40.033,42.838,42,3.091,2.156,2.165,8.338,0,14.521s-10.2,15.161-9.888,25.032,3.369,25.032,3.091,28.124c-.278,2.754-6.443,11.387-7.783,13.241l3.142.354h16.357c-.093-8.288-.084-42.114,5.584-55.59C214.6,326.62,219.539,298.193,219.539,298.193Z" transform="translate(-154.76 -262.27)" fill="#006aff" stroke="#263238" stroke-linecap="round" stroke-linejoin="round" stroke-width="1"/>
    </clipPath>
    <clipPath id="clip-path-6">
      <path id="Path_27618" data-name="Path 27618" d="M229.167,303.578s-3.841-1.179-6.207.893-5.9,12.7-7.976,24.232a32.226,32.226,0,0,0,2.527,19.836s4.86-12.744,6.334-18.951S229.167,303.578,229.167,303.578Z" transform="translate(-214.41 -303.243)" fill="#006aff" stroke="#263238" stroke-linecap="round" stroke-linejoin="round" stroke-width="1"/>
    </clipPath>
    <clipPath id="clip-path-7">
      <path id="Path_27623" data-name="Path 27623" d="M239.582,405.235h36.033s-9.939-12.634-9.939-16.955,13.645-59.684,14.26-63.7-1.853-6.8-6.8-7.109-23.794-4.329-24.721-7.42c0,0-7.109,25.032-9.577,42.029C236.718,366.659,238.917,396.914,239.582,405.235Z" transform="translate(-237.938 -310.05)" fill="#006aff" stroke="#263238" stroke-linecap="round" stroke-linejoin="round" stroke-width="1"/>
    </clipPath>
    <clipPath id="clip-path-8">
      <path id="Path_27627" data-name="Path 27627" d="M248.587,310.05s-9.535,30.322-9.577,42.029c0,0,13.544-16.4,15.313-27.921S248.587,310.05,248.587,310.05Z" transform="translate(-239.01 -310.05)" fill="#006aff" stroke="#263238" stroke-linecap="round" stroke-linejoin="round" stroke-width="1"/>
    </clipPath>
    <clipPath id="clip-path-9">
      <path id="Path_27632" data-name="Path 27632" d="M370.176,414.718s6.982.286,11.556.943a83.563,83.563,0,0,0,9.2.733s-2.527-5.1-5.222-6.545-7.581-4.018-11.674-3.445-9.947,4.7-9.459,6.014S367.245,414.322,370.176,414.718Z" transform="translate(-364.546 -406.323)" fill="#fff" stroke="#263238" stroke-linecap="round" stroke-linejoin="round" stroke-width="1"/>
    </clipPath>
    <clipPath id="clip-path-10">
      <path id="Path_27637" data-name="Path 27637" d="M385,413.28s5.534-2.872,6.915-2.83,10.562,6.25,10.107,7.244a2.645,2.645,0,0,1-2.9,1.078c-1.019-.48-7.2-3.108-7.2-3.108l-4.043.952Z" transform="translate(-385 -410.449)" fill="#fff" stroke="#263238" stroke-linecap="round" stroke-linejoin="round" stroke-width="1"/>
    </clipPath>
    <clipPath id="clip-path-11">
      <path id="Path_27642" data-name="Path 27642" d="M380.31,408.193s7.378-.236,8.844.505,8.086,12.1,7.092,12.92-3.74.581-3.655-.337-6.1-7-6.1-7l-4.809-1.053Z" transform="translate(-380.31 -408.158)" fill="#fff" stroke="#263238" stroke-linecap="round" stroke-linejoin="round" stroke-width="1"/>
    </clipPath>
    <clipPath id="clip-path-12">
      <path id="Path_27647" data-name="Path 27647" d="M375.12,406.383s7.471-.244,8.953.514,8.187,12.238,7.176,13.08-3.773.581-3.689-.345-6.174-7.083-6.174-7.083l-4.868-1.07Z" transform="translate(-375.12 -406.346)" fill="#fff" stroke="#263238" stroke-linecap="round" stroke-linejoin="round" stroke-width="1"/>
    </clipPath>
    <clipPath id="clip-path-13">
      <path id="Path_27651" data-name="Path 27651" d="M273.581,349.539c5.407,8.33,16.264,29.438,19.431,31.813,4.944,3.706,38,12.7,41.179,15.161s2.965,4.927,5.98,5.828a160.452,160.452,0,0,0,18.631,3.891c4.312.4,2.384-2.266,2.384-2.266l-7.353-5.054,6.41-1.583s6.427,7.732,7.631,8.153,3.327,0,3.192-.952c-.236-1.524-7.092-14-9.526-14.529s-17.208,1.516-17.208,1.516-30.987-20.9-31.543-21.638c0,0-1.853-5.256-3.369-7.421s-2.476-1.541-2.476-1.541.623-2.788-.3-3.714l-4.944-4.944-.177.236c-.842-1.685-1.685-3.6-2.611-5.795-2.586-6.09-11.741-23.179-13.283-25.647-1.154-1.845-10.823-3.167-15.725-3.723" transform="translate(-269.9 -317.33)" fill="#006aff" stroke="#263238" stroke-linecap="round" stroke-linejoin="round" stroke-width="1"/>
    </clipPath>
    <clipPath id="clip-path-14">
      <path id="Path_27661" data-name="Path 27661" d="M338.5,406.394c3.192,2.468,2.965,4.927,5.98,5.829a160.446,160.446,0,0,0,18.631,3.891c4.313.4,2.384-2.266,2.384-2.266l-7.353-5.054,6.41-1.583s6.427,7.732,7.631,8.153,3.5.573,3.192-.952c-.59-2.948-7.092-14-9.526-14.529s-17.208,1.516-17.208,1.516-28.225-19.372-31.316-21.47c-11.986,1.154-17.688,7.429-20.088,11.194l.084.067C302.268,394.931,335.319,403.926,338.5,406.394Z" transform="translate(-297.24 -379.93)" fill="#fff" stroke="#263238" stroke-linecap="round" stroke-linejoin="round" stroke-width="1"/>
    </clipPath>
    <clipPath id="clip-path-15">
      <path id="Path_27666" data-name="Path 27666" d="M252.2,236.73l-25.369,10.587a37.4,37.4,0,0,1-3.26,12.9c-3,6.342-1.247,18.345,1.634,24.822s15.574,3.942,20.215,3.133a50.04,50.04,0,0,0,9.206-2.687,8.558,8.558,0,0,0,8.221-1.146S249.265,246.222,252.2,236.73Z" transform="translate(-222.007 -236.73)" fill="#fff" stroke="#263238" stroke-linecap="round" stroke-linejoin="round" stroke-width="1"/>
    </clipPath>
    <clipPath id="clip-path-16">
      <path id="Path_27684" data-name="Path 27684" d="M156.733,413.589a14.9,14.9,0,0,1-5.306-1.263,1.836,1.836,0,1,1,1.449-3.369c1.685.716,3.866,1.162,4.447.91,1.07-1.2,2.712-8.423.59-11.91-.48-.775-.927-.918-1.221-.952-1.2-.169-2.99,1.07-3.622,1.685a1.841,1.841,0,0,1-2.527-2.678c.328-.32,3.369-3.057,6.612-2.619a5.29,5.29,0,0,1,3.858,2.662c3.125,5.1.985,14.79-1.415,16.711A4.532,4.532,0,0,1,156.733,413.589Z" transform="translate(-149.964 -393.344)" fill="#fff" stroke="#263238" stroke-linecap="round" stroke-linejoin="round" stroke-width="1"/>
    </clipPath>
    <clipPath id="clip-path-17">
      <rect id="Rectangle_17560" data-name="Rectangle 17560" width="20.257" height="26.885" fill="#fff" stroke="#263238" stroke-linecap="round" stroke-linejoin="round" stroke-width="1"/>
    </clipPath>
  </defs>
  <g id="Group_42432" data-name="Group 42432" transform="translate(35.291 90.388)">
    <g id="Group_42431" data-name="Group 42431" transform="translate(-35.291 -111.977)">
      <g id="svgexport-6_63_" data-name="svgexport-6 (63)" transform="translate(279.417 174.74)" opacity="0.04">
        <g id="Group_19011" data-name="Group 19011">
          <path id="Path_22603" data-name="Path 22603" d="M99.6,63.656a7.322,7.322,0,0,0-10.34,0l-.1.1V35.736l3.271,2.17a1.447,1.447,0,0,0,2-.4L99,30.626a1.446,1.446,0,0,0-.4-2L62.686,4.8a1.446,1.446,0,0,0-1.6,0l-35.9,23.824a1.447,1.447,0,0,0-.406,2L29.339,37.5a1.446,1.446,0,0,0,2,.4l3.271-2.17V63.748H24.919V61.84a1.445,1.445,0,0,0-1.446-1.446H7.609a1.446,1.446,0,0,0,0,2.892H22.027V99.9H7.609a1.446,1.446,0,0,0,0,2.892H23.474a1.445,1.445,0,0,0,1.446-1.446V99.435H70.062a9.842,9.842,0,0,0,7.006-2.9L99.6,74a7.311,7.311,0,0,0,0-10.34ZM30.948,34.7l-2.962-4.462,33.9-22.5,33.9,22.494-2.962,4.462-30.139-20a1.446,1.446,0,0,0-1.6,0Zm6.558-.879L61.887,17.64l24.38,16.178V66.649L76.315,76.6a7.317,7.317,0,0,0-6.825-4.71H52.869l-3.505-3.636a14.782,14.782,0,0,0-10.592-4.505H37.506ZM97.559,71.951,75.025,94.488a6.973,6.973,0,0,1-4.958,2.055H24.919v-29.9H38.773a11.877,11.877,0,0,1,8.511,3.618l3.932,4.081a1.444,1.444,0,0,0,1.04.443H69.489a4.421,4.421,0,1,1,0,8.842H48.566a1.446,1.446,0,0,0,0,2.892H69.489A7.318,7.318,0,0,0,76.71,80.3l14.6-14.6a4.42,4.42,0,1,1,6.25,6.25Z" transform="translate(-6.163 -4.557)" fill="#fff"/>
          <path id="Path_22604" data-name="Path 22604" d="M70.413,69.01A15.164,15.164,0,1,0,55.249,53.847,15.164,15.164,0,0,0,70.413,69.01Zm0-27.434A12.272,12.272,0,1,1,58.141,53.848,12.272,12.272,0,0,1,70.413,41.577Z" transform="translate(-14.689 -10.484)" fill="#fff"/>
          <path id="Path_22605" data-name="Path 22605" d="M67.458,58.58,65.77,60.666a9.612,9.612,0,0,0,5.462,2.508v1.57h2.133v-1.5c3.4-.235,5.345-2.2,5.345-4.9,0-2.859-2.133-3.961-5.345-4.688V49.252a7.658,7.658,0,0,1,3.328,1.758l1.594-2.157a8.724,8.724,0,0,0-4.922-2.18V45.219H71.232v1.43c-2.883.351-4.829,2.3-4.829,4.828,0,2.766,1.946,3.8,4.829,4.545v4.57A8.008,8.008,0,0,1,67.458,58.58Zm5.906-2.016c1.664.5,2.414.985,2.414,2.066,0,1.032-.82,1.923-2.414,2.11ZM69.356,51.22A2.213,2.213,0,0,1,71.232,49.2v3.89C69.967,52.65,69.356,52.158,69.356,51.22Z" transform="translate(-16.516 -11.62)" fill="#fff"/>
        </g>
      </g>
      <g id="svgexport-6_63_2" data-name="svgexport-6 (63)" transform="translate(0 272.977)" opacity="0.07">
        <g id="Group_19011-2" data-name="Group 19011">
          <path id="Path_22603-2" data-name="Path 22603" d="M99.6,63.656a7.322,7.322,0,0,0-10.34,0l-.1.1V35.736l3.271,2.17a1.447,1.447,0,0,0,2-.4L99,30.626a1.446,1.446,0,0,0-.4-2L62.686,4.8a1.446,1.446,0,0,0-1.6,0l-35.9,23.824a1.447,1.447,0,0,0-.406,2L29.339,37.5a1.446,1.446,0,0,0,2,.4l3.271-2.17V63.748H24.919V61.84a1.445,1.445,0,0,0-1.446-1.446H7.609a1.446,1.446,0,0,0,0,2.892H22.027V99.9H7.609a1.446,1.446,0,0,0,0,2.892H23.474a1.445,1.445,0,0,0,1.446-1.446V99.435H70.062a9.842,9.842,0,0,0,7.006-2.9L99.6,74a7.311,7.311,0,0,0,0-10.34ZM30.948,34.7l-2.962-4.462,33.9-22.5,33.9,22.494-2.962,4.462-30.139-20a1.446,1.446,0,0,0-1.6,0Zm6.558-.879L61.887,17.64l24.38,16.178V66.649L76.315,76.6a7.317,7.317,0,0,0-6.825-4.71H52.869l-3.505-3.636a14.782,14.782,0,0,0-10.592-4.505H37.506ZM97.559,71.951,75.025,94.488a6.973,6.973,0,0,1-4.958,2.055H24.919v-29.9H38.773a11.877,11.877,0,0,1,8.511,3.618l3.932,4.081a1.444,1.444,0,0,0,1.04.443H69.489a4.421,4.421,0,1,1,0,8.842H48.566a1.446,1.446,0,0,0,0,2.892H69.489A7.318,7.318,0,0,0,76.71,80.3l14.6-14.6a4.42,4.42,0,1,1,6.25,6.25Z" transform="translate(-6.163 -4.557)" fill="#fff"/>
          <path id="Path_22604-2" data-name="Path 22604" d="M70.413,69.01A15.164,15.164,0,1,0,55.249,53.847,15.164,15.164,0,0,0,70.413,69.01Zm0-27.434A12.272,12.272,0,1,1,58.141,53.848,12.272,12.272,0,0,1,70.413,41.577Z" transform="translate(-14.689 -10.484)" fill="#fff"/>
          <path id="Path_22605-2" data-name="Path 22605" d="M67.458,58.58,65.77,60.666a9.612,9.612,0,0,0,5.462,2.508v1.57h2.133v-1.5c3.4-.235,5.345-2.2,5.345-4.9,0-2.859-2.133-3.961-5.345-4.688V49.252a7.658,7.658,0,0,1,3.328,1.758l1.594-2.157a8.724,8.724,0,0,0-4.922-2.18V45.219H71.232v1.43c-2.883.351-4.829,2.3-4.829,4.828,0,2.766,1.946,3.8,4.829,4.545v4.57A8.008,8.008,0,0,1,67.458,58.58Zm5.906-2.016c1.664.5,2.414.985,2.414,2.066,0,1.032-.82,1.923-2.414,2.11ZM69.356,51.22A2.213,2.213,0,0,1,71.232,49.2v3.89C69.967,52.65,69.356,52.158,69.356,51.22Z" transform="translate(-16.516 -11.62)" fill="#fff"/>
        </g>
      </g>
      <g id="Forgot_password-bro-2" data-name="Forgot password-bro-2" transform="translate(33.541 21.588)">
        <g id="freepik--Character--inject-31" transform="translate(46.456 120.892)">
          <path id="Path_27578" data-name="Path 27578" d="M136.089,248.609c-2.451-4.725-3.479-8.111-3.479-8.894,0-1.55,3.369-2.476,3.369-2.476,5.256-2.779,29.977,1.238,41.1,3.091a127.044,127.044,0,0,0,18.85,1.853s1.541-1.23,3.369-2.78,10.5-11.741,13.906-12.634a8.71,8.71,0,0,1,6.486,1.238s5.567,3.369,4.633,4.018S209.8,244.381,206.4,246.546s-10.5,1.238-16.685,2.476c-5.323,1.061-26.885,2.375-31.83,2.779a17.965,17.965,0,0,1-11.126-.926" transform="translate(-132.607 -219.795)" fill="#fff"/>
          <g id="Group_42413" data-name="Group 42413" transform="translate(0.003 6.755)" clip-path="url(#clip-path)">
            <path id="Path_27579" data-name="Path 27579" d="M219.763,227.965a8.557,8.557,0,0,0-6.485-1.238c-3.394.926-12.053,11.126-13.906,12.634S196,242.14,196,242.14a127.043,127.043,0,0,1-18.85-1.853c-11.126-1.853-35.847-5.9-41.1-3.091,0,0-3.369.926-3.369,2.476a10.632,10.632,0,0,0,.665,2.527l.463.168a171.919,171.919,0,0,1,19.5-.329c13.325.32,44.144,2.148,46.123,2.864.842.32,6.814-1.028,13.434-3.369,5.054-4.119,10.992-9.265,11.59-9.627C225.33,231.359,219.763,227.965,219.763,227.965Z" transform="translate(-132.621 -226.542)" fill="#006aff"/>
            <path id="Path_27580" data-name="Path 27580" d="M219.763,227.965a8.557,8.557,0,0,0-6.485-1.238c-3.394.926-12.053,11.126-13.906,12.634S196,242.14,196,242.14a127.043,127.043,0,0,1-18.85-1.853c-11.126-1.853-35.847-5.9-41.1-3.091,0,0-3.369.926-3.369,2.476a10.632,10.632,0,0,0,.665,2.527l.463.168a171.919,171.919,0,0,1,19.5-.329c13.325.32,44.144,2.148,46.123,2.864.842.32,6.814-1.028,13.434-3.369,5.054-4.119,10.992-9.265,11.59-9.627C225.33,231.359,219.763,227.965,219.763,227.965Z" transform="translate(-132.621 -226.542)" fill="#fff" opacity="0.5"/>
          </g>
          <path id="Path_27582" data-name="Path 27582" d="M136.089,248.609c-2.451-4.725-3.479-8.111-3.479-8.894,0-1.55,3.369-2.476,3.369-2.476,5.256-2.779,29.977,1.238,41.1,3.091a127.044,127.044,0,0,0,18.85,1.853s1.541-1.23,3.369-2.78,10.5-11.741,13.906-12.634a8.71,8.71,0,0,1,6.486,1.238s5.567,3.369,4.633,4.018S209.8,244.381,206.4,246.546s-10.5,1.238-16.685,2.476c-5.323,1.061-26.885,2.375-31.83,2.779a17.965,17.965,0,0,1-11.126-.926" transform="translate(-132.607 -219.795)" fill="none" stroke="#263238" stroke-linecap="round" stroke-linejoin="round" stroke-width="1"/>
          <path id="Path_27583" data-name="Path 27583" d="M276.163,284.7a6.578,6.578,0,0,1,5.829-3.512h56.18s4.06,0,2.847,7.715-17.873,54.824-21.9,69.066-4.877,44.262-4.877,44.262H246.86S252.2,330.446,276.163,284.7Z" transform="translate(-150.627 -228.414)" fill="#fff"/>
          <g id="Group_42414" data-name="Group 42414" transform="translate(96.233 52.776)" clip-path="url(#clip-path-2)">
            <path id="Path_27584" data-name="Path 27584" d="M301.454,281.19H281.98a6.578,6.578,0,0,0-5.829,3.512c-23.963,45.744-29.362,117.506-29.362,117.506h30.221l7.454-28.309,31.08,6.41c.219-2.375.472-4.793.766-7.176l-.682-7.58s-6.368-6.7-8.372-8.372-.674-4.7-1.011-17.764-12.062-22.455-16.424-30.5,2.35-13.072,8.381-21.116C300.35,284.9,301.226,282.757,301.454,281.19Z" transform="translate(-246.849 -281.19)" opacity="0.16"/>
          </g>
          <path id="Path_27586" data-name="Path 27586" d="M276.163,284.7a6.578,6.578,0,0,1,5.829-3.512h56.18s4.06,0,2.847,7.715-17.873,54.824-21.9,69.066-4.877,44.262-4.877,44.262H246.86S252.2,330.446,276.163,284.7Z" transform="translate(-150.627 -228.414)" fill="none" stroke="#263238" stroke-linecap="round" stroke-linejoin="round" stroke-width="1"/>
          <path id="Path_27587" data-name="Path 27587" d="M340.022,294.586c-5.677,13.249-17.688,65.7-19.642,107.617H325.8s.842-30.052,4.877-44.262,20.712-61.326,21.9-69.066-2.847-7.715-2.847-7.715S344.579,283.965,340.022,294.586Z" transform="translate(-162.223 -228.409)" fill="#263238" stroke="#263238" stroke-linecap="round" stroke-linejoin="round" stroke-width="1"/>
          <path id="Path_27588" data-name="Path 27588" d="M224.166,258.226s-8.962-5.256-12.356-14.521S238.384,219.6,251.4,218.673s16.685,2.468,24.426,15.759,12.979,31.518,8.962,40.48-10.815,11.126-5.9,18.53,18.85,28.427,17.924,38.315-10.5,18.53-24.426,19.473-32.453-7.42-47.9-21.057-11.438-33.691-5.9-40.176,13.906-8.962,14.521-15.447S224.166,258.226,224.166,258.226Z" transform="translate(-145.057 -218.531)" fill="#263238" stroke="#263238" stroke-linecap="round" stroke-linejoin="round" stroke-width="1"/>
          <path id="Path_27589" data-name="Path 27589" d="M271.88,248.25c4.759,8.861,10.714,20.728,12.575,27.9,3.251,12.55-13.476,20.45-8.835,26.49" transform="translate(-154.574 -223.218)" fill="none" stroke="#fff" stroke-linecap="round" stroke-linejoin="round" stroke-width="1"/>
          <path id="Path_27590" data-name="Path 27590" d="M264.18,234.47s1.853,3.159,4.413,7.808" transform="translate(-153.359 -221.045)" fill="none" stroke="#fff" stroke-linecap="round" stroke-linejoin="round" stroke-width="1"/>
          <path id="Path_27591" data-name="Path 27591" d="M293.82,260.94a22.814,22.814,0,0,1,1.061,5.121" transform="translate(-158.034 -225.22)" fill="none" stroke="#fff" stroke-linecap="round" stroke-linejoin="round" stroke-width="1"/>
          <path id="Path_27592" data-name="Path 27592" d="M268,229s14.639,10.815,20.484,23.761" transform="translate(-153.962 -220.182)" fill="none" stroke="#fff" stroke-linecap="round" stroke-linejoin="round" stroke-width="1"/>
          <path id="Path_27593" data-name="Path 27593" d="M239.323,238.63c-10.453,2.931-25.487,7.69-24.266,10.436" transform="translate(-145.6 -221.701)" fill="none" stroke="#fff" stroke-linecap="round" stroke-linejoin="round" stroke-width="1"/>
          <path id="Path_27594" data-name="Path 27594" d="M254.309,235.57s-2.232.556-5.559,1.449" transform="translate(-150.925 -221.218)" fill="none" stroke="#fff" stroke-linecap="round" stroke-linejoin="round" stroke-width="1"/>
          <path id="Path_27595" data-name="Path 27595" d="M240,228.623a53.906,53.906,0,0,1,18.53-2.443" transform="translate(-149.545 -219.729)" fill="none" stroke="#fff" stroke-linecap="round" stroke-linejoin="round" stroke-width="1"/>
          <path id="Path_27596" data-name="Path 27596" d="M234.94,230.92a23.347,23.347,0,0,1,2.931-1.28" transform="translate(-148.747 -220.283)" fill="none" stroke="#fff" stroke-linecap="round" stroke-linejoin="round" stroke-width="1"/>
          <path id="Path_27597" data-name="Path 27597" d="M132.609,242.18a1.352,1.352,0,0,0,0,.177A1.352,1.352,0,0,1,132.609,242.18Zm3.479,8.894a40.532,40.532,0,0,1-3.369-8.187,40.012,40.012,0,0,0,3.369,8.187Zm-3.462-8.667v.185A.454.454,0,0,0,132.626,242.407Zm.042.236a1.581,1.581,0,0,0,.051.244A1.58,1.58,0,0,1,132.668,242.643Zm3.42,8.423a77.154,77.154,0,0,0,11.657,16.441c11.126,12.053,43.268,43.579,46.325,45.744s2.165,8.339,0,14.521-10.2,15.161-9.888,25.032,3.369,25.032,3.091,28.123-8.01,13.6-8.01,13.6h79.73s-9.939-12.634-9.939-16.955,13.645-59.683,14.26-63.7-1.853-6.8-6.8-7.109-23.794-4.329-24.721-7.42,4.944-14.832,4.944-14.832l-18.53.927s-.927,8.035-2.165,9.585-3.091-1.55-7.42-3.706-12.634-4.018-15.759-6.494S160.11,254.5,160.11,254.5" transform="translate(-132.607 -222.261)" fill="#fff"/>
          <g id="Group_42416" data-name="Group 42416" transform="translate(0 19.919)" clip-path="url(#clip-path-3)">
            <path id="Path_27598" data-name="Path 27598" d="M209.77,295.64c1.541,2.7,3.083,5.129,3.083,5.129s5.2,2.923,6.494,2.923,9.1,4.211,9.1,4.211,6.5-1.626,4.211-7.151a17.449,17.449,0,0,0-2.712-3.891c-.387,2.451-1.011,5.66-1.743,6.578-1.238,1.541-3.091-1.55-7.42-3.706C217.974,298.335,213.434,297.055,209.77,295.64Z" transform="translate(-144.777 -250.612)" fill="#006aff"/>
            <path id="Path_27599" data-name="Path 27599" d="M185.408,276.825c-9.543-8.835-21.621-20.164-21.621-20.164l-7.025-1.011-.842.472s19.827,17.545,24.047,19.5A13.181,13.181,0,0,0,185.408,276.825Z" transform="translate(-136.284 -244.305)" fill="#006aff"/>
            <path id="Path_27600" data-name="Path 27600" d="M202.658,291.524l-.758-.674c.387.64.606,1.044.606,1.044Z" transform="translate(-143.536 -249.857)" fill="#006aff"/>
            <g id="Group_42415" data-name="Group 42415" transform="translate(19.636 11.345)" opacity="0.5">
              <path id="Path_27601" data-name="Path 27601" d="M209.77,295.64c1.541,2.7,3.083,5.129,3.083,5.129s5.2,2.923,6.494,2.923,9.1,4.211,9.1,4.211,6.5-1.626,4.211-7.151a17.449,17.449,0,0,0-2.712-3.891c-.387,2.451-1.011,5.66-1.743,6.578-1.238,1.541-3.091-1.55-7.42-3.706C217.974,298.335,213.434,297.055,209.77,295.64Z" transform="translate(-164.414 -261.957)" fill="#fff"/>
              <path id="Path_27602" data-name="Path 27602" d="M185.408,276.825c-9.543-8.835-21.621-20.164-21.621-20.164l-7.025-1.011-.842.472s19.827,17.545,24.047,19.5A13.181,13.181,0,0,0,185.408,276.825Z" transform="translate(-155.92 -255.65)" fill="#fff"/>
              <path id="Path_27603" data-name="Path 27603" d="M202.658,291.524l-.758-.674c.387.64.606,1.044.606,1.044Z" transform="translate(-163.172 -261.202)" fill="#fff"/>
            </g>
          </g>
          <path id="Path_27605" data-name="Path 27605" d="M132.609,242.18a1.352,1.352,0,0,0,0,.177A1.352,1.352,0,0,1,132.609,242.18Zm3.479,8.894a40.532,40.532,0,0,1-3.369-8.187,40.012,40.012,0,0,0,3.369,8.187Zm-3.462-8.667v.185A.454.454,0,0,0,132.626,242.407Zm.042.236a1.581,1.581,0,0,0,.051.244A1.58,1.58,0,0,1,132.668,242.643Zm3.42,8.423a77.154,77.154,0,0,0,11.657,16.441c11.126,12.053,43.268,43.579,46.325,45.744s2.165,8.339,0,14.521-10.2,15.161-9.888,25.032,3.369,25.032,3.091,28.123-8.01,13.6-8.01,13.6h79.73s-9.939-12.634-9.939-16.955,13.645-59.683,14.26-63.7-1.853-6.8-6.8-7.109-23.794-4.329-24.721-7.42,4.944-14.832,4.944-14.832l-18.53.927s-.927,8.035-2.165,9.585-3.091-1.55-7.42-3.706-12.634-4.018-15.759-6.494S160.11,254.5,160.11,254.5" transform="translate(-132.607 -222.261)" fill="none" stroke="#263238" stroke-linecap="round" stroke-linejoin="round" stroke-width="1"/>
          <path id="Path_27606" data-name="Path 27606" d="M162.38,256.035s-9.871.185-15.38-4.355" transform="translate(-134.877 -223.759)" fill="none" stroke="#263238" stroke-linecap="round" stroke-linejoin="round" stroke-width="1"/>
          <path id="Path_27607" data-name="Path 27607" d="M245.632,307.272c-.926-3.083,4.944-14.832,4.944-14.832l-18.53.926s-.926,8.035-2.165,9.585-3.091-1.55-7.421-3.706c-.329-.168-.691-.329-1.061-.489l-1.12,17.612s1.626,17.056,21.116,13.813c7.892-1.314,16.315-8.355,23.584-16.273C257.5,312.537,246.34,309.639,245.632,307.272Z" transform="translate(-146.435 -230.188)" fill="#fff"/>
          <g id="Group_42417" data-name="Group 42417" transform="translate(73.845 62.252)" clip-path="url(#clip-path-4)">
            <path id="Path_27608" data-name="Path 27608" d="M249.088,295s-1.12,6.283-2.021,13.232-1.567,12.12-1.567,12.12l4.11-12.853,4.632-13.62S249.762,293.88,249.088,295Z" transform="translate(-224.258 -292.667)" fill="#006aff"/>
            <path id="Path_27609" data-name="Path 27609" d="M249.088,295s-1.12,6.283-2.021,13.232-1.567,12.12-1.567,12.12l4.11-12.853,4.632-13.62S249.762,293.88,249.088,295Z" transform="translate(-224.258 -292.667)" fill="#fff" opacity="0.5"/>
          </g>
          <path id="Path_27611" data-name="Path 27611" d="M245.632,307.272c-.926-3.083,4.944-14.832,4.944-14.832l-18.53.926s-.926,8.035-2.165,9.585-3.091-1.55-7.421-3.706c-.329-.168-.691-.329-1.061-.489l-1.12,17.612s1.626,17.056,21.116,13.813c7.892-1.314,16.315-8.355,23.584-16.273C257.5,312.537,246.34,309.639,245.632,307.272Z" transform="translate(-146.435 -230.188)" fill="none" stroke="#263238" stroke-linecap="round" stroke-linejoin="round" stroke-width="1"/>
          <path id="Path_27612" data-name="Path 27612" d="M219.539,298.193c-1.238,1.541-3.091-1.55-7.42-3.706-2.729-1.373-7.075-2.619-10.672-3.967-1.019-2.417-2.367-5.567-3.234-7.471-1.541-3.369-4.018-1.238-4.018-1.238a18.024,18.024,0,0,1-3.091-4.944c-1.541-3.369-4.018-3.091-7.412-3.706s-10.512-7.109-10.512-7.109-3.327-2.527-4.7-3.782c-1.6,3.15-5.433,8.692-13.721,12.154,13.215,13.8,40.025,40.033,42.838,42,3.091,2.156,2.165,8.338,0,14.521s-10.2,15.161-9.888,25.032,3.369,25.032,3.091,28.124c-.278,2.754-6.443,11.387-7.783,13.241l3.142.354h16.357c-.093-8.288-.084-42.114,5.584-55.59C214.6,326.62,219.539,298.193,219.539,298.193Z" transform="translate(-136.101 -225.429)" fill="#006aff"/>
          <g id="Group_42418" data-name="Group 42418" transform="translate(18.659 36.841)" clip-path="url(#clip-path-5)">
            <path id="Path_27613" data-name="Path 27613" d="M214.232,294.487c-2.729-1.373-7.075-2.619-10.672-3.967-1.019-2.417-2.367-5.567-3.234-7.471-1.541-3.369-4.018-1.238-4.018-1.238a18.023,18.023,0,0,1-3.091-4.944c-1.541-3.369-4.018-3.091-7.412-3.706s-10.512-7.109-10.512-7.109-3.327-2.527-4.7-3.782a22.857,22.857,0,0,1-2.434,3.782c5.525,4.675,11.623,9.627,13.754,10.613,4.211,1.946,5.2.32,8.423,2.274s6.822,8.423,6.822,8.423,1.954-5.205,3.58-1.626a110.916,110.916,0,0,0,5.525,9.745s5.2,2.923,6.494,2.923c1.019,0,6.014,2.594,8.136,3.714.472-2.468.733-3.95.733-3.95C220.415,299.734,218.562,296.643,214.232,294.487Z" transform="translate(-156.874 -262.27)" opacity="0.16"/>
          </g>
          <path id="Path_27615" data-name="Path 27615" d="M219.539,298.193c-1.238,1.541-3.091-1.55-7.42-3.706-2.729-1.373-7.075-2.619-10.672-3.967-1.019-2.417-2.367-5.567-3.234-7.471-1.541-3.369-4.018-1.238-4.018-1.238a18.024,18.024,0,0,1-3.091-4.944c-1.541-3.369-4.018-3.091-7.412-3.706s-10.512-7.109-10.512-7.109-3.327-2.527-4.7-3.782c-1.6,3.15-5.433,8.692-13.721,12.154,13.215,13.8,40.025,40.033,42.838,42,3.091,2.156,2.165,8.338,0,14.521s-10.2,15.161-9.888,25.032,3.369,25.032,3.091,28.124c-.278,2.754-6.443,11.387-7.783,13.241l3.142.354h16.357c-.093-8.288-.084-42.114,5.584-55.59C214.6,326.62,219.539,298.193,219.539,298.193Z" transform="translate(-136.101 -225.429)" fill="none" stroke="#263238" stroke-linecap="round" stroke-linejoin="round" stroke-width="1"/>
          <path id="Path_27616" data-name="Path 27616" d="M229.167,303.578s-3.841-1.179-6.207.893-5.9,12.7-7.976,24.232a32.226,32.226,0,0,0,2.527,19.836s4.86-12.744,6.334-18.951S229.167,303.578,229.167,303.578Z" transform="translate(-145.509 -231.892)" fill="#006aff"/>
          <g id="Group_42419" data-name="Group 42419" transform="translate(68.901 71.351)" clip-path="url(#clip-path-6)">
            <path id="Path_27617" data-name="Path 27617" d="M223.18,305.391s2.78-.674,3.925-.286a11.2,11.2,0,0,1,2.678,1.626l.766-3.217a6.216,6.216,0,0,0-3.731-.615A7.9,7.9,0,0,0,223.18,305.391Z" transform="translate(-215.794 -303.178)" opacity="0.16"/>
          </g>
          <path id="Path_27619" data-name="Path 27619" d="M229.167,303.578s-3.841-1.179-6.207.893-5.9,12.7-7.976,24.232a32.226,32.226,0,0,0,2.527,19.836s4.86-12.744,6.334-18.951S229.167,303.578,229.167,303.578Z" transform="translate(-145.509 -231.892)" fill="none" stroke="#263238" stroke-linecap="round" stroke-linejoin="round" stroke-width="1"/>
          <path id="Path_27620" data-name="Path 27620" d="M200.062,303.856l4.944,20.088L193.88,298.6" transform="translate(-142.271 -231.16)" fill="none" stroke="#263238" stroke-linecap="round" stroke-linejoin="round" stroke-width="1"/>
          <path id="Path_27621" data-name="Path 27621" d="M239.582,405.235h36.033s-9.939-12.634-9.939-16.955,13.645-59.684,14.26-63.7-1.853-6.8-6.8-7.109-23.794-4.329-24.721-7.42c0,0-7.109,25.032-9.577,42.029C236.718,366.659,238.917,396.914,239.582,405.235Z" transform="translate(-149.22 -232.965)" fill="#006aff"/>
          <g id="Group_42420" data-name="Group 42420" transform="translate(88.718 77.085)" clip-path="url(#clip-path-7)">
            <path id="Path_27622" data-name="Path 27622" d="M275.489,317.8c-4.051-.253-17.435-3-22.649-5.677l1.9,4.38a38,38,0,0,0,10.95,3.807c6.275,1.12,12.112.9,15.927,6.511l.185.278c.236-1.078.4-1.836.446-2.19C282.909,320.888,280.433,318.109,275.489,317.8Z" transform="translate(-240.289 -310.377)" opacity="0.16"/>
          </g>
          <path id="Path_27624" data-name="Path 27624" d="M239.582,405.235h36.033s-9.939-12.634-9.939-16.955,13.645-59.684,14.26-63.7-1.853-6.8-6.8-7.109-23.794-4.329-24.721-7.42c0,0-7.109,25.032-9.577,42.029C236.718,366.659,238.917,396.914,239.582,405.235Z" transform="translate(-149.22 -232.965)" fill="none" stroke="#263238" stroke-linecap="round" stroke-linejoin="round" stroke-width="1"/>
          <path id="Path_27625" data-name="Path 27625" d="M248.587,310.05s-9.535,30.322-9.577,42.029c0,0,13.544-16.4,15.313-27.921S248.587,310.05,248.587,310.05Z" transform="translate(-149.389 -232.965)" fill="#006aff"/>
          <g id="Group_42421" data-name="Group 42421" transform="translate(89.621 77.085)" clip-path="url(#clip-path-8)">
            <path id="Path_27626" data-name="Path 27626" d="M248.43,313.924a8.827,8.827,0,0,1,7.4,3.588s-1.87-5.5-5.761-7.463Z" transform="translate(-240.496 -310.05)" opacity="0.16"/>
          </g>
          <path id="Path_27628" data-name="Path 27628" d="M248.587,310.05s-9.535,30.322-9.577,42.029c0,0,13.544-16.4,15.313-27.921S248.587,310.05,248.587,310.05Z" transform="translate(-149.389 -232.965)" fill="none" stroke="#263238" stroke-linecap="round" stroke-linejoin="round" stroke-width="1"/>
          <path id="Path_27629" data-name="Path 27629" d="M370.176,414.718s6.982.286,11.556.943a83.563,83.563,0,0,0,9.2.733s-2.527-5.1-5.222-6.545-7.581-4.018-11.674-3.445-9.947,4.7-9.459,6.014S367.245,414.322,370.176,414.718Z" transform="translate(-169.189 -248.15)" fill="#fff"/>
          <g id="Group_42422" data-name="Group 42422" transform="translate(195.357 158.173)" clip-path="url(#clip-path-9)">
            <path id="Path_27630" data-name="Path 27630" d="M370.176,414.718s6.982.286,11.556.943a83.563,83.563,0,0,0,9.2.733s-2.527-5.1-5.222-6.545-7.581-4.018-11.674-3.445-9.947,4.7-9.459,6.014S367.245,414.322,370.176,414.718Z" transform="translate(-364.546 -406.323)" fill="#006aff"/>
            <path id="Path_27631" data-name="Path 27631" d="M370.176,414.718s6.982.286,11.556.943a83.563,83.563,0,0,0,9.2.733s-2.527-5.1-5.222-6.545-7.581-4.018-11.674-3.445-9.947,4.7-9.459,6.014S367.245,414.322,370.176,414.718Z" transform="translate(-364.546 -406.323)" fill="#fff" opacity="0.5"/>
          </g>
          <path id="Path_27633" data-name="Path 27633" d="M370.176,414.718s6.982.286,11.556.943a83.563,83.563,0,0,0,9.2.733s-2.527-5.1-5.222-6.545-7.581-4.018-11.674-3.445-9.947,4.7-9.459,6.014S367.245,414.322,370.176,414.718Z" transform="translate(-169.189 -248.15)" fill="none" stroke="#263238" stroke-linecap="round" stroke-linejoin="round" stroke-width="1"/>
          <path id="Path_27634" data-name="Path 27634" d="M385,413.28s5.534-2.872,6.915-2.83,10.562,6.25,10.107,7.244a2.645,2.645,0,0,1-2.9,1.078c-1.019-.48-7.2-3.108-7.2-3.108l-4.043.952Z" transform="translate(-172.416 -248.801)" fill="#fff"/>
          <g id="Group_42423" data-name="Group 42423" transform="translate(212.585 161.648)" clip-path="url(#clip-path-10)">
            <path id="Path_27635" data-name="Path 27635" d="M385,413.28s5.534-2.872,6.915-2.83,10.562,6.25,10.107,7.244-2.628,1.8-2.9,1.078-7.2-3.108-7.2-3.108l-4.043.952Z" transform="translate(-385 -410.449)" fill="#006aff"/>
            <path id="Path_27636" data-name="Path 27636" d="M385,413.28s5.534-2.872,6.915-2.83,10.562,6.25,10.107,7.244-2.628,1.8-2.9,1.078-7.2-3.108-7.2-3.108l-4.043.952Z" transform="translate(-385 -410.449)" fill="#fff" opacity="0.5"/>
          </g>
          <path id="Path_27638" data-name="Path 27638" d="M385,413.28s5.534-2.872,6.915-2.83,10.562,6.25,10.107,7.244a2.645,2.645,0,0,1-2.9,1.078c-1.019-.48-7.2-3.108-7.2-3.108l-4.043.952Z" transform="translate(-172.416 -248.801)" fill="none" stroke="#263238" stroke-linecap="round" stroke-linejoin="round" stroke-width="1"/>
          <path id="Path_27639" data-name="Path 27639" d="M380.31,408.193s7.378-.236,8.844.505,8.086,12.1,7.092,12.92-3.74.581-3.655-.337-6.1-7-6.1-7l-4.809-1.053Z" transform="translate(-171.676 -248.44)" fill="#fff"/>
          <g id="Group_42424" data-name="Group 42424" transform="translate(208.634 159.718)" clip-path="url(#clip-path-11)">
            <path id="Path_27640" data-name="Path 27640" d="M380.31,408.193s7.378-.236,8.844.505,8.086,12.1,7.092,12.92-3.74.581-3.655-.337-6.1-7-6.1-7l-4.809-1.053Z" transform="translate(-380.31 -408.158)" fill="#006aff"/>
            <path id="Path_27641" data-name="Path 27641" d="M380.31,408.193s7.378-.236,8.844.505,8.086,12.1,7.092,12.92-3.74.581-3.655-.337-6.1-7-6.1-7l-4.809-1.053Z" transform="translate(-380.31 -408.158)" fill="#fff" opacity="0.5"/>
          </g>
          <path id="Path_27643" data-name="Path 27643" d="M380.31,408.193s7.378-.236,8.844.505,8.086,12.1,7.092,12.92-3.74.581-3.655-.337-6.1-7-6.1-7l-4.809-1.053Z" transform="translate(-171.676 -248.44)" fill="none" stroke="#263238" stroke-linecap="round" stroke-linejoin="round" stroke-width="1"/>
          <path id="Path_27644" data-name="Path 27644" d="M375.12,406.383s7.471-.244,8.953.514,8.187,12.238,7.176,13.08-3.773.581-3.689-.345-6.174-7.083-6.174-7.083l-4.868-1.07Z" transform="translate(-170.857 -248.154)" fill="#fff"/>
          <g id="Group_42425" data-name="Group 42425" transform="translate(204.263 158.192)" clip-path="url(#clip-path-12)">
            <path id="Path_27645" data-name="Path 27645" d="M375.12,406.383s7.471-.244,8.953.514,8.187,12.238,7.176,13.08-3.773.581-3.689-.345-6.174-7.083-6.174-7.083l-4.868-1.07Z" transform="translate(-375.12 -406.346)" fill="#006aff"/>
            <path id="Path_27646" data-name="Path 27646" d="M375.12,406.383s7.471-.244,8.953.514,8.187,12.238,7.176,13.08-3.773.581-3.689-.345-6.174-7.083-6.174-7.083l-4.868-1.07Z" transform="translate(-375.12 -406.346)" fill="#fff" opacity="0.5"/>
          </g>
          <path id="Path_27648" data-name="Path 27648" d="M375.12,406.383s7.471-.244,8.953.514,8.187,12.238,7.176,13.08-3.773.581-3.689-.345-6.174-7.083-6.174-7.083l-4.868-1.07Z" transform="translate(-170.857 -248.154)" fill="none" stroke="#263238" stroke-linecap="round" stroke-linejoin="round" stroke-width="1"/>
          <path id="Path_27649" data-name="Path 27649" d="M273.581,349.539c5.407,8.33,16.264,29.438,19.431,31.813,4.944,3.706,38,12.7,41.179,15.161s2.965,4.927,5.98,5.828a160.452,160.452,0,0,0,18.631,3.891c4.312.4,2.384-2.266,2.384-2.266l-7.353-5.054,6.41-1.583s6.427,7.732,7.631,8.153,3.327,0,3.192-.952c-.236-1.524-7.092-14-9.526-14.529s-17.208,1.516-17.208,1.516-30.987-20.9-31.543-21.638c0,0-1.853-5.256-3.369-7.421s-2.476-1.541-2.476-1.541.623-2.788-.3-3.714l-4.944-4.944-.177.236c-.842-1.685-1.685-3.6-2.611-5.795-2.586-6.09-11.741-23.179-13.283-25.647-1.154-1.845-10.823-3.167-15.725-3.723" transform="translate(-154.261 -234.114)" fill="#006aff"/>
          <g id="Group_42426" data-name="Group 42426" transform="translate(115.639 83.216)" clip-path="url(#clip-path-13)">
            <path id="Path_27650" data-name="Path 27650" d="M295.1,350.079c4.043,3.588,2.7,3.588,1.794,6.738s.674-1.12,4.489-.893,2.7,5.155,2.24,6.056,4.717,2.021,3.815,4.034-6.056,4.936-8.97,7.858,7.623-4.717,11.211-4.936c1.095-.076,2,.067,2.754.051a35.372,35.372,0,0,0-3.049-6.469c-1.55-2.165-2.476-1.541-2.476-1.541s.623-2.788-.3-3.714l-4.944-4.944-.177.236c-.842-1.685-1.685-3.6-2.611-5.795-2.586-6.09-11.741-23.179-13.283-25.647-1.154-1.845-10.823-3.167-15.725-3.723l.446,3.9.109.084s6.056,1.12,8.077,1.348,4.489,2.013,4.262,3.369-6.056,7.4-4.262,7.858,3.815-4.489,5.837-3.815S291.036,346.491,295.1,350.079Z" transform="translate(-269.895 -317.339)" opacity="0.16"/>
          </g>
          <path id="Path_27652" data-name="Path 27652" d="M273.581,349.539c5.407,8.33,16.264,29.438,19.431,31.813,4.944,3.706,38,12.7,41.179,15.161s2.965,4.927,5.98,5.828a160.452,160.452,0,0,0,18.631,3.891c4.312.4,2.384-2.266,2.384-2.266l-7.353-5.054,6.41-1.583s6.427,7.732,7.631,8.153,3.327,0,3.192-.952c-.236-1.524-7.092-14-9.526-14.529s-17.208,1.516-17.208,1.516-30.987-20.9-31.543-21.638c0,0-1.853-5.256-3.369-7.421s-2.476-1.541-2.476-1.541.623-2.788-.3-3.714l-4.944-4.944-.177.236c-.842-1.685-1.685-3.6-2.611-5.795-2.586-6.09-11.741-23.179-13.283-25.647-1.154-1.845-10.823-3.167-15.725-3.723" transform="translate(-154.261 -234.114)" fill="none" stroke="#263238" stroke-linecap="round" stroke-linejoin="round" stroke-width="1"/>
          <path id="Path_27653" data-name="Path 27653" d="M274.263,342c-.227.758-.421,1.516-.573,2.291" transform="translate(-154.859 -238.005)" fill="none" stroke="#263238" stroke-linecap="round" stroke-linejoin="round" stroke-width="1"/>
          <path id="Path_27654" data-name="Path 27654" d="M282.847,325.45a45.093,45.093,0,0,0-6.637,9.981" transform="translate(-155.257 -235.394)" fill="none" stroke="#263238" stroke-linecap="round" stroke-linejoin="round" stroke-width="1"/>
          <path id="Path_27655" data-name="Path 27655" d="M298.78,380.571c2.274-3.369,5.9-7.639,9.888-8.861" transform="translate(-158.816 -242.691)" fill="none" stroke="#263238" stroke-linecap="round" stroke-linejoin="round" stroke-width="1"/>
          <path id="Path_27656" data-name="Path 27656" d="M295.79,386.778s.4-.792,1.129-1.988" transform="translate(-158.345 -244.754)" fill="none" stroke="#263238" stroke-linecap="round" stroke-linejoin="round" stroke-width="1"/>
          <path id="Path_27657" data-name="Path 27657" d="M295.79,378.255s4.136-10.343,8.271-13,1.769,2.662,1.769,2.662" transform="translate(-158.345 -241.554)" fill="none" stroke="#263238" stroke-linecap="round" stroke-linejoin="round" stroke-width="1"/>
          <path id="Path_27658" data-name="Path 27658" d="M338.5,406.394c3.192,2.468,2.965,4.927,5.98,5.829a160.446,160.446,0,0,0,18.631,3.891c4.313.4,2.384-2.266,2.384-2.266l-7.353-5.054,6.41-1.583s6.427,7.732,7.631,8.153,3.5.573,3.192-.952c-.59-2.948-7.092-14-9.526-14.529s-17.208,1.516-17.208,1.516-28.225-19.372-31.316-21.47c-11.986,1.154-17.688,7.429-20.088,11.194l.084.067C302.268,394.931,335.319,403.926,338.5,406.394Z" transform="translate(-158.574 -243.987)" fill="#fff"/>
          <g id="Group_42427" data-name="Group 42427" transform="translate(138.666 135.943)" clip-path="url(#clip-path-14)">
            <path id="Path_27659" data-name="Path 27659" d="M377.415,414.453c-1.533-3.748-7.092-14-9.526-14.529s-17.208,1.516-17.208,1.516-28.225-19.372-31.316-21.47a31.382,31.382,0,0,0-9.156,2.215c4.456,2.527,34.154,19.372,37.9,20.122,3.975.842,17.241-1.339,19.574.227,1.482.994,5.9,7.993,8.878,12.963C377.415,415.371,377.727,415.211,377.415,414.453Z" transform="translate(-299.286 -379.936)" fill="#006aff"/>
            <path id="Path_27660" data-name="Path 27660" d="M377.415,414.453c-2.392-5.365-7.092-14-9.526-14.529s-17.208,1.516-17.208,1.516-28.225-19.372-31.316-21.47a31.382,31.382,0,0,0-9.156,2.215c4.456,2.527,34.154,19.372,37.9,20.122,3.975.842,17.241-1.339,19.574.227,1.482.994,5.9,7.993,8.878,12.963C377.415,415.371,377.752,415.2,377.415,414.453Z" transform="translate(-299.286 -379.936)" fill="#fff" opacity="0.5"/>
          </g>
          <path id="Path_27662" data-name="Path 27662" d="M338.5,406.394c3.192,2.468,2.965,4.927,5.98,5.829a160.446,160.446,0,0,0,18.631,3.891c4.313.4,2.384-2.266,2.384-2.266l-7.353-5.054,6.41-1.583s6.427,7.732,7.631,8.153,3.5.573,3.192-.952c-.59-2.948-7.092-14-9.526-14.529s-17.208,1.516-17.208,1.516-28.225-19.372-31.316-21.47c-11.986,1.154-17.688,7.429-20.088,11.194l.084.067C302.268,394.931,335.319,403.926,338.5,406.394Z" transform="translate(-158.574 -243.987)" fill="none" stroke="#263238" stroke-linecap="round" stroke-linejoin="round" stroke-width="1"/>
          <path id="Path_27663" data-name="Path 27663" d="M252.2,236.73l-25.369,10.587a37.4,37.4,0,0,1-3.26,12.9c-3,6.342-1.247,18.345,1.634,24.822s15.574,3.942,20.215,3.133a50.04,50.04,0,0,0,9.206-2.687,8.558,8.558,0,0,0,8.221-1.146S249.265,246.222,252.2,236.73Z" transform="translate(-146.707 -221.401)" fill="#fff"/>
          <g id="Group_42428" data-name="Group 42428" transform="translate(75.3 15.329)" clip-path="url(#clip-path-15)">
            <path id="Path_27664" data-name="Path 27664" d="M252.2,236.73l-25.369,10.587a37.4,37.4,0,0,1-3.26,12.9c-3,6.342-1.247,18.345,1.634,24.822a5.9,5.9,0,0,0,2.232,2.527v-.488s-4.708-11.665-3.816-18.4,4.717-10.107,5.163-14.361.219-6.275,8.751-9.417,12.112-6.056,13-2.923,4.489,23.786,6.957,28.722,2.24,10.107-1.567,12.339a53.528,53.528,0,0,1-12.272,5.407l1.794-.312a50.03,50.03,0,0,0,9.206-2.687,8.558,8.558,0,0,0,8.221-1.146S249.265,246.222,252.2,236.73Z" transform="translate(-222.007 -236.73)" fill="#006aff"/>
            <path id="Path_27665" data-name="Path 27665" d="M252.2,236.73l-25.369,10.587a37.4,37.4,0,0,1-3.26,12.9c-3,6.342-1.247,18.345,1.634,24.822a5.9,5.9,0,0,0,2.232,2.527v-.488s-4.708-11.665-3.816-18.4,4.717-10.107,5.163-14.361.219-6.275,8.751-9.417,12.112-6.056,13-2.923,4.489,23.786,6.957,28.722,2.24,10.107-1.567,12.339a53.528,53.528,0,0,1-12.272,5.407l1.794-.312a50.03,50.03,0,0,0,9.206-2.687,8.558,8.558,0,0,0,8.221-1.146S249.265,246.222,252.2,236.73Z" transform="translate(-222.007 -236.73)" fill="#fff" opacity="0.5"/>
          </g>
          <path id="Path_27667" data-name="Path 27667" d="M252.2,236.73l-25.369,10.587a37.4,37.4,0,0,1-3.26,12.9c-3,6.342-1.247,18.345,1.634,24.822s15.574,3.942,20.215,3.133a50.04,50.04,0,0,0,9.206-2.687,8.558,8.558,0,0,0,8.221-1.146S249.265,246.222,252.2,236.73Z" transform="translate(-146.707 -221.401)" fill="none" stroke="#263238" stroke-linecap="round" stroke-linejoin="round" stroke-width="1"/>
          <path id="Path_27668" data-name="Path 27668" d="M241.246,256.44a13.183,13.183,0,0,1-.548,4.414c-.674,1.685-7.033,8.3-6.839,9.021s.766,3.015,1.9,3.234" transform="translate(-148.576 -224.51)" fill="none" stroke="#263238" stroke-linecap="round" stroke-linejoin="round" stroke-width="1"/>
          <path id="Path_27669" data-name="Path 27669" d="M251,263.34c.884-1.769,3.79-.042,3.748,3.942" transform="translate(-151.28 -225.489)" fill="none" stroke="#263238" stroke-linecap="round" stroke-linejoin="round" stroke-width="1"/>
          <path id="Path_27670" data-name="Path 27670" d="M233.9,257.265s2.476-1.086,4.691,2.923" transform="translate(-148.583 -224.619)" fill="none" stroke="#263238" stroke-linecap="round" stroke-linejoin="round" stroke-width="1"/>
          <path id="Path_27671" data-name="Path 27671" d="M246.82,270.4a12.263,12.263,0,0,1,7.69,3.226" transform="translate(-150.621 -226.712)" fill="none" stroke="#263238" stroke-linecap="round" stroke-linejoin="round" stroke-width="0.5"/>
          <path id="Path_27672" data-name="Path 27672" d="M230.35,264.15a16.316,16.316,0,0,1,4.3,1.188" transform="translate(-148.023 -225.726)" fill="none" stroke="#263238" stroke-linecap="round" stroke-linejoin="round" stroke-width="0.5"/>
          <path id="Path_27673" data-name="Path 27673" d="M240.844,251.531a4.776,4.776,0,0,0-4.262-.1c-2.266,1.087-3.655,2.283-3.5.893s2.813-2.923,3.613-3.125S241.071,248.44,240.844,251.531Z" transform="translate(-148.452 -223.34)" fill="#263238"/>
          <path id="Path_27674" data-name="Path 27674" d="M249.84,248.176a19.262,19.262,0,0,1,5.475,7.126c1.685,4.211,3.015-.387,1.685-3.142S251.819,246.474,249.84,248.176Z" transform="translate(-151.097 -223.127)" fill="#263238"/>
          <path id="Path_27675" data-name="Path 27675" d="M270,300.5c0,1.962-1.112,3.554-2.476,3.554s-2.468-1.592-2.468-3.554,1.1-6.957,2.468-6.957S270,298.535,270,300.5Z" transform="translate(-153.498 -230.361)" fill="#006aff" stroke="#263238" stroke-linecap="round" stroke-linejoin="round" stroke-width="1"/>
          <path id="Path_27676" data-name="Path 27676" d="M251.165,262.56a5.148,5.148,0,0,0-.227.792c-.244,1.247-.488,3.849,0,3.959s1.685-2.325,1.9-3.571a4.753,4.753,0,0,0,.084-.741A15.345,15.345,0,0,0,251.165,262.56Z" transform="translate(-151.226 -225.475)" fill="#263238"/>
          <path id="Path_27677" data-name="Path 27677" d="M234.137,256.993a4.886,4.886,0,0,0-.177.674c-.253,1.247-.244,3.984.286,4.085s1.4-2.459,1.642-3.706a5.183,5.183,0,0,0,.1-.918A4.776,4.776,0,0,0,234.137,256.993Z" transform="translate(-148.567 -224.591)" fill="#263238"/>
          <path id="Path_27678" data-name="Path 27678" d="M251,263.227l.842-1.567a6.09,6.09,0,0,1,3.437,1.988" transform="translate(-151.28 -225.333)" fill="none" stroke="#263238" stroke-linecap="round" stroke-linejoin="round" stroke-width="0.75"/>
          <path id="Path_27679" data-name="Path 27679" d="M234.2,256.813l.842-.985s.362-.177,2.35.724" transform="translate(-148.63 -224.411)" fill="none" stroke="#263238" stroke-linecap="round" stroke-linejoin="round" stroke-width="0.75"/>
          <path id="Path_27680" data-name="Path 27680" d="M230.41,283.633s1.415-2.6,3.31-2.6,3.31,4.254,3.31,4.254" transform="translate(-148.033 -228.388)" fill="none" stroke="#263238" stroke-linecap="round" stroke-linejoin="round" stroke-width="1"/>
        </g>
        <g id="freepik--Mug--inject-31" transform="translate(57.902 266.647)">
          <path id="Path_27681" data-name="Path 27681" d="M156.733,413.589a14.9,14.9,0,0,1-5.306-1.263,1.836,1.836,0,1,1,1.449-3.369c1.685.716,3.866,1.162,4.447.91,1.07-1.2,2.712-8.423.59-11.91-.48-.775-.927-.918-1.221-.952-1.2-.169-2.99,1.07-3.622,1.685a1.841,1.841,0,0,1-2.527-2.678c.328-.32,3.369-3.057,6.612-2.619a5.29,5.29,0,0,1,3.858,2.662c3.125,5.1.985,14.79-1.415,16.711A4.532,4.532,0,0,1,156.733,413.589Z" transform="translate(-133.258 -391.858)" fill="#fff"/>
          <g id="Group_42429" data-name="Group 42429" transform="translate(16.706 1.486)" clip-path="url(#clip-path-16)">
            <path id="Path_27682" data-name="Path 27682" d="M159.582,397.768a3.47,3.47,0,0,0-2.527-2.055c-2.106-.337-4.085,1.777-4.3,2.013a1.584,1.584,0,0,0-.177,1.76,1.819,1.819,0,0,0,.884-.455c.632-.59,2.417-1.828,3.622-1.684.295,0,.741.177,1.221.952,2.123,3.453.48,10.714-.59,11.91-.581.253-2.754-.194-4.447-.91a1.845,1.845,0,0,0-.657-.143,1.39,1.39,0,0,0,.708,1.12,8.421,8.421,0,0,0,3.445.977,2.653,2.653,0,0,0,1.878-.657C160.223,409.139,161.621,401.685,159.582,397.768Z" transform="translate(-150.346 -393.712)" fill="#006aff"/>
            <path id="Path_27683" data-name="Path 27683" d="M159.582,397.768a3.47,3.47,0,0,0-2.527-2.055c-2.106-.337-4.085,1.777-4.3,2.013a1.584,1.584,0,0,0-.177,1.76,1.819,1.819,0,0,0,.884-.455c.632-.59,2.417-1.828,3.622-1.684.295,0,.741.177,1.221.952,2.123,3.453.48,10.714-.59,11.91-.581.253-2.754-.194-4.447-.91a1.845,1.845,0,0,0-.657-.143,1.39,1.39,0,0,0,.708,1.12,8.421,8.421,0,0,0,3.445.977,2.653,2.653,0,0,0,1.878-.657C160.223,409.139,161.621,401.685,159.582,397.768Z" transform="translate(-150.346 -393.712)" fill="#fff" opacity="0.5"/>
          </g>
          <path id="Path_27685" data-name="Path 27685" d="M156.733,413.589a14.9,14.9,0,0,1-5.306-1.263,1.836,1.836,0,1,1,1.449-3.369c1.685.716,3.866,1.162,4.447.91,1.07-1.2,2.712-8.423.59-11.91-.48-.775-.927-.918-1.221-.952-1.2-.169-2.99,1.07-3.622,1.685a1.841,1.841,0,0,1-2.527-2.678c.328-.32,3.369-3.057,6.612-2.619a5.29,5.29,0,0,1,3.858,2.662c3.125,5.1.985,14.79-1.415,16.711A4.532,4.532,0,0,1,156.733,413.589Z" transform="translate(-133.258 -391.858)" fill="none" stroke="#263238" stroke-linecap="round" stroke-linejoin="round" stroke-width="1"/>
          <rect id="Rectangle_17557" data-name="Rectangle 17557" width="20.257" height="26.885" transform="translate(0)" fill="#fff"/>
          <g id="Group_42430" data-name="Group 42430" transform="translate(0)" clip-path="url(#clip-path-17)">
            <rect id="Rectangle_17558" data-name="Rectangle 17558" width="8.296" height="26.885" fill="#006aff"/>
            <rect id="Rectangle_17559" data-name="Rectangle 17559" width="8.296" height="26.885" fill="#fff" opacity="0.5"/>
          </g>
          <rect id="Rectangle_17561" data-name="Rectangle 17561" width="20.257" height="26.885" transform="translate(0)" fill="none" stroke="#263238" stroke-linecap="round" stroke-linejoin="round" stroke-width="1"/>
        </g>
        <g id="freepik--Device--inject-31" transform="translate(96.016 241.817)">
          <path id="Path_27686" data-name="Path 27686" d="M269.6,413.445H183.063l-2.822-47.572A3.234,3.234,0,0,1,183.4,362.1h85.828a3.235,3.235,0,0,1,3.192,3.773Z" transform="translate(-180.196 -362.1)" fill="#263238" stroke="#263238" stroke-linecap="round" stroke-linejoin="round" stroke-width="1"/>
          <path id="Path_27687" data-name="Path 27687" d="M188.66,363.45h81.28a3.15,3.15,0,0,1,3.142,3.655" transform="translate(-181.531 -362.313)" fill="none" stroke="#fff" stroke-linecap="round" stroke-linejoin="round" stroke-width="1"/>
          <path id="Path_27688" data-name="Path 27688" d="M181,366.356a3.175,3.175,0,0,1,3.184-2.906" transform="translate(-180.323 -362.313)" fill="none" stroke="#fff" stroke-linecap="round" stroke-linejoin="round" stroke-width="1"/>
          <rect id="Rectangle_17562" data-name="Rectangle 17562" width="87.26" height="4.633" transform="translate(2.505 46.713)" fill="#fff" stroke="#263238" stroke-linecap="round" stroke-linejoin="round" stroke-width="1"/>
          <ellipse id="Ellipse_6354" data-name="Ellipse 6354" cx="6.182" cy="3.706" rx="6.182" ry="3.706" transform="translate(39.641 22.152)" fill="#fff" stroke="#263238" stroke-linecap="round" stroke-linejoin="round" stroke-width="1"/>
        </g>
        <g id="freepik--Table--inject-31" transform="translate(0 292.615)">
          <rect id="Rectangle_17563" data-name="Rectangle 17563" width="307.917" height="7.892" fill="#263238"/>
        </g>
        <g id="freepik--pop-up-window--inject-31" transform="translate(66.289)">
          <rect id="Rectangle_17564" data-name="Rectangle 17564" width="175.437" height="108.797" rx="11.33" fill="#006aff"/>
          <circle id="Ellipse_6355" data-name="Ellipse 6355" cx="26.009" cy="26.009" r="26.009" transform="translate(57.911 15.288) rotate(-9.13)" fill="#263238" opacity="0.45"/>
          <path id="Path_27689" data-name="Path 27689" d="M247.256,120.3l-8.667,11.126a3.31,3.31,0,0,1-2.746,1.533,2.855,2.855,0,0,1-2.021-.8,2.6,2.6,0,0,1-.842-2,3.909,3.909,0,0,1,.842-2.3l9.88-12.221-9.265-12.23a3.369,3.369,0,0,1-.674-1.988,3.1,3.1,0,0,1,.986-2.283,3.142,3.142,0,0,1,2.274-.969,3.26,3.26,0,0,1,2.712,1.533l8.372,11.025,8.423-10.84a3.58,3.58,0,0,1,2.889-1.743,2.881,2.881,0,0,1,2.788,2.788,2.948,2.948,0,0,1-.64,1.794l-9.914,12.685,9.577,12.634a3.26,3.26,0,0,1,.716,1.988,2.889,2.889,0,0,1-1,2.207,3.318,3.318,0,0,1-2.3.926,3.268,3.268,0,0,1-2.729-1.533Z" transform="translate(-159.736 -78.651)" fill="#fff"/>
          <path id="Path_27690" data-name="Path 27690" d="M289.015,178.961H189.87a7.58,7.58,0,0,1-7.58-7.581h0a7.58,7.58,0,0,1,7.58-7.58h99.144a7.58,7.58,0,0,1,7.58,7.58h0A7.581,7.581,0,0,1,289.015,178.961Z" transform="translate(-151.741 -89.006)" fill="#fff"/>
          <path id="Path_27691" data-name="Path 27691" d="M207.1,174.758a.488.488,0,0,1-.354-.152.514.514,0,0,1-.152-.379.657.657,0,0,1,.093-.337l.758-1.179h-1.55a.505.505,0,0,1-.387-.152.556.556,0,0,1,0-.724.505.505,0,0,1,.387-.152l1.524.042-.674-1.1a.766.766,0,0,1-.109-.371.514.514,0,0,1,.152-.379.505.505,0,0,1,.362-.152.48.48,0,0,1,.446.286l.741,1.322.707-1.263a.59.59,0,0,1,.505-.345.489.489,0,0,1,.354.152.48.48,0,0,1,.152.362.632.632,0,0,1-.1.337l-.741,1.188,1.541-.042a.5.5,0,0,1,.387.152.556.556,0,0,1,0,.724.5.5,0,0,1-.387.152h-1.558l.691,1.078a.893.893,0,0,1,.126.43.506.506,0,0,1-.143.371.48.48,0,0,1-.345.152.548.548,0,0,1-.489-.329l-.7-1.238-.7,1.238A.564.564,0,0,1,207.1,174.758Z" transform="translate(-155.381 -89.941)"/>
          <path id="Path_27692" data-name="Path 27692" d="M216.277,174.75a.489.489,0,0,1-.354-.152.514.514,0,0,1-.152-.379.657.657,0,0,1,.093-.337l.758-1.179h-1.55a.505.505,0,0,1-.387-.152.556.556,0,0,1,0-.724.505.505,0,0,1,.387-.152l1.525.042-.716-1.137a.766.766,0,0,1-.109-.371.514.514,0,0,1,.152-.379.505.505,0,0,1,.362-.152.48.48,0,0,1,.446.286l.741,1.322.707-1.263a.589.589,0,0,1,.505-.345.488.488,0,0,1,.354.152.48.48,0,0,1,.152.362.631.631,0,0,1-.1.337l-.741,1.188,1.541-.042a.5.5,0,0,1,.387.152.556.556,0,0,1,0,.724.5.5,0,0,1-.387.152h-1.558l.691,1.078a.892.892,0,0,1,.126.43.505.505,0,0,1-.143.371.48.48,0,0,1-.345.152.539.539,0,0,1-.489-.329l-.7-1.238-.7,1.238A.564.564,0,0,1,216.277,174.75Z" transform="translate(-156.829 -89.933)"/>
          <path id="Path_27693" data-name="Path 27693" d="M225.457,174.75a.488.488,0,0,1-.354-.152.514.514,0,0,1-.152-.379.656.656,0,0,1,.093-.337l.758-1.179h-1.55a.505.505,0,0,1-.387-.152.556.556,0,0,1,0-.724.505.505,0,0,1,.387-.152l1.524.042-.716-1.137a.767.767,0,0,1-.11-.371.514.514,0,0,1,.152-.379.505.505,0,0,1,.362-.152.48.48,0,0,1,.446.286l.741,1.322.708-1.263a.589.589,0,0,1,.505-.345.489.489,0,0,1,.354.152.48.48,0,0,1,.152.362.632.632,0,0,1-.1.337l-.741,1.188,1.541-.042a.5.5,0,0,1,.387.152.556.556,0,0,1,0,.724.5.5,0,0,1-.387.152h-1.558l.691,1.078a.893.893,0,0,1,.126.43.505.505,0,0,1-.143.371.48.48,0,0,1-.345.152.539.539,0,0,1-.488-.329l-.7-1.238-.7,1.238A.564.564,0,0,1,225.457,174.75Z" transform="translate(-158.277 -89.933)"/>
          <path id="Path_27694" data-name="Path 27694" d="M234.677,174.75a.488.488,0,0,1-.354-.152.514.514,0,0,1-.152-.379.657.657,0,0,1,.093-.337l.758-1.179h-1.55a.505.505,0,0,1-.387-.152.556.556,0,0,1,0-.724.505.505,0,0,1,.387-.152l1.524.042-.716-1.137a.766.766,0,0,1-.11-.371.514.514,0,0,1,.152-.379.505.505,0,0,1,.362-.152.48.48,0,0,1,.446.286l.741,1.322.708-1.263a.589.589,0,0,1,.505-.345.489.489,0,0,1,.354.152.48.48,0,0,1,.152.362.632.632,0,0,1-.1.337l-.741,1.188,1.541-.042a.5.5,0,0,1,.387.152.556.556,0,0,1,0,.724.5.5,0,0,1-.387.152h-1.558l.691,1.078a.892.892,0,0,1,.126.43.505.505,0,0,1-.143.371.48.48,0,0,1-.345.152.547.547,0,0,1-.489-.329l-.7-1.238-.7,1.238A.564.564,0,0,1,234.677,174.75Z" transform="translate(-159.731 -89.933)"/>
          <path id="Path_27695" data-name="Path 27695" d="M243.817,174.751a.489.489,0,0,1-.354-.152.514.514,0,0,1-.152-.379.75.75,0,0,1,.093-.337l.758-1.179h-1.55a.505.505,0,0,1-.387-.152.556.556,0,0,1,0-.724.505.505,0,0,1,.387-.152l1.524.042-.716-1.137a.766.766,0,0,1-.11-.371.514.514,0,0,1,.152-.379.505.505,0,0,1,.362-.152.48.48,0,0,1,.446.286l.741,1.322.708-1.263a.59.59,0,0,1,.505-.345.472.472,0,0,1,.354.152.48.48,0,0,1,.152.362.631.631,0,0,1-.1.337l-.741,1.188,1.541-.042a.5.5,0,0,1,.387.152.556.556,0,0,1,0,.724.5.5,0,0,1-.387.152h-1.558l.691,1.078a.893.893,0,0,1,.126.43.505.505,0,0,1-.143.371.48.48,0,0,1-.345.152.547.547,0,0,1-.488-.329l-.7-1.238-.7,1.238A.564.564,0,0,1,243.817,174.751Z" transform="translate(-161.173 -89.934)"/>
          <path id="Path_27696" data-name="Path 27696" d="M253,174.751a.489.489,0,0,1-.354-.152.514.514,0,0,1-.152-.379.75.75,0,0,1,.093-.337l.758-1.179H251.8a.514.514,0,0,1-.4-.152.556.556,0,0,1,0-.724.514.514,0,0,1,.4-.152l1.516.042-.716-1.137a.767.767,0,0,1-.11-.371.514.514,0,0,1,.152-.379.505.505,0,0,1,.362-.152.48.48,0,0,1,.446.286l.741,1.322.708-1.263a.59.59,0,0,1,.505-.345.472.472,0,0,1,.354.152.48.48,0,0,1,.152.362.632.632,0,0,1-.1.337l-.741,1.188,1.541-.042a.5.5,0,0,1,.387.152.556.556,0,0,1,0,.724.5.5,0,0,1-.387.152h-1.558l.691,1.078a.892.892,0,0,1,.126.43.5.5,0,0,1-.143.371.48.48,0,0,1-.345.152.548.548,0,0,1-.488-.329l-.7-1.238-.7,1.238A.564.564,0,0,1,253,174.751Z" transform="translate(-162.621 -89.934)"/>
          <path id="Path_27697" data-name="Path 27697" d="M262.177,174.758a.489.489,0,0,1-.354-.152.514.514,0,0,1-.152-.379.657.657,0,0,1,.093-.337l.758-1.179h-1.55a.506.506,0,0,1-.387-.152.556.556,0,0,1,0-.724.505.505,0,0,1,.387-.152l1.524.042-.741-1.1a.766.766,0,0,1-.11-.371.514.514,0,0,1,.152-.379.505.505,0,0,1,.362-.152.48.48,0,0,1,.446.286l.741,1.322.708-1.263a.59.59,0,0,1,.505-.345.472.472,0,0,1,.354.152.481.481,0,0,1,.152.362.632.632,0,0,1-.1.337l-.741,1.188,1.541-.042a.5.5,0,0,1,.387.152.556.556,0,0,1,0,.724.5.5,0,0,1-.387.152h-1.558l.691,1.078a.892.892,0,0,1,.126.43.5.5,0,0,1-.143.371.48.48,0,0,1-.345.152.547.547,0,0,1-.489-.328l-.7-1.238-.7,1.238A.564.564,0,0,1,262.177,174.758Z" transform="translate(-164.069 -89.941)"/>
          <path id="Path_27698" data-name="Path 27698" d="M271.357,174.751A.489.489,0,0,1,271,174.6a.514.514,0,0,1-.152-.379.75.75,0,0,1,.093-.337l.758-1.179h-1.541a.48.48,0,0,1-.387-.152.531.531,0,0,1,0-.724.48.48,0,0,1,.387-.152l1.516.042-.716-1.137a.766.766,0,0,1-.109-.371.514.514,0,0,1,.514-.531.48.48,0,0,1,.446.286l.741,1.322.707-1.263a.59.59,0,0,1,.505-.345.455.455,0,0,1,.354.152.48.48,0,0,1,.152.362.632.632,0,0,1-.1.337l-.741,1.188,1.541-.042a.5.5,0,0,1,.387.152.556.556,0,0,1,0,.724.5.5,0,0,1-.387.152h-1.558l.691,1.078a.893.893,0,0,1,.126.43.505.505,0,0,1-.488.522.547.547,0,0,1-.488-.328l-.7-1.238-.7,1.238A.565.565,0,0,1,271.357,174.751Z" transform="translate(-165.517 -89.933)"/>
          <path id="Path_27699" data-name="Path 27699" d="M280.537,174.751a.489.489,0,0,1-.354-.152.514.514,0,0,1-.152-.379.75.75,0,0,1,.093-.337l.758-1.179h-1.55a.48.48,0,0,1-.379-.152.531.531,0,0,1,0-.724.48.48,0,0,1,.379-.152l1.525.042-.716-1.137a.766.766,0,0,1-.11-.371.514.514,0,0,1,.514-.531.48.48,0,0,1,.446.286l.741,1.322.707-1.263a.59.59,0,0,1,.505-.345.455.455,0,0,1,.354.152.48.48,0,0,1,.152.362.631.631,0,0,1-.1.337l-.741,1.188,1.541-.042a.5.5,0,0,1,.387.152.556.556,0,0,1,0,.724.5.5,0,0,1-.387.152h-1.558l.691,1.078a.894.894,0,0,1,.126.43.505.505,0,0,1-.489.522.547.547,0,0,1-.488-.329l-.7-1.238-.7,1.238A.564.564,0,0,1,280.537,174.751Z" transform="translate(-166.965 -89.933)"/>
          <path id="Path_27700" data-name="Path 27700" d="M289.677,174.751a.489.489,0,0,1-.354-.152.514.514,0,0,1-.152-.379.75.75,0,0,1,.093-.337l.758-1.179h-1.55a.48.48,0,0,1-.379-.152.531.531,0,0,1,0-.724.48.48,0,0,1,.379-.152l1.525.042-.716-1.137a.766.766,0,0,1-.11-.371.514.514,0,0,1,.152-.379.505.505,0,0,1,.362-.152.48.48,0,0,1,.446.286l.741,1.322.708-1.263a.59.59,0,0,1,.505-.345.455.455,0,0,1,.354.152.48.48,0,0,1,.151.362.631.631,0,0,1-.1.337l-.741,1.188,1.541-.042a.5.5,0,0,1,.387.152.556.556,0,0,1,0,.724.5.5,0,0,1-.387.152h-1.558l.691,1.078a.894.894,0,0,1,.126.43.505.505,0,0,1-.143.371.48.48,0,0,1-.345.152.547.547,0,0,1-.488-.328l-.7-1.238-.7,1.238A.565.565,0,0,1,289.677,174.751Z" transform="translate(-168.406 -89.933)"/>
          <line id="Line_346" data-name="Line 346" x2="10.301" transform="translate(147.769 103.448)" fill="none" stroke="#fff" stroke-linecap="round" stroke-linejoin="round" stroke-width="3"/>
          <path id="Path_27701" data-name="Path 27701" d="M151.83,107.77v68.418a7.471,7.471,0,0,0,7.471,7.471H284.926" transform="translate(-146.936 -80.169)" fill="none" stroke="#fff" stroke-linecap="round" stroke-linejoin="round" stroke-width="3"/>
          <line id="Line_347" data-name="Line 347" y2="10.259" transform="translate(4.894 9.459)" fill="none" stroke="#fff" stroke-linecap="round" stroke-linejoin="round" stroke-width="3"/>
        </g>
      </g>
    </g>
  </g>
</svg>
