<svg xmlns="http://www.w3.org/2000/svg" xmlns:xlink="http://www.w3.org/1999/xlink" width="28" height="28" viewBox="0 0 28 28">
  <defs>
    <clipPath id="clip-path">
      <path id="a" d="M20.285,8.4H10.5v3.964h5.632c-.524,2.518-2.72,3.964-5.632,3.964a6.122,6.122,0,0,1-6.2-6.063A6.2,6.2,0,0,1,14.366,5.55L17.42,2.565A10.593,10.593,0,0,0,10.5,0,10.352,10.352,0,0,0,0,10.26a10.352,10.352,0,0,0,10.5,10.26A9.789,9.789,0,0,0,20.523,10.26,8.328,8.328,0,0,0,20.285,8.4Z" transform="translate(0 0.001)" fill="none"/>
    </clipPath>
  </defs>
  <g id="google-svgrepo-com" transform="translate(0.388)">
    <rect id="view-box" width="28" height="28" transform="translate(-0.388)" fill="none"/>
    <g id="Logo" transform="translate(3.938 3.98)">
      <g id="Clipped">
        <path id="a-5" data-name="a" d="M20.285,8.4H10.5v3.964h5.632c-.524,2.518-2.72,3.964-5.632,3.964a6.122,6.122,0,0,1-6.2-6.063A6.2,6.2,0,0,1,14.366,5.55L17.42,2.565A10.593,10.593,0,0,0,10.5,0,10.352,10.352,0,0,0,0,10.26a10.352,10.352,0,0,0,10.5,10.26A9.789,9.789,0,0,0,20.523,10.26,8.328,8.328,0,0,0,20.285,8.4Z" transform="translate(0 0.001)" fill="none"/>
        <g id="Clipped-2" data-name="Clipped" clip-path="url(#clip-path)">
          <path id="Path" d="M0,12.125V0L8.113,6.063Z" transform="translate(-0.954 4.199)" fill="#fbbc05"/>
        </g>
      </g>
      <g id="Clipped-3" data-name="Clipped">
        <path id="a-6" data-name="a" d="M20.285,8.4H10.5v3.964h5.632c-.524,2.518-2.72,3.964-5.632,3.964a6.122,6.122,0,0,1-6.2-6.063A6.2,6.2,0,0,1,14.366,5.55L17.42,2.565A10.593,10.593,0,0,0,10.5,0,10.352,10.352,0,0,0,0,10.26a10.352,10.352,0,0,0,10.5,10.26A9.789,9.789,0,0,0,20.523,10.26,8.328,8.328,0,0,0,20.285,8.4Z" transform="translate(0 0.001)" fill="none"/>
        <g id="Clipped-4" data-name="Clipped" clip-path="url(#clip-path)">
          <path id="Path-2" data-name="Path" d="M0,5.13l8.113,6.063,3.341-2.85L22.909,6.519V0H0Z" transform="translate(-0.954 -0.931)" fill="#ea4335"/>
        </g>
      </g>
      <g id="Clipped-5" data-name="Clipped">
        <path id="a-7" data-name="a" d="M20.285,8.4H10.5v3.964h5.632c-.524,2.518-2.72,3.964-5.632,3.964a6.122,6.122,0,0,1-6.2-6.063A6.2,6.2,0,0,1,14.366,5.55L17.42,2.565A10.593,10.593,0,0,0,10.5,0,10.352,10.352,0,0,0,0,10.26a10.352,10.352,0,0,0,10.5,10.26A9.789,9.789,0,0,0,20.523,10.26,8.328,8.328,0,0,0,20.285,8.4Z" transform="translate(0 0.001)" fill="none"/>
        <g id="Clipped-6" data-name="Clipped" clip-path="url(#clip-path)">
          <path id="Path-3" data-name="Path" d="M0,17.255,14.318,6.529,18.089,7l4.821-7V22.386H0Z" transform="translate(-0.954 -0.931)" fill="#34a853"/>
        </g>
      </g>
      <g id="Clipped-7" data-name="Clipped">
        <path id="a-8" data-name="a" d="M20.285,8.4H10.5v3.964h5.632c-.524,2.518-2.72,3.964-5.632,3.964a6.122,6.122,0,0,1-6.2-6.063A6.2,6.2,0,0,1,14.366,5.55L17.42,2.565A10.593,10.593,0,0,0,10.5,0,10.352,10.352,0,0,0,0,10.26a10.352,10.352,0,0,0,10.5,10.26A9.789,9.789,0,0,0,20.523,10.26,8.328,8.328,0,0,0,20.285,8.4Z" transform="translate(0 0.001)" fill="none"/>
        <g id="Clipped-8" data-name="Clipped" clip-path="url(#clip-path)">
          <path id="Path-4" data-name="Path" d="M16.7,17.255,1.909,6.063,0,4.664,16.7,0Z" transform="translate(5.25 4.199)" fill="#4285f4"/>
        </g>
      </g>
    </g>
  </g>
</svg>
