<svg xmlns="http://www.w3.org/2000/svg" width="17.846" height="25.476" viewBox="0 0 17.846 25.476">
  <g id="grill-svgrepo-com" transform="translate(-45.02)">
    <g id="Group_18947" data-name="Group 18947" transform="translate(45.02)">
      <path id="Path_22164" data-name="Path 22164" d="M61.875,10.274h-.4a7.622,7.622,0,0,0-4.562-6V.991A.991.991,0,0,0,55.926,0H51.96a.991.991,0,0,0-.991.991V4.27a7.622,7.622,0,0,0-4.562,6h-.4a.991.991,0,0,0,0,1.983h.4a7.618,7.618,0,0,0,3.872,5.666l-.743,3.715v.006l-.529,2.646a.991.991,0,1,0,1.944.389l.369-1.847h5.249l.369,1.847a.991.991,0,0,0,1.944-.389l-.529-2.646v-.006l-.743-3.715a7.618,7.618,0,0,0,3.872-5.666h.4a.991.991,0,1,0,0-1.983ZM52.952,1.983h1.983V3.729a7.634,7.634,0,0,0-1.983,0ZM51.715,20.849l.439-2.2a7.61,7.61,0,0,0,3.577,0l.439,2.2Zm2.228-3.966a5.626,5.626,0,0,1-5.529-4.627H59.472A5.626,5.626,0,0,1,53.943,16.883Zm-5.529-6.61a5.617,5.617,0,0,1,11.058,0Z" transform="translate(-45.02)" fill="#2699fb"/>
    </g>
  </g>
</svg>
