<svg xmlns="http://www.w3.org/2000/svg" width="375" height="652" viewBox="0 0 375 652">
  <path id="Intersection_2" data-name="Intersection 2" d="M239.976,652,230.2,624.808l-18.119,4.85L209.528,652h-4.06l6.391-55.925L200.807,597.4l-20.3,54.529h-8.5l10.675-28.735-24.358-5.585L145.023,650.9l2.632,1.1h-7.368l6.616-16.534-26.464-9.921A288.77,288.77,0,0,1,107.283,652H97.96c12.028-20.283,21.2-43.211,27.441-61.878l-56.987-4.262L79.691,652h-8.12l-3.608-21.091-32.7,5.439-.3,4.263L41.8,652H37.139l-2.706-4.482-.3,4.482H30.147l1.128-14.991L7.368,640.976l.827,10.95H.151L0,649.886V524.319l7.142-23.855L0,499.871v-7.817l9.4.768,9.322-31.16L0,452.836V438.462l4.963,2.328,17.291-59.527L5.94,372.3,0,390.136V377.524l2.181-6.548L0,370.618v-3.938l3.459.546,11.653-34.981L0,326.228v-4.254L16.314,328.5l20.9-62.613L0,269.349v-7.913l56.085-5.179-40.146-45.05C13.2,211.464,5.517,212.219,0,212.7v-3.833l14.661-1.408-1.5-21.973L0,187.128V173.969l11.653-1.416L8.947,155.872c-3.277.5-6.35.978-8.947,1.371v-4.026l8.346-1.24L5.564,135.147,0,135.861v-3.943l4.887-.665L1.128,108.176,0,108.283v-7.813l31.426-2.95L26.464,62.98C18.1,64.671,9.19,65.962,0,66.933V59.087q2.309-.243,4.586-.517L2.255,27.485,0,27.218V19.286l1.579.188L.151.073H8.2l4.36,57.4c4.661-.735,9.172-1.47,13.532-2.425L30.147.073h3.985L30.147,54.088C42.026,51.3,52.4,47.548,60.37,42.477c.526-.368,1.128-.808,1.729-1.175L37.215.073h4.661l10.6,17.564L72.55,5.952,71.572.073h8.119L83.3,21.311A162.469,162.469,0,0,0,97.96.073h9.322q-1.692,3.087-3.609,6.173l30.148,10.215L140.362.073h7.367l21.051,8.6,3.233-8.6h8.5l-.677,1.911,24.584,7.423L205.468.073h4.06L208.25,10.582,227.5,16.461c2.632-.735,9.247-2.572,16.69-4.556L239.9,0h4.21c1.579,4.335,2.932,8.23,3.91,10.876,6.165-1.691,12.4-3.381,17.066-4.63L262,.073h14.886l1.354,2.572,9.1-2.572h28.644c-13.834,3.895-26.614,7.569-34.207,9.7l12.781,25.5L324.4,30.351,320.569.073h8.044L332.372,29.1,362.9,24.031,367.407.073H375V31.281l-2.03,10.534L375,42.4v4.028l-2.481-.716L375,50.95V69.573l-5.113-10.781-11.2,59.673a29.26,29.26,0,0,1,8.721,8.893L375,122.892v4.629l-5.714,3.364a28.928,28.928,0,0,1,2.406,11.391c0,.588-.075,1.1-.075,1.69l3.383.62v13.282l-7.293-1.336a29.211,29.211,0,0,1-20.224,13.817l-11.2,34.173L375,212.113v4.01l-17.818-3.517c-.451,2.792-1.354,8.157-2.33,13.963l20.148,2.6v3.949l-20.75-2.731c-.9,5.512-1.8,10.949-2.406,14.477L375,249.142v7.946l-24.659-4.5-9.173,41.007L375,262.691v5.422L340.567,299.47l13.758,16.461,20.675-12v9.044l-15.563,9.053,11.578,13.743,3.985-2.3v4.594l-1.5.869,1.5,1.8v6.14l-19.021-22.783-40.146,23.3L375,357.782v13.269l-15.563-2.721-7.518,43.726L375,417.426v4.019l-23.757-5.567-4.436,25.941c9.924,1.83,19.537,3.661,28.193,5.281v7.946l-18.8-3.526-6.015,40.934,18.419,3.675L375,470.1v16.962l-2.407,9.8,2.407.475v8l-25.862-5.1L345.6,524.275l29.4,5.669v3.917L345,528.1l-4.286,29.4L375,563.233v7.96l-35.41-5.911-4.21,28.881L375,599.457v7.833l-17.217-2.324-4.361,28.146,18.419-5.217L375,611.333v40.593h-7.744l2.932-15.433c-9.624,2.792-25.712,7.349-42.026,11.979l.451,3.454h-8.044l-.15-1.249c-1.5.441-2.932.808-4.435,1.249H287.339l32.929-9.259,2.932-20.284-53.077,16.094L276.889,652H262l-15.788-31.453-12.179,3.234c1.729,4.85,6.39,17.857,10.149,28.22Zm88.637-11.759,20.524-5.805,4.586-29.837-19.547-2.645ZM4.963,609.523l2.105,27.559,60.219-10.068-4.06-23.664Zm256.365,11.464,6.991,13.89,20.074-6.173-3.759-14.256Zm-139.309.882,26.388,9.847,6.015-14.992-27.742-6.393C125.251,614.153,123.672,617.974,122.018,621.869Zm166.449-8.452,3.759,14.183,31.576-9.553,2.181-15.139ZM215.918,595.56l-3.383,29.91,31.876-8.525-11.8-23.517Zm-53.3,15.065,22.855,5.218,7.217-19.548-14.434-5.805Zm84.653-17.711,10.525,20.945,69.467-19.4,2.105-14.257L259,570.279ZM129.46,602.982l28.945,6.613,16.841-21.679-16.24-27.044-16.539-.441A424.144,424.144,0,0,1,129.46,602.982ZM2.782,580.274l1.579,21.385,57.588-6.1-3.383-19.916Zm199.6,13.081,28.418-3.6-9.472-18.814a29.681,29.681,0,0,1-9.247,1.47,15.36,15.36,0,0,1-1.879-.074Zm-21.577-6.1,13.307,5.365,8.2-21.973a27.085,27.085,0,0,1-6.241-3.013Zm51.874-23.3,12.33,24.545,18.644-35.863L240.8,548.82A28.1,28.1,0,0,1,232.683,563.959ZM67.738,581.817l58.942,4.409c3.533-10.95,6.089-20.063,7.593-26.015l-70.519-1.984Zm110.215,2.792,15.036-19.327a26.376,26.376,0,0,1-3.534-3.528l-25.711-.735Zm-175.4-8.157,55.408-4.63L55.633,558.08l-54.58-1.544ZM300.5,572.19l29.395,4.116,1.8-12.347-28.267-4.629ZM260.876,566.6l35.635,5,3.008-13.008-31.8-5.217Zm-64.655-22.781a15.867,15.867,0,1,0,15.863-15.507A15.692,15.692,0,0,0,196.221,543.823Zm91.57,4.924,45.032,7.5,2.255-15.212-44.431-8.158Zm-124.123-.735,19.7.515a19.6,19.6,0,0,1-.376-4.7,30.3,30.3,0,0,1,.376-4.556l-16.69-7.863Zm-33.831-17.857-2.18,16.829,31.876.882,3.307-18.225-25.26-11.906Zm108.034.441a27.055,27.055,0,0,1,3.233,10.362l38.793,6.467,8.947-49.605ZM63.9,545.219l59.768,1.69,2.03-15.874L69.016,519.057Zm-61.347-1.69L55.784,545,57.739,535,6.691,529.786Zm288.767-14.551,44.356,8.231,1.654-11.538L295.76,504.653Zm-256.44-.294,23.607,2.425,9.1-46.446L47.965,475.4ZM7.895,525.965l23,2.352,13.382-54.6-18.269-8.6Zm97.509-3.233,21.5,4.556,6.992-11.317-19.7-9.259Zm126.453.147a30.62,30.62,0,0,1,3.91,4.335l54.055-34.686.677-3.822-44.507-8.819Zm-81.42-13.522L188.4,527.214a29.218,29.218,0,0,1,9.548-8.3l-6.241-24.325Zm-80.668,5.806,31.576,6.687,9.248-16.9L75.03,488.191Zm226.743-14.551,41.425,20.944,3.307-22.855-42.853-8.451Zm-99.764-39.905,14.134,54.6h1.2a28.583,28.583,0,0,1,7.969,1.1l15.712-48.136-7.142-17.27ZM123.9,496.789,145.474,507l27.517-9.848L167.8,478.932Zm39.77-46.813,13.007,45.711,14.058-5-11.953-46.372ZM86.157,479l32.929,15.507,15.412-6.246-13.081-22.415Zm213.587,3.528,42.628,8.451,6.015-40.933-41.35-7.79ZM125.176,464.381l13.006,22.341,28.494-11.611-6.766-23.737Zm123.3,8.01,43.455,8.6,7.293-40.2-38.041-7.129ZM57.664,465.557l18.57,8.745,38.793-14.477-45.033-30.2ZM216.971,412.35l20.749,50.12L261.4,390.23ZM12.33,444.245l38.117,17.931,12.479-36.524-40-17.931Zm86.683-33.07-4.736,29.983,25.26,16.977,15.337-5.732,12.1-60.335c-10.75-3.675-23.231-7.937-34.132-11.685Zm81.947-11.832,14.886,57.616,31.35-9.553-22.629-54.6Zm-41.65,51.369,37.59-14.037L167.126,398.9c-4.06-1.4-9.773-3.381-16.314-5.586Zm173.065-15.433c9.924,1.837,20.3,3.821,30.448,5.732l12.631-73.416-6.466-1.175ZM71.347,425.8l19.321,12.934L94.8,412.35l-18.193-2.131Zm192.311.367c8.947,1.691,25.636,4.777,44.657,8.378l2.782-5.218-37.59-33.29Zm31.5-16.24,17.743,15.8,31.876-59.967-20.3-3.6ZM23.983,403.9,64.2,421.9l4.586-13.449-41.2-16.829Zm184.041-13.155,7.443,18.005,46.838-23.3-42.026-10.509Zm-129.987,15.8L95.93,408.6l13.157-29.469c-8.345-2.866-15.412-5.291-19.471-6.688ZM274.86,391.92l17.291,15.359,28.118-45.858-33.53-5.879Zm-225.316.22,21.8,8.893,10.6-31.012-21.652-6.541Zm130.363,3.381,24.583-6.835,11.5-14.844-44.507-11.1Zm-52.852-14.4,38.794,13.3-9.172-35.5-22.1-6.467Zm-97.208,2.94,16.089,6.54,21.651-57.616-21.126-6.173ZM90.818,368.7l32.478,11.1,7.443-28.514-30.9-8.966Zm160.435,5.879,14.059,3.527,7.142-21.679-14.81-4.85ZM41.575,265.444,7.218,368.477l16.163,8.892L56.31,264.122ZM226.218,368.4l21.2,5.291,6.466-23.3-17.968-5.879Zm-25.185-48.282-14.736,8.3,9.322,32.188,22.78,5.659,20.148-49.312ZM61.8,359.731c4.511,1.4,15.563,4.777,21.5,6.541l8.946-26.162-20.824-6.026ZM165.622,340.11l3.609,14.037,21.8,5.438-8.346-29.1Zm71.722.735,36.312,11.832,11.653-35.5L252.23,304.393Zm-118.108-1.028L154.5,350.031l-8.8-33.953Zm171.636,3.233,12.931,2.279,24.96-14.478c1.2-5.585,3.835-17.2,6.692-30.057l-28.569-6.614Zm-211.406-60.7L69.241,325.265l45.484,13.228,29.921-26.677L136.6,280.73Zm77.661,24.766,7.518,29.029L197.424,317.7c-3.91-5.145-15.337-19.989-18.87-24.619ZM333.5,327.984l17.366-10.069-11.954-14.257ZM48.642,319.313l16.765,4.85,6.54-27.485L56.611,291.9ZM181.861,290.8l19.472,25.354,38.793-3.234.752-1.837-39.694-33Zm71.873,9.921,32.854,12.713,7.518-23L262.53,279.187Zm-26.689-6.247,15.412,12.787,12.856-31.6-9.7-6.909Zm-73.751-2.058,2.781,10.657,20-13.155-6.991-8.6Zm154.8-1.911,28.193,6.467c4.06-17.931,8.345-37.112,10.074-45.049l-24.208-4.409ZM64.881,263.313l-7.217,24.766,15.187,4.776,7.367-30.939ZM191.86,265.3l32.1,26.6,18.419-25.5-26.013-18.372Zm-19.546,13.67c2.255,2.792,5.413,6.687,7.067,8.745l18.57-12.273-9.473-7.863Zm91.644-3.381,31.351,11.1,4.811-14.772c-6.315-3.086-17.292-8.672-28.569-14.991ZM138.483,234.578l12.78,49.605,35.41-24.912L176.9,227.377ZM84.428,261.549l-4.06,16.9,55.183-1.617-5.037-19.548Zm135.4-15.947,37.064,26.236,7.669-18.887c-9.4-5.439-18.419-11.244-24.584-16.462a37.328,37.328,0,0,1-3.007-2.939Zm23.381-16.9a22.862,22.862,0,0,0,1.955,1.837c13.909,11.685,44.131,27.265,57.438,33.879l8.871-27.044-36.087-35.643ZM59.017,203.787l6.241,51.663L83.9,253.686l-7.067-52.472Zm127.356,27.485,7.142,23.223,18.043-12.64-7.443-18.887ZM87.886,253.318l40.673-3.748-1.955-7.642-42.176-14.4ZM17.141,185.046l1.579,23.37L56.686,251.04l-8.5-69.742Zm307.487,54.9,23.231,4.262,5.413-32.336L335,208.269ZM194.868,188.574l20.073,50.855L232.158,227.3c-10.451-15.506-18.946-41.227-23.532-56.954ZM80.819,200.627l3.008,22.561L125.4,237.372,114.65,195.7Zm41.575-28.22,15.036,58.424,38.267-7.276L158.556,168.07Zm159.082,24.178,32.778,32.409,14.134-43.286-21.276-10.656Zm-102.02,12.347,5.714,18.519,17.517-8.23-10.675-26.971Zm46.311-12.493c3.684,9.627,7.97,19.107,12.631,26.089l12.555-10.583-11.127-20.8Zm17.818-6.834,10.525,19.7L269.6,196.217,255.989,184.9ZM166.6,167.189,178.027,204.3l29.245-38.8c-.3-1.1-.6-2.132-.827-3.087ZM56.16,180.343l2.406,19.548,55.107-7.936-4.661-17.932Zm210.2-25.133-7.744,26.75,14.059,11.685,44.432-37.26a28.2,28.2,0,0,1-2.932-6.908Zm-51.874,6.246c1.955,7.2,5.488,19.108,9.924,31.233l30.372-11.464,7.368-25.5Zm95.855,10.876,19.246,9.627,4.135-12.493A29.912,29.912,0,0,1,322,162.559ZM12.931,155.283l2.706,16.756,30.3-3.6-4.21-17.491C35.787,151.829,23.683,153.667,12.931,155.283Zm40.9,12.2,54.506-6.541-2.105-7.789L49.77,150.58Zm67.286-8.084,33.38-3.969-20.148-31.6Zm205.468-17.2A15.867,15.867,0,1,0,342.446,126.7,15.691,15.691,0,0,0,326.584,142.2ZM136.979,120.6l21.877,34.32,12.856-1.544.075-38.067ZM114.726,153.74l20.3-54.382L96.833,86.2Zm61.122-39.023-.076,38.214L218.4,147.86l-4.511-38.949ZM9.548,134.632l2.706,16.756,28.569-4.262-3.834-16.094ZM65.934,102.15,74.2,147.787l31.05,1.4L92.172,99.725Zm-27.066,2.5,10,41.962,21.2.955-8.194-45.049Zm181.56,26.456,1.88,16.241,23.982-2.866-2.556-16.168Zm27.517-27.339,6.314,39.758,27.216-3.234-6.391-40.64Zm31.125-4.7,6.466,40.714,28.417-3.381a28.432,28.432,0,0,1,8.871-15.212L309.442,94.433ZM5.113,107.809l3.758,22.928,27.14-3.528-5.188-21.826ZM217.8,108.4l2.18,18.813,23.155-2.718-3.082-19.475Zm78.638-69.448,38.116,75.841a1.8,1.8,0,0,0,.6-.147l-10.225-80.4Zm36.387-6.025,10.225,80.839c.977.073,1.879.147,2.857.22l16.164-85.836ZM138.558,112.513l34.207-5.218,14.284-49.973-24.509-9.04Zm38.568-5.879,20.825-3.16,9.7-38.509-16.841-6.246Zm25.035-3.748,31.275-4.777L230.2,73.416l-18.87-6.982Zm-169.306-23,2.48,17.27,54.732-5.144L84.127,69.888Zm206.52,1.4,2.03,15.58,64.28-9.774-8.27-16.535ZM116.755,88.922l19.623,6.761,8.345-22.414-21.051-8.525ZM95.629,81.573,113,87.6l6.991-24.4L87.21,49.825Zm136.227-58.13,6.992,53.942,26.313-4.851c-3.082-8.745-14.51-42.109-18.344-53.133ZM64.731,49.091c-9.1,5.733-20.9,9.995-34.357,13.155l1.955,13.816L83.15,66.14,76.308,40.272A87.061,87.061,0,0,1,64.731,49.091Zm186-30.719,18.419,53.5,26.464-4.924-26.84-53.5ZM124.8,60.923l21.276,8.672,13.458-36.157-24.509-8.3Zm67.287-5.879,37.59,13.964L226.594,45.2l-25.636-9.113ZM82.849,33.879,85.856,45.2l35.185,14.257,10.224-35.569-31.952-10.8A152.447,152.447,0,0,1,82.849,33.879ZM163.893,44.46,188.4,53.574l9.623-20.725,4.811-15.727L177.05,9.332Zm38.492-12.052,23.682,8.378-2.255-17.271L206.671,18.3ZM54.506,21.017l10.9,18.005a99.809,99.809,0,0,0,11.127-9.995L73.3,10.068ZM137.58,17.71l24.735,8.378,5.112-13.743-23.832-9.7ZM79.691,652ZM41.8,652ZM328.613,651.926ZM8.2,651.926Z" fill="#fff"/>
</svg>
