<svg xmlns="http://www.w3.org/2000/svg" width="31" height="29.1" viewBox="0 0 31 29.1">
  <g id="language-svgrepo-com" transform="translate(-2.3 -3)">
    <path id="Path_360" data-name="Path 360" d="M11,16.5l-1,3.1h2Z"/>
    <path id="Path_361" data-name="Path 361" d="M30.3,3h-16V8h4v2H5.3a2.946,2.946,0,0,0-3,3V24a2.946,2.946,0,0,0,3,3h1v5.1L12.6,27h6.7V20h11a2.946,2.946,0,0,0,3-3V6A2.946,2.946,0,0,0,30.3,3ZM13.1,22.9l-.5-1.6H9.5l-.6,1.6H6.5L9.8,14h2.4l3.3,8.9ZM28.3,15v2a9.029,9.029,0,0,1-3.9-1,10.718,10.718,0,0,1-4,1l-.1-2a7.613,7.613,0,0,0,2.1-.3,6.832,6.832,0,0,1-1.8-3.2h2.1a5.028,5.028,0,0,0,1.6,2.2A5.173,5.173,0,0,0,26.2,10h-6V8h3V6h2V8h3.3l.1,1a7.6,7.6,0,0,1-2.2,5.7A6.8,6.8,0,0,0,28.3,15Z" fill="#a3e4db"/>
  </g>
</svg>
