<svg xmlns="http://www.w3.org/2000/svg" width="95.583" height="98.237" viewBox="0 0 95.583 98.237">
  <g id="svgexport-6_63_" data-name="svgexport-6 (63)" transform="translate(-6.163 -4.557)">
    <g id="Group_19011" data-name="Group 19011" transform="translate(6.163 4.557)">
      <path id="Path_22603" data-name="Path 22603" d="M99.6,63.656a7.322,7.322,0,0,0-10.34,0l-.1.1V35.736l3.271,2.17a1.447,1.447,0,0,0,2-.4L99,30.626a1.446,1.446,0,0,0-.4-2L62.686,4.8a1.446,1.446,0,0,0-1.6,0l-35.9,23.824a1.447,1.447,0,0,0-.406,2L29.339,37.5a1.446,1.446,0,0,0,2,.4l3.271-2.17V63.748H24.919V61.84a1.445,1.445,0,0,0-1.446-1.446H7.609a1.446,1.446,0,0,0,0,2.892H22.027V99.9H7.609a1.446,1.446,0,0,0,0,2.892H23.474a1.445,1.445,0,0,0,1.446-1.446V99.435H70.062a9.842,9.842,0,0,0,7.006-2.9L99.6,74a7.311,7.311,0,0,0,0-10.34ZM30.948,34.7l-2.962-4.462,33.9-22.5,33.9,22.494-2.962,4.462-30.139-20a1.446,1.446,0,0,0-1.6,0Zm6.558-.879L61.887,17.64l24.38,16.178V66.649L76.315,76.6a7.317,7.317,0,0,0-6.825-4.71H52.869l-3.505-3.636a14.782,14.782,0,0,0-10.592-4.505H37.506ZM97.559,71.951,75.025,94.488a6.973,6.973,0,0,1-4.958,2.055H24.919v-29.9H38.773a11.877,11.877,0,0,1,8.511,3.618l3.932,4.081a1.444,1.444,0,0,0,1.04.443H69.489a4.421,4.421,0,1,1,0,8.842H48.566a1.446,1.446,0,0,0,0,2.892H69.489A7.318,7.318,0,0,0,76.71,80.3l14.6-14.6a4.42,4.42,0,1,1,6.25,6.25Z" transform="translate(-6.163 -4.557)" fill="#006aff"/>
      <path id="Path_22604" data-name="Path 22604" d="M70.413,69.01A15.164,15.164,0,1,0,55.249,53.847,15.164,15.164,0,0,0,70.413,69.01Zm0-27.434A12.272,12.272,0,1,1,58.141,53.848,12.272,12.272,0,0,1,70.413,41.577Z" transform="translate(-14.689 -10.484)" fill="#006aff"/>
      <path id="Path_22605" data-name="Path 22605" d="M67.458,58.58,65.77,60.666a9.612,9.612,0,0,0,5.462,2.508v1.57h2.133v-1.5c3.4-.235,5.345-2.2,5.345-4.9,0-2.859-2.133-3.961-5.345-4.688V49.252a7.658,7.658,0,0,1,3.328,1.758l1.594-2.157a8.724,8.724,0,0,0-4.922-2.18V45.219H71.232v1.43c-2.883.351-4.829,2.3-4.829,4.828,0,2.766,1.946,3.8,4.829,4.545v4.57A8.008,8.008,0,0,1,67.458,58.58Zm5.906-2.016c1.664.5,2.414.985,2.414,2.066,0,1.032-.82,1.923-2.414,2.11ZM69.356,51.22A2.213,2.213,0,0,1,71.232,49.2v3.89C69.967,52.65,69.356,52.158,69.356,51.22Z" transform="translate(-16.516 -11.62)" fill="#006aff"/>
    </g>
  </g>
</svg>
