<svg xmlns="http://www.w3.org/2000/svg" width="29.5" height="21.306" viewBox="0 0 29.5 21.306">
  <g id="XMLID_1088_" transform="translate(0 -50)">
    <path id="XMLID_1104_" d="M240,50v2.458h7.375V68.847H240v2.458h9.833V50Z" transform="translate(-220.333 0)" fill="#cdcdd0"/>
    <rect id="XMLID_1105_" width="9" height="2" transform="translate(10 50)" fill="#ebebec"/>
    <path id="XMLID_1106_" d="M122.6,280H120v2.458h9.833V280Z" transform="translate(-110.167 -211.153)" fill="#ebebec"/>
    <path id="XMLID_1107_" d="M2.458,68.847V52.458H9.833V50H0V71.306H9.833V68.847Z" transform="translate(0 0)" fill="#cdcdd0"/>
    <path id="XMLID_1108_" d="M38.6,116.192a3.68,3.68,0,0,1,.21-1.226L30,111.836v13.78h7.375l2.24-6.465A5.917,5.917,0,0,1,38.6,116.192Z" transform="translate(-27.542 -56.769)" fill="#64c37d"/>
    <path id="XMLID_1109_" d="M154.065,185.1s-.371-.33-.877-.871l-1.438,4.149h14.607v-5.049l-8.809-3.129C156.772,182.7,154.065,185.1,154.065,185.1Z" transform="translate(-139.315 -119.535)" fill="#64c37d"/>
    <path id="XMLID_1110_" d="M122.24,201.1,120,207.566h2.6l1.438-4.149A15.009,15.009,0,0,1,122.24,201.1Z" transform="translate(-110.167 -138.719)" fill="#99eff2"/>
    <path id="XMLID_1111_" d="M30,80l10.514,3.734a3.688,3.688,0,0,1,5.195,1.845l8.874,3.152V80H30Z" transform="translate(-27.542 -27.731)" fill="#78b9eb"/>
    <path id="XMLID_1112_" d="M40.514,83.734,30,80v2.609l8.814,3.13A3.7,3.7,0,0,1,40.514,83.734Z" transform="translate(-27.542 -27.542)" fill="#ffda44"/>
    <path id="XMLID_1113_" d="M221.971,149.473a4.214,4.214,0,0,1-.205,1.246l8.809,3.129v-2.609l-8.875-3.152A3.674,3.674,0,0,1,221.971,149.473Z" transform="translate(-203.534 -90.049)" fill="#ffda44"/>
    <path id="XMLID_1114_" d="M135.21,122.461a3.681,3.681,0,0,0-.21,1.226,5.917,5.917,0,0,0,1.011,2.958,15.012,15.012,0,0,0,1.8,2.316c.506.542.877.871.877.871v-4.917a1.229,1.229,0,0,1,0-2.458V120a3.687,3.687,0,0,0-3.478,2.461Z" transform="translate(-123.938 -64.264)" fill="#ff5023"/>
    <path id="XMLID_1115_" d="M181.229,123.688A1.229,1.229,0,0,1,180,124.917v4.917s2.707-2.407,3.482-4.9a4.215,4.215,0,0,0,.205-1.246A3.687,3.687,0,0,0,180,120v2.458A1.229,1.229,0,0,1,181.229,123.688Z" transform="translate(-165.25 -64.264)" fill="#bf3c1a"/>
    <ellipse id="XMLID_1116_" cx="1" cy="1.5" rx="1" ry="1.5" transform="translate(14 58)" fill="#fff"/>
  </g>
</svg>
