<svg xmlns="http://www.w3.org/2000/svg" width="21.523" height="19.612" viewBox="0 0 21.523 19.612">
  <path id="messages-f-svgrepo-com" d="M3.934,19.348a1.076,1.076,0,0,1-1.782-.792V16.142A2.152,2.152,0,0,1,0,13.99V6.457A2.152,2.152,0,0,1,2.152,4.3H13.99a2.152,2.152,0,0,1,2.152,2.152V13.99a2.152,2.152,0,0,1-2.152,2.152H8.612L3.934,19.348ZM17.218,10.78q-.005.2,0,.4v-.4q.008-.173,0-4.325a3.228,3.228,0,0,0-3.228-3.225H5.381V2.152A2.152,2.152,0,0,1,7.533,0H19.371a2.152,2.152,0,0,1,2.152,2.152V9.685a2.152,2.152,0,0,1-2.152,2.152v2.414a1.076,1.076,0,0,1-1.782.792l-.37-.254Z" fill="#fff"/>
</svg>
