<svg xmlns="http://www.w3.org/2000/svg" width="11.167" height="16.004" viewBox="0 0 11.167 16.004">
  <g id="metro-svgrepo-com" transform="translate(0.001)">
    <path id="Path_22162" data-name="Path 22162" d="M4.51,18.946l.475,1.794,1.253.453v1.123h1.7V21.193l1.253-.453.476-1.794H4.511Z" transform="translate(-1.503 -6.312)" fill="#818181"/>
    <path id="Path_22163" data-name="Path 22163" d="M9.977,8.116a.543.543,0,0,1-.543.543h-7.7a.546.546,0,0,1-.544-.544L.915,1.893a.543.543,0,0,1,.543-.543H9.71a.546.546,0,0,1,.544.544Zm.235,1.855a.464.464,0,0,1-.463.464H7.882a.464.464,0,0,1,0-.928H9.749a.464.464,0,0,1,.463.463Zm-6.5,0a.465.465,0,0,1-.464.464H1.377a.464.464,0,0,1,0-.928H3.244a.466.466,0,0,1,.464.463ZM10.541,0H.629A.631.631,0,0,0,0,.63V12.723A1.707,1.707,0,0,0,1.706,14.43h1.16l-.557-2.319H8.84l-.557,2.321h1.16a1.707,1.707,0,0,0,1.707-1.707c.009-.043.015-11.37.015-11.37V.634a.632.632,0,0,0-.63-.63Z" fill="#818181"/>
  </g>
</svg>
