<svg id="Group_752" data-name="Group 752" xmlns="http://www.w3.org/2000/svg" width="15" height="16" viewBox="0 0 15 16">
  <g id="Group_751" data-name="Group 751">
    <path id="Path_313" data-name="Path 313" d="M17,2.762V5.81a.8.8,0,0,1-.833.762h-10a.8.8,0,0,1-.833-.762V5.048H3.667V8.1h6.667A1.6,1.6,0,0,1,12,9.619V11.9h.833a.8.8,0,0,1,.833.762v4.571a.8.8,0,0,1-.833.762H9.5a.8.8,0,0,1-.833-.762V12.667A.8.8,0,0,1,9.5,11.9h.833V9.619H3.667A1.6,1.6,0,0,1,2,8.1V5.048A1.6,1.6,0,0,1,3.667,3.524H5.333V2.762A.8.8,0,0,1,6.167,2h10A.8.8,0,0,1,17,2.762Z" transform="translate(-2 -2)" fill="#464646"/>
  </g>
</svg>
