<svg id="svgexport-6_68_" data-name="svgexport-6 (68)" xmlns="http://www.w3.org/2000/svg" width="32" height="32" viewBox="0 0 32 32">
  <path id="Path_27497" data-name="Path 27497" d="M30.251,18.119,32,16.493l-1.652-1.724,1.327-1.985-2-1.3L30.5,9.251l-2.25-.8.3-2.369-2.373-.259L25.918,3.45l-2.369.3-.8-2.25-2.237.834-1.3-2L17.231,1.652,15.507,0,13.881,1.749,11.823.54,10.645,2.616l-2.282-.7L7.7,4.206,5.314,4.049,5.193,6.434l-2.354.4.432,2.348-2.2.929.962,2.185L.108,13.7l1.44,1.9L0,17.425l1.84,1.521L.753,21.071l2.142,1.055-.568,2.319,2.327.533-.018,2.387,2.387-.018.533,2.327,2.319-.568,1.055,2.142,2.125-1.088L14.575,32l1.817-1.548,1.9,1.44,1.411-1.926,2.185.962.929-2.2,2.348.432.4-2.354,2.384-.121L27.794,24.3l2.292-.667-.7-2.282,2.077-1.178Z" fill="#eb5463"/>
  <g id="Group_42266" data-name="Group 42266" transform="translate(5.7 8.809)">
    <path id="Path_27498" data-name="Path 27498" d="M96.974,258.63c-.554-1.238-3.033.327-3.907-1.629-.55-1.229.318-2.123,1.267-2.547.487-.218,1.619-.586,1.863-.041.085.19.123.628-.174.761-.256.114-.586-.114-1.279.2-.594.266-.825.656-.648,1.052.458,1.023,2.948-.516,3.9,1.621a1.91,1.91,0,0,1-1.163,2.669c-1.081.483-2.15.308-2.364-.171a.659.659,0,0,1,.212-.788c.338-.151.845.384,1.687.008C96.866,259.54,97.2,259.125,96.974,258.63Z" transform="translate(-92.895 -247.051)" fill="#fff"/>
    <path id="Path_27499" data-name="Path 27499" d="M187,228.909a.519.519,0,0,1-.02-.09l-.729-5.9c-.036-.281.217-.533.522-.669a.74.74,0,0,1,.856.053l3.914,4.478a.4.4,0,0,1,.053.075c.114.256-.189.619-.477.748-.181.081-.348.086-.459-.052l-.8-.957-1.89.845.177,1.238c.029.175-.085.3-.267.377C187.583,229.181,187.114,229.173,187,228.909Zm2.248-3.055-1.851-2.212.415,2.854Z" transform="translate(-180.351 -217.082)" fill="#fff"/>
    <path id="Path_27500" data-name="Path 27500" d="M255.844,200.561c-.239.107-.522.095-.622-.128l-2.4-5.363c-.1-.231.116-.448.389-.57s.581-.141.684.09l2.13,4.761,2.013-.9c.215-.1.425.087.532.326s.1.518-.112.614Z" transform="translate(-242.704 -191.105)" fill="#fff"/>
    <path id="Path_27501" data-name="Path 27501" d="M328.652,145.676l1.254-.561a.418.418,0,0,1,.53.278.409.409,0,0,1-.154.564l-1.254.561.742,1.659,2.335-1.045c.215-.1.438.071.552.327.1.223.1.51-.132.613l-2.938,1.314c-.239.107-.522.095-.622-.128l-2.4-5.355c-.1-.223.08-.442.319-.549l2.938-1.314c.231-.1.445.088.545.311.114.256.09.534-.124.63l-2.335,1.045Z" transform="translate(-311.795 -142.012)" fill="#fff"/>
  </g>
</svg>
