<svg id="Group_18951" data-name="Group 18951" xmlns="http://www.w3.org/2000/svg" width="18.182" height="25.001" viewBox="0 0 18.182 25.001">
  <g id="Group_18950" data-name="Group 18950">
    <path id="Path_22172" data-name="Path 22172" d="M86.864,0H70.954a1.136,1.136,0,0,0-1.136,1.136v15.91a1.136,1.136,0,0,0,1.136,1.136h6.818v5.682a1.136,1.136,0,0,0,2.273,0V18.182h6.818A1.136,1.136,0,0,0,88,17.046V1.136A1.136,1.136,0,0,0,86.864,0Zm-7.2,11.364H78.53V12.5a1.136,1.136,0,1,1-2.273,0V5.682a1.136,1.136,0,0,1,1.136-1.136h2.273a3.409,3.409,0,0,1,0,6.818Z" transform="translate(-69.818)" fill="#2699fb"/>
  </g>
</svg>
