<svg xmlns="http://www.w3.org/2000/svg" width="17.043" height="20.102" viewBox="0 0 17.043 20.102">
  <g id="bill-svgrepo-com" transform="translate(-38.956)">
    <g id="Group_18973" data-name="Group 18973" transform="translate(49.444 14.421)">
      <g id="Group_18972" data-name="Group 18972" transform="translate(0)">
        <path id="Path_22194" data-name="Path 22194" d="M306.742,367.3a.656.656,0,1,0,.656.655A.656.656,0,0,0,306.742,367.3Z" transform="translate(-306.087 -367.304)" fill="#006aff"/>
      </g>
    </g>
    <g id="Group_18975" data-name="Group 18975" transform="translate(44.2 9.177)">
      <g id="Group_18974" data-name="Group 18974" transform="translate(0)">
        <path id="Path_22195" data-name="Path 22195" d="M173.177,233.739a.656.656,0,1,0,.656.656A.656.656,0,0,0,173.177,233.739Z" transform="translate(-172.521 -233.739)" fill="#006aff"/>
      </g>
    </g>
    <g id="Group_18977" data-name="Group 18977" transform="translate(38.956)">
      <g id="Group_18976" data-name="Group 18976" transform="translate(0)">
        <path id="Path_22196" data-name="Path 22196" d="M55.344,0H39.612a.656.656,0,0,0-.656.656V19.447a.655.655,0,0,0,.949.586l2.329-1.164,2.329,1.164a.656.656,0,0,0,.586,0l2.329-1.164,2.329,1.164a.656.656,0,0,0,.586,0l2.329-1.164,2.329,1.164A.655.655,0,0,0,56,19.447V.656A.655.655,0,0,0,55.344,0ZM42.234,2.622a.656.656,0,1,1-.656.656A.656.656,0,0,1,42.234,2.622Zm0,3.933a.656.656,0,1,1,.656-.656A.656.656,0,0,1,42.234,6.555Zm.655,3.278A1.967,1.967,0,1,1,44.856,11.8,1.969,1.969,0,0,1,42.889,9.833ZM45.16,15.7a.655.655,0,0,1-.927-.927L49.795,9.21a.655.655,0,0,1,.927.927Zm4.94,1.344a1.967,1.967,0,1,1,1.967-1.967A1.969,1.969,0,0,1,50.1,17.043ZM52.722,6.555H44.856a.656.656,0,0,1,0-1.311h7.866a.656.656,0,0,1,0,1.311Zm0-2.622H44.856a.655.655,0,1,1,0-1.311h7.866a.655.655,0,1,1,0,1.311Z" transform="translate(-38.956)" fill="#006aff"/>
      </g>
    </g>
  </g>
</svg>
