<svg id="Group_18939" data-name="Group 18939" xmlns="http://www.w3.org/2000/svg" width="15.248" height="15.252" viewBox="0 0 15.248 15.252">
  <path id="Path_22156" data-name="Path 22156" d="M12.27,13.583V11.635a.635.635,0,1,0-1.27,0V25.617a.635.635,0,1,0,1.27,0v-3.95h1.37c.006,0,.012,0,.019,0V20.4c-.006,0-.012,0-.019,0H12.27v-5.54h1.37c.006,0,.012,0,.019,0V13.583H12.27Z" transform="translate(-11 -11)" fill="#2699fb"/>
  <path id="Path_22157" data-name="Path 22157" d="M145.563,39.964H143.5v2.191a.635.635,0,0,1-1.27,0V39.964H140.16a.635.635,0,0,1,0-1.27h2.067V36.5a.635.635,0,1,1,1.27,0v2.191h2.067a.637.637,0,0,1,0,1.273Zm2.325-6.564H137.9a.7.7,0,0,0-.7.7V44.552a.7.7,0,0,0,.7.7h9.982a.634.634,0,0,0,.635-.635V34.035A.629.629,0,0,0,147.889,33.4Z" transform="translate(-133.272 -32.703)" fill="#2699fb"/>
</svg>
