<svg xmlns="http://www.w3.org/2000/svg" width="28.286" height="23.896" viewBox="0 0 28.286 23.896">
  <g id="swimming-pool-svgrepo-com" transform="translate(0 -36)">
    <path id="Path_22173" data-name="Path 22173" d="M27.8,54.044a3.463,3.463,0,0,0-1.949.552,2.746,2.746,0,0,1-2.93,0,3.717,3.717,0,0,0-3.9,0,2.746,2.746,0,0,1-2.93,0,3.462,3.462,0,0,0-1.949-.552,3.462,3.462,0,0,0-1.949.552,2.531,2.531,0,0,1-1.465.423A2.531,2.531,0,0,1,9.264,54.6a3.461,3.461,0,0,0-1.949-.552,4.238,4.238,0,0,0-.506.029V51.618h4.4v1.487a.488.488,0,0,0,.975,0V41.864a4.888,4.888,0,0,1,2.2-4.083,4.859,4.859,0,0,1,2.2,4.083.488.488,0,0,0,.975,0,5.822,5.822,0,0,0-2.2-4.579,4.888,4.888,0,0,1,6.6,4.579.488.488,0,0,0,.975,0,5.864,5.864,0,1,0-11.729,0V42.8h-4.4v-.939A4.895,4.895,0,0,1,11.7,36.975c.113,0,.226,0,.339.012a.488.488,0,0,0,.067-.973C11.969,36,11.833,36,11.7,36a5.871,5.871,0,0,0-5.864,5.864V54.348c-.171.079-.323.166-.468.248A2.531,2.531,0,0,1,3.9,55.02,2.531,2.531,0,0,1,2.436,54.6a3.462,3.462,0,0,0-1.949-.552.488.488,0,1,0,0,.975,2.531,2.531,0,0,1,1.465.423A3.462,3.462,0,0,0,3.9,56a3.462,3.462,0,0,0,1.949-.552,2.53,2.53,0,0,1,1.465-.423,2.531,2.531,0,0,1,1.465.423A3.462,3.462,0,0,0,10.729,56a3.462,3.462,0,0,0,1.949-.552,2.746,2.746,0,0,1,2.93,0,3.716,3.716,0,0,0,3.9,0,2.746,2.746,0,0,1,2.93,0,3.717,3.717,0,0,0,3.9,0A2.532,2.532,0,0,1,27.8,55.02a.488.488,0,1,0,0-.975Zm-20.989-3.4V47.7h4.4v2.944Zm4.4-6.864v2.944h-4.4V43.779Z" fill="#2699fb"/>
    <path id="Path_22174" data-name="Path 22174" d="M76.967,364.975a2.532,2.532,0,0,1-1.465-.423,3.717,3.717,0,0,0-3.9,0,2.746,2.746,0,0,1-2.93,0,3.716,3.716,0,0,0-3.9,0,2.745,2.745,0,0,1-2.93,0,3.716,3.716,0,0,0-3.9,0,2.531,2.531,0,0,1-1.465.423.488.488,0,1,0,0,.975,3.462,3.462,0,0,0,1.949-.552,2.746,2.746,0,0,1,2.93,0,3.716,3.716,0,0,0,3.9,0,2.746,2.746,0,0,1,2.93,0,3.716,3.716,0,0,0,3.9,0,2.746,2.746,0,0,1,2.93,0,3.463,3.463,0,0,0,1.949.552.488.488,0,0,0,0-.975Z" transform="translate(-52.583 -308.005)" fill="#2699fb"/>
    <path id="Path_22175" data-name="Path 22175" d="M126.138,396a3.462,3.462,0,0,0-1.949.552,2.746,2.746,0,0,1-2.93,0,3.716,3.716,0,0,0-3.9,0,2.746,2.746,0,0,1-2.93,0,3.461,3.461,0,0,0-1.949-.552.488.488,0,1,0,0,.975,2.531,2.531,0,0,1,1.465.423,3.716,3.716,0,0,0,3.9,0,2.746,2.746,0,0,1,2.93,0,3.716,3.716,0,0,0,3.9,0,2.53,2.53,0,0,1,1.465-.423.488.488,0,0,0,0-.975Z" transform="translate(-105.169 -338.054)" fill="#2699fb"/>
  </g>
</svg>
