<svg xmlns="http://www.w3.org/2000/svg" width="23.104" height="25.658" viewBox="0 0 23.104 25.658">
  <path id="Path_27620" data-name="Path 27620" d="M22.962,3.837c-3.734,0-8.646-1.26-10.4-3.594A.664.664,0,0,0,11.63.151a.678.678,0,0,0-.092.092C9.787,2.576,4.874,3.837,1.141,3.837A.642.642,0,0,0,.5,4.478v8.343c0,7.057,6.128,11.312,11.376,12.811a.63.63,0,0,0,.352,0c5.248-1.5,11.376-5.754,11.376-12.811V4.478a.642.642,0,0,0-.642-.642ZM15.9,17.314a.642.642,0,0,1-.642.642H8.842a.642.642,0,0,1-.642-.642V12.18a.642.642,0,0,1,.642-.642h.642V10.254a2.567,2.567,0,0,1,5.134,0v1.284h.642a.642.642,0,0,1,.642.642v5.134Zm0,0" transform="translate(-0.499 0)" fill="#a3e4db"/>
</svg>
