<svg xmlns="http://www.w3.org/2000/svg" width="21.934" height="28.138" viewBox="0 0 21.934 28.138">
  <g id="svgexport-6_64_" data-name="svgexport-6 (64)" transform="translate(-10.512 -5)">
    <path id="Path_27485" data-name="Path 27485" d="M21.219,33.074a.563.563,0,0,0,.52,0A19.861,19.861,0,0,0,32.446,15.412V10.086a.563.563,0,0,0-.338-.516L21.7,5.047a.564.564,0,0,0-.449,0L10.85,9.57a.563.563,0,0,0-.338.516v5.325A19.861,19.861,0,0,0,21.219,33.074ZM11.638,10.455l9.841-4.279,9.842,4.279v4.956a18.736,18.736,0,0,1-9.842,16.526,18.737,18.737,0,0,1-9.841-16.526Z" fill="#fff"/>
    <path id="Path_27486" data-name="Path 27486" d="M22.33,31.315a.563.563,0,0,0,.4-.165l8.666-8.666a.563.563,0,0,0,0-.8l-2-2a.563.563,0,0,0-.8,0L22.33,25.953l-1.785-1.785a.563.563,0,0,0-.8,0l-2,2a.563.563,0,0,0,0,.8l4.184,4.185a.563.563,0,0,0,.4.165Zm-2.183-5.953,1.785,1.785a.563.563,0,0,0,.8,0l6.267-6.266L30.2,22.086l-7.87,7.87-3.388-3.389Z" transform="translate(-3.092 -6.35)" fill="#fff"/>
  </g>
</svg>
