<svg id="restaurant-svgrepo-com" xmlns="http://www.w3.org/2000/svg" width="16.338" height="16.338" viewBox="0 0 16.338 16.338">
  <g id="Group_18938" data-name="Group 18938">
    <path id="Path_22153" data-name="Path 22153" d="M11.7,8.856c0-.005,1.352-3.158,1.281-3.195s-.941,1.747-1.576,2.954l-.2-.1c.554-1.25,1.415-3.039,1.344-3.075s-1,1.717-1.672,2.9l-.2-.1c.593-1.231,1.508-2.99,1.439-3.026S11.068,6.9,10.353,8.063l-.2-.106c.632-1.209,1.6-2.939,1.535-2.975s-1.507,2.26-1.9,2.87a1.336,1.336,0,0,0,.118,1.67l-1.789,3.13L6.281,9.524a1.841,1.841,0,0,0,.247-2.5c-.613-.915-1.9-1.93-2.659-1.547C3.13,5.9,3.275,7.531,3.7,8.546A1.841,1.841,0,0,0,5.932,9.712l1.793,3.626L6.94,14.712a6.668,6.668,0,1,1,2.394.009l-.814-1.386,1.742-3.628a1.283,1.283,0,0,0,1.44-.852C11.99,8.185,11.7,8.856,11.7,8.856ZM8.782,15.475c-.2.017-.406.031-.613.031-.227,0-.452-.014-.674-.034q-.19.4-.379.791a8.135,8.135,0,0,0,1.053.076,8.217,8.217,0,0,0,1.006-.069ZM8.169,0A8.164,8.164,0,0,0,6.16,16.078l.428-.748a7.333,7.333,0,1,1,3.112.013l.438.746A8.164,8.164,0,0,0,8.169,0Zm.287,14.815-.327-.663-.316.659c.119.006.237.018.357.018C8.266,14.829,8.36,14.818,8.456,14.815Z" fill="#818181"/>
  </g>
</svg>
