<svg xmlns="http://www.w3.org/2000/svg" width="29.631" height="19.051" viewBox="0 0 29.631 19.051">
  <g id="XMLID_809_" transform="translate(0 -81.51)">
    <g id="Group_18979" data-name="Group 18979" transform="translate(0 81.51)">
      <g id="Group_18978" data-name="Group 18978">
        <path id="Path_22197" data-name="Path 22197" d="M28.133,81.51H1.5a1.5,1.5,0,0,0-1.5,1.5v1.705H29.631V83.008A1.5,1.5,0,0,0,28.133,81.51Z" transform="translate(0 -81.51)" fill="#fff"/>
        <path id="Path_22198" data-name="Path 22198" d="M0,208.324a1.5,1.5,0,0,0,1.5,1.5H28.133a1.5,1.5,0,0,0,1.5-1.5v-9.969H0Zm12.732-1.846H10.85a.974.974,0,1,1,0-1.947h1.882a.974.974,0,1,1,0,1.947Zm9.884-1.947h3.05a.974.974,0,1,1,0,1.947h-3.05a.974.974,0,0,1,0-1.947Zm-2.94.974a.974.974,0,0,1-.974.974H16.821a.974.974,0,1,1,0-1.947H18.7A.974.974,0,0,1,19.677,205.5ZM3.821,200.831H18.359a.974.974,0,0,1,0,1.947H3.821a.974.974,0,1,1,0-1.947Zm0,3.7h3.05a.974.974,0,1,1,0,1.947H3.821a.974.974,0,1,1,0-1.947Z" transform="translate(0 -190.771)" fill="#fff"/>
      </g>
    </g>
  </g>
</svg>
