<svg xmlns="http://www.w3.org/2000/svg" width="18" height="19" viewBox="0 0 18 19">
  <g id="touch_app_black_24dp" transform="translate(0.001 0.293)">
    <g id="Group_18926" data-name="Group 18926" transform="translate(-0.001 0)">
      <rect id="Rectangle_11485" data-name="Rectangle 11485" width="18" height="19" transform="translate(0 -0.293)" fill="none"/>
    </g>
    <g id="Group_18928" data-name="Group 18928" transform="translate(3.887 0.76)">
      <g id="Group_18927" data-name="Group 18927">
        <path id="Path_22128" data-name="Path 22128" d="M7.948,7.41V4.5a1.945,1.945,0,1,1,3.89,0V7.41a3.5,3.5,0,1,0-3.89,0Zm4.279,1.921a1.536,1.536,0,0,0-.692-.163H11.06V4.5a1.167,1.167,0,0,0-2.334,0v8.355L6.05,12.3a.874.874,0,0,0-.8,1.47l3.12,3.12a1.586,1.586,0,0,0,1.1.451h4.745A1.551,1.551,0,0,0,15.758,16l.49-3.477a1.557,1.557,0,0,0-.848-1.61Z" transform="translate(-4.997 -1)" fill="#fff"/>
      </g>
    </g>
  </g>
</svg>
