<svg xmlns="http://www.w3.org/2000/svg" width="14.334" height="20.411" viewBox="0 0 14.334 20.411">
  <g id="train-svgrepo-com" transform="translate(-83.9 -11)">
    <g id="Group_18941" data-name="Group 18941" transform="translate(83.9 11)">
      <path id="Path_22159" data-name="Path 22159" d="M187.286,16.972a2.986,2.986,0,1,0-2.986-2.986A2.991,2.991,0,0,0,187.286,16.972Z" transform="translate(-180.119 -11)" fill="#818181"/>
      <path id="Path_22160" data-name="Path 22160" d="M98.234,75.309a22.179,22.179,0,0,0-.72-5.347.855.855,0,0,0-.625-.612q-.587-.137-1.174-.25a5.031,5.031,0,0,1,.037.562,4.685,4.685,0,0,1-9.37,0,4.964,4.964,0,0,1,.037-.562c-.391.075-.783.154-1.174.25a.855.855,0,0,0-.625.612,22.178,22.178,0,0,0-.72,5.347l6.9,3.4Z" transform="translate(-83.9 -66.68)" fill="#818181"/>
      <path id="Path_22161" data-name="Path 22161" d="M99.143,268.906A22.183,22.183,0,0,0,99.8,265l-7.388,3.386L85.6,265.038a22.661,22.661,0,0,0,.65,3.873.855.855,0,0,0,.625.612c.654.158,1.312.279,1.97.379l-2.553,3.586a.851.851,0,0,0,1.387.987l.966-1.353h8.108l.966,1.353a.851.851,0,0,0,1.387-.987L96.553,269.9c.658-.1,1.312-.225,1.97-.379A.861.861,0,0,0,99.143,268.906Zm-9.291,2.511.916-1.287c.641.05,3.211.05,3.856,0l.916,1.287Z" transform="translate(-85.529 -254.422)" fill="#818181"/>
    </g>
  </g>
</svg>
