<svg xmlns="http://www.w3.org/2000/svg" width="18.312" height="15.146" viewBox="0 0 18.312 15.146">
  <path id="Shape" d="M17.131,15.146H1.181a1.159,1.159,0,0,1-1.039-.631A1.193,1.193,0,0,1,.2,13.287L3.576,8.15a1.168,1.168,0,0,1,1.8-.193l2.386,2.357,3.757-4.557a1.168,1.168,0,0,1,1.9.121L18.123,13.3a1.194,1.194,0,0,1,.043,1.219A1.161,1.161,0,0,1,17.131,15.146ZM4.557,8.415a.391.391,0,0,0-.327.177L.854,13.729a.4.4,0,0,0-.019.409.386.386,0,0,0,.346.211h15.95a.387.387,0,0,0,.345-.208.4.4,0,0,0-.014-.406l-4.7-7.425a.39.39,0,0,0-.632-.04L8.1,11.156a.393.393,0,0,1-.281.142h-.02a.388.388,0,0,1-.274-.113L4.831,8.528a.387.387,0,0,0-.274-.113ZM6.784,5.58a2.773,2.773,0,0,1-2.75-2.79,2.75,2.75,0,1,1,5.5,0A2.773,2.773,0,0,1,6.784,5.58ZM6.784.8A1.993,1.993,0,1,0,8.749,2.79,1.981,1.981,0,0,0,6.784.8Z" transform="translate(0)" fill="#0093ed"/>
</svg>
